<?xml version="1.0" encoding="UTF-8" standalone="no"?>
<!DOCTYPE svg PUBLIC "-//W3C//DTD SVG 1.1//EN" "http://www.w3.org/Graphics/SVG/1.1/DTD/svg11.dtd">
<!-- Generated by graphviz version 2.40.1 (20161225.0304)
 -->
<!-- Title: MSG Pages: 1 -->
<svg width="2258pt" height="752pt" viewBox="0.00 0.00 2257.77 751.70" xmlns="http://www.w3.org/2000/svg" xmlns:xlink="http://www.w3.org/1999/xlink">
<g id="graph0" class="graph" transform="scale(1 1) rotate(0) translate(4 747.6996)">
<title>MSG</title>
<polygon fill="#ffffff" stroke="transparent" points="-4,4 -4,-747.6996 2253.7702,-747.6996 2253.7702,4 -4,4"/>
<!-- M1 -->
<g id="node1" class="node">
<title>M1</title>
<ellipse fill="none" stroke="#000000" cx="30.9543" cy="-136.7245" rx="30.9087" ry="30.9087"/>
<text text-anchor="middle" x="30.9543" y="-130.7245" font-family="Helvetica,Arial,sans-serif" font-size="20.00" fill="#000000">M1</text>
</g>
<!-- M2 -->
<g id="node2" class="node">
<title>M2</title>
<ellipse fill="none" stroke="#000000" cx="1302.9543" cy="-30.9543" rx="30.9087" ry="30.9087"/>
<text text-anchor="middle" x="1302.9543" y="-24.9543" font-family="Helvetica,Arial,sans-serif" font-size="20.00" fill="#000000">M2</text>
</g>
<!-- M1&#45;&gt;M2 -->
<g id="edge1" class="edge">
<title>M1-&gt;M2</title>
<path fill="none" stroke="#000000" d="M51.857,-113.7135C58.8627,-107.468 67.1505,-101.457 75.9543,-97.9086 187.9121,-52.7842 1060.938,-35.1155 1261.8294,-31.6257"/>
<polygon fill="#000000" stroke="#000000" points="1262.0206,-35.123 1271.9591,-31.4519 1261.9005,-28.1241 1262.0206,-35.123"/>
</g>
<!-- M7 -->
<g id="node3" class="node">
<title>M7</title>
<ellipse fill="none" stroke="#000000" cx="830.9543" cy="-250.3564" rx="30.9087" ry="30.9087"/>
<text text-anchor="middle" x="830.9543" y="-244.3564" font-family="Helvetica,Arial,sans-serif" font-size="20.00" fill="#000000">M7</text>
</g>
<!-- M7&#45;&gt;M2 -->
<g id="edge2" class="edge">
<title>M7-&gt;M2</title>
<path fill="none" stroke="#000000" d="M827.7555,-219.4749C826.0206,-184.7303 829.1769,-129.0887 861.9543,-97.9086 890.8061,-70.4629 1157.9827,-43.898 1261.8895,-34.5161"/>
<polygon fill="#000000" stroke="#000000" points="1262.3529,-37.9887 1272.001,-33.6109 1261.7288,-31.0165 1262.3529,-37.9887"/>
</g>
<!-- M8 -->
<g id="node4" class="node">
<title>M8</title>
<ellipse fill="none" stroke="#000000" cx="901.9543" cy="-136.7245" rx="30.9087" ry="30.9087"/>
<text text-anchor="middle" x="901.9543" y="-130.7245" font-family="Helvetica,Arial,sans-serif" font-size="20.00" fill="#000000">M8</text>
</g>
<!-- M7&#45;&gt;M8 -->
<g id="edge3" class="edge">
<title>M7-&gt;M8</title>
<path fill="none" stroke="#000000" d="M842.9182,-221.6823C851.9975,-205.5578 864.5369,-185.3876 875.8029,-168.7472"/>
<polygon fill="#000000" stroke="#000000" points="878.7583,-170.6267 881.5532,-160.4072 872.9953,-166.6532 878.7583,-170.6267"/>
</g>
<!-- M8&#45;&gt;M2 -->
<g id="edge4" class="edge">
<title>M8-&gt;M2</title>
<path fill="none" stroke="#000000" d="M924.8674,-115.28C932.9053,-108.7962 942.3401,-102.2519 951.9543,-97.9086 1056.8677,-50.5137 1194.1186,-36.6488 1261.6961,-32.6072"/>
<polygon fill="#000000" stroke="#000000" points="1262.1374,-36.0881 1271.928,-32.0392 1261.7494,-29.0989 1262.1374,-36.0881"/>
</g>
<!-- M8&#45;&gt;M7 -->
<g id="edge5" class="edge">
<title>M8-&gt;M7</title>
<path fill="none" stroke="#000000" d="M889.9452,-165.4789C880.8438,-181.6357 868.282,-201.8351 857.0101,-218.4749"/>
<polygon fill="#000000" stroke="#000000" points="854.0563,-216.5931 851.2583,-226.8118 859.818,-220.5683 854.0563,-216.5931"/>
</g>
<!-- M11 -->
<g id="node5" class="node">
<title>M11</title>
<ellipse fill="none" stroke="#000000" cx="1474.9543" cy="-136.7245" rx="38.6327" ry="38.6327"/>
<text text-anchor="middle" x="1474.9543" y="-130.7245" font-family="Helvetica,Arial,sans-serif" font-size="20.00" fill="#000000">M11</text>
</g>
<!-- M11&#45;&gt;M2 -->
<g id="edge6" class="edge">
<title>M11-&gt;M2</title>
<path fill="none" stroke="#000000" d="M1444.0016,-113.1029C1436.8724,-107.9311 1429.241,-102.603 1421.9543,-97.9086 1395.0376,-80.568 1363.3971,-62.887 1339.5105,-50.0521"/>
<polygon fill="#000000" stroke="#000000" points="1340.9073,-46.8304 1330.4373,-45.2092 1337.6111,-53.0057 1340.9073,-46.8304"/>
</g>
<!-- M13 -->
<g id="node6" class="node">
<title>M13</title>
<ellipse fill="none" stroke="#000000" cx="1302.9543" cy="-136.7245" rx="38.6327" ry="38.6327"/>
<text text-anchor="middle" x="1302.9543" y="-130.7245" font-family="Helvetica,Arial,sans-serif" font-size="20.00" fill="#000000">M13</text>
</g>
<!-- M13&#45;&gt;M2 -->
<g id="edge7" class="edge">
<title>M13-&gt;M2</title>
<path fill="none" stroke="#000000" d="M1302.9543,-97.6401C1302.9543,-89.2727 1302.9543,-80.4097 1302.9543,-71.9718"/>
<polygon fill="#000000" stroke="#000000" points="1306.4544,-71.9519 1302.9543,-61.9519 1299.4544,-71.952 1306.4544,-71.9519"/>
</g>
<!-- M19 -->
<g id="node7" class="node">
<title>M19</title>
<ellipse fill="none" stroke="#000000" cx="489.9543" cy="-704.8837" rx="38.6327" ry="38.6327"/>
<text text-anchor="middle" x="489.9543" y="-698.8837" font-family="Helvetica,Arial,sans-serif" font-size="20.00" fill="#000000">M19</text>
</g>
<!-- M19&#45;&gt;M2 -->
<g id="edge8" class="edge">
<title>M19-&gt;M2</title>
<path fill="none" stroke="#000000" d="M451.2372,-701.2214C350.8525,-689.3888 89.9543,-642.7519 89.9543,-477.6201 89.9543,-477.6201 89.9543,-477.6201 89.9543,-250.3564 89.9543,-158.6657 146.2678,-137.5334 228.9543,-97.9086 323.3625,-52.6666 1075.8199,-35.3207 1261.5988,-31.7047"/>
<polygon fill="#000000" stroke="#000000" points="1261.8375,-35.2009 1271.7685,-31.5096 1261.7032,-28.2022 1261.8375,-35.2009"/>
</g>
<!-- M19&#45;&gt;M7 -->
<g id="edge9" class="edge">
<title>M19-&gt;M7</title>
<path fill="none" stroke="#000000" d="M451.8129,-697.203C411.1488,-687.4145 346.7104,-667.1353 302.9543,-630.0678 196.3125,-539.7273 133.3894,-429.8891 225.9543,-325.1723 263.3666,-282.8485 659.1648,-259.0831 789.557,-252.3584"/>
<polygon fill="#000000" stroke="#000000" points="790.1016,-255.8353 799.9109,-251.8317 789.7459,-248.8444 790.1016,-255.8353"/>
</g>
<!-- M19&#45;&gt;M8 -->
<g id="edge10" class="edge">
<title>M19-&gt;M8</title>
<path fill="none" stroke="#000000" d="M528.8498,-703.6115C672.1576,-698.5587 1164.9754,-677.8146 1214.9543,-630.0678 1353.092,-498.0996 1270.809,-324.7939 1116.9543,-211.5405 1063.8394,-172.4422 988.6115,-152.5261 942.6706,-143.3977"/>
<polygon fill="#000000" stroke="#000000" points="943.2508,-139.9453 932.7718,-141.5081 941.9381,-146.8212 943.2508,-139.9453"/>
</g>
<!-- M21 -->
<g id="node8" class="node">
<title>M21</title>
<ellipse fill="none" stroke="#000000" cx="556.9543" cy="-363.9882" rx="38.6327" ry="38.6327"/>
<text text-anchor="middle" x="556.9543" y="-357.9882" font-family="Helvetica,Arial,sans-serif" font-size="20.00" fill="#000000">M21</text>
</g>
<!-- M19&#45;&gt;M21 -->
<g id="edge11" class="edge">
<title>M19-&gt;M21</title>
<path fill="none" stroke="#000000" d="M497.621,-666.8301C499.9847,-655.0484 502.5876,-642.0234 504.9543,-630.0678 520.0242,-553.9418 537.2518,-465.5058 547.607,-412.1921"/>
<polygon fill="#000000" stroke="#000000" points="551.0507,-412.8183 549.5211,-402.3344 544.1791,-411.4839 551.0507,-412.8183"/>
</g>
<!-- M22 -->
<g id="node9" class="node">
<title>M22</title>
<ellipse fill="none" stroke="#000000" cx="1032.9543" cy="-363.9882" rx="38.6327" ry="38.6327"/>
<text text-anchor="middle" x="1032.9543" y="-357.9882" font-family="Helvetica,Arial,sans-serif" font-size="20.00" fill="#000000">M22</text>
</g>
<!-- M19&#45;&gt;M22 -->
<g id="edge12" class="edge">
<title>M19-&gt;M22</title>
<path fill="none" stroke="#000000" d="M528.44,-697.678C642.2307,-675.4834 972.713,-604.318 1029.9543,-516.436 1049.9006,-485.8126 1049.2057,-443.8819 1044.3317,-411.7461"/>
<polygon fill="#000000" stroke="#000000" points="1047.7478,-410.9564 1042.6233,-401.6833 1040.8466,-412.1281 1047.7478,-410.9564"/>
</g>
<!-- M56 -->
<g id="node10" class="node">
<title>M56</title>
<ellipse fill="none" stroke="#000000" cx="308.9543" cy="-363.9882" rx="38.6327" ry="38.6327"/>
<text text-anchor="middle" x="308.9543" y="-357.9882" font-family="Helvetica,Arial,sans-serif" font-size="20.00" fill="#000000">M56</text>
</g>
<!-- M19&#45;&gt;M56 -->
<g id="edge13" class="edge">
<title>M19-&gt;M56</title>
<path fill="none" stroke="#000000" d="M455.8903,-685.9412C407.4665,-656.8099 320.7462,-595.9445 285.9543,-516.436 271.092,-482.4717 279.0453,-440.633 289.476,-409.3835"/>
<polygon fill="#000000" stroke="#000000" points="292.8898,-410.2278 292.9239,-399.633 286.2903,-407.8941 292.8898,-410.2278"/>
</g>
<!-- M57 -->
<g id="node11" class="node">
<title>M57</title>
<ellipse fill="none" stroke="#000000" cx="456.9543" cy="-591.2519" rx="38.6327" ry="38.6327"/>
<text text-anchor="middle" x="456.9543" y="-585.2519" font-family="Helvetica,Arial,sans-serif" font-size="20.00" fill="#000000">M57</text>
</g>
<!-- M19&#45;&gt;M57 -->
<g id="edge14" class="edge">
<title>M19-&gt;M57</title>
<path fill="none" stroke="#000000" d="M479.0574,-667.3615C476.3822,-658.1495 473.4839,-648.1697 470.694,-638.563"/>
<polygon fill="#000000" stroke="#000000" points="473.9898,-637.3618 467.8398,-628.7347 467.2676,-639.3141 473.9898,-637.3618"/>
</g>
<!-- M63 -->
<g id="node12" class="node">
<title>M63</title>
<ellipse fill="none" stroke="#000000" cx="670.9543" cy="-477.6201" rx="38.6327" ry="38.6327"/>
<text text-anchor="middle" x="670.9543" y="-471.6201" font-family="Helvetica,Arial,sans-serif" font-size="20.00" fill="#000000">M63</text>
</g>
<!-- M19&#45;&gt;M63 -->
<g id="edge15" class="edge">
<title>M19-&gt;M63</title>
<path fill="none" stroke="#000000" d="M514.3648,-674.2339C546.9766,-633.2866 604.7636,-560.7291 640.2807,-516.1339"/>
<polygon fill="#000000" stroke="#000000" points="643.1501,-518.1491 646.6422,-508.1463 637.6745,-513.7881 643.1501,-518.1491"/>
</g>
<!-- M21&#45;&gt;M2 -->
<g id="edge16" class="edge">
<title>M21-&gt;M2</title>
<path fill="none" stroke="#000000" d="M551.7862,-325.0416C546.4102,-266.2433 546.2002,-155.5687 609.9543,-97.9086 658.439,-54.0584 1119.8718,-36.5064 1261.6937,-32.1201"/>
<polygon fill="#000000" stroke="#000000" points="1261.84,-35.6174 1271.7291,-31.8154 1261.6274,-28.6206 1261.84,-35.6174"/>
</g>
<!-- M22&#45;&gt;M2 -->
<g id="edge17" class="edge">
<title>M22-&gt;M2</title>
<path fill="none" stroke="#000000" d="M1042.5634,-326.1727C1058.6087,-269.8479 1095.8021,-163.5272 1161.9543,-97.9086 1190.1649,-69.9256 1232.3171,-52.0327 1263.1849,-41.8516"/>
<polygon fill="#000000" stroke="#000000" points="1264.3014,-45.1694 1272.7784,-38.814 1262.1883,-38.496 1264.3014,-45.1694"/>
</g>
<!-- M22&#45;&gt;M7 -->
<g id="edge18" class="edge">
<title>M22-&gt;M7</title>
<path fill="none" stroke="#000000" d="M998.6878,-344.7121C962.0578,-324.1065 904.2311,-291.577 866.9501,-270.6052"/>
<polygon fill="#000000" stroke="#000000" points="868.3716,-267.3891 857.9399,-265.5367 864.9396,-273.4901 868.3716,-267.3891"/>
</g>
<!-- M22&#45;&gt;M8 -->
<g id="edge19" class="edge">
<title>M22-&gt;M8</title>
<path fill="none" stroke="#000000" d="M1013.3423,-329.9645C988.9534,-287.6538 947.5067,-215.7505 922.6325,-172.5979"/>
<polygon fill="#000000" stroke="#000000" points="925.6146,-170.7628 917.5883,-163.847 919.55,-174.2586 925.6146,-170.7628"/>
</g>
<!-- M56&#45;&gt;M2 -->
<g id="edge73" class="edge">
<title>M56-&gt;M2</title>
<path fill="none" stroke="#000000" d="M303.6534,-325.3255C297.9979,-266.3866 297.2997,-154.9139 361.9543,-97.9086 396.1903,-67.7231 1084.4816,-39.3332 1261.6537,-32.505"/>
<polygon fill="#000000" stroke="#000000" points="1262.0034,-35.9943 1271.8619,-32.1137 1261.7352,-28.9994 1262.0034,-35.9943"/>
</g>
<!-- M57&#45;&gt;M2 -->
<g id="edge74" class="edge">
<title>M57-&gt;M2</title>
<path fill="none" stroke="#000000" d="M418.4758,-583.6787C360.951,-571.5186 256.8248,-545.9839 233.9543,-516.436 118.0887,-366.7413 160.7096,-210.4024 312.9543,-97.9086 390.1764,-40.8492 1083.7455,-32.3933 1261.5638,-31.1609"/>
<polygon fill="#000000" stroke="#000000" points="1261.8293,-34.6594 1271.8062,-31.0941 1261.7835,-27.6595 1261.8293,-34.6594"/>
</g>
<!-- M57&#45;&gt;M7 -->
<g id="edge75" class="edge">
<title>M57-&gt;M7</title>
<path fill="none" stroke="#000000" d="M418.5571,-584.888C379.2638,-576.3091 319.3696,-557.1327 285.9543,-516.436 231.5524,-450.1795 204.4166,-389.6159 260.9543,-325.1723 295.8514,-285.3955 664.087,-260.1789 789.4416,-252.6957"/>
<polygon fill="#000000" stroke="#000000" points="789.9925,-256.1694 799.7691,-252.0867 789.5803,-249.1816 789.9925,-256.1694"/>
</g>
<!-- M57&#45;&gt;M8 -->
<g id="edge76" class="edge">
<title>M57-&gt;M8</title>
<path fill="none" stroke="#000000" d="M454.137,-552.4335C452.1554,-496.2637 456.5906,-391.7756 508.9543,-325.1723 600.1478,-209.1799 780.4304,-160.5554 861.1746,-143.9678"/>
<polygon fill="#000000" stroke="#000000" points="862.3081,-147.3109 871.4314,-141.9241 860.9402,-140.4458 862.3081,-147.3109"/>
</g>
<!-- M57&#45;&gt;M21 -->
<g id="edge77" class="edge">
<title>M57-&gt;M21</title>
<path fill="none" stroke="#000000" d="M468.899,-554.2122C479.4435,-522.9033 495.9118,-477.1563 513.9543,-438.8041 519.0348,-428.0047 525.1174,-416.6816 531.0863,-406.2065"/>
<polygon fill="#000000" stroke="#000000" points="534.2887,-407.6609 536.2745,-397.2539 528.2321,-404.1511 534.2887,-407.6609"/>
</g>
<!-- M57&#45;&gt;M22 -->
<g id="edge78" class="edge">
<title>M57-&gt;M22</title>
<path fill="none" stroke="#000000" d="M495.2317,-584.4427C541.3438,-576.34 621.1956,-562.628 689.9543,-552.436 751.3566,-543.3343 917.503,-553.9548 966.9543,-516.436 996.8218,-493.7754 985.0556,-473.2076 999.9543,-438.8041 1004.144,-429.1294 1008.6801,-418.7716 1013.009,-408.9413"/>
<polygon fill="#000000" stroke="#000000" points="1016.244,-410.2794 1017.0777,-399.7174 1009.8395,-407.4542 1016.244,-410.2794"/>
</g>
<!-- M57&#45;&gt;M56 -->
<g id="edge79" class="edge">
<title>M57-&gt;M56</title>
<path fill="none" stroke="#000000" d="M418.4236,-584.3455C381.8394,-575.5201 328.8473,-556.3183 303.9543,-516.436 284.5335,-485.3209 287.5917,-443.2482 294.4896,-411.1839"/>
<polygon fill="#000000" stroke="#000000" points="297.9666,-411.6865 296.8404,-401.1516 291.1512,-410.0894 297.9666,-411.6865"/>
</g>
<!-- M57&#45;&gt;M63 -->
<g id="edge80" class="edge">
<title>M57-&gt;M63</title>
<path fill="none" stroke="#000000" d="M491.3371,-572.995C528.3859,-553.3224 587.4271,-521.9721 627.6254,-500.6273"/>
<polygon fill="#000000" stroke="#000000" points="629.4661,-503.6127 636.6568,-495.8317 626.1833,-497.4302 629.4661,-503.6127"/>
</g>
<!-- M63&#45;&gt;M2 -->
<g id="edge86" class="edge">
<title>M63-&gt;M2</title>
<path fill="none" stroke="#000000" d="M662.1388,-439.5426C646.7764,-362.3582 625.117,-187.2307 719.9543,-97.9086 759.359,-60.7955 1135.1382,-39.1588 1261.6335,-32.8803"/>
<polygon fill="#000000" stroke="#000000" points="1261.881,-36.3725 1271.6977,-32.3872 1261.5384,-29.3809 1261.881,-36.3725"/>
</g>
<!-- M63&#45;&gt;M7 -->
<g id="edge87" class="edge">
<title>M63-&gt;M7</title>
<path fill="none" stroke="#000000" d="M688.92,-443.0299C706.0337,-411.2609 733.3625,-363.4486 761.9543,-325.1723 773.7992,-309.3153 788.4891,-293.0109 801.2665,-279.6865"/>
<polygon fill="#000000" stroke="#000000" points="804.072,-281.8218 808.5326,-272.2117 799.0526,-276.9426 804.072,-281.8218"/>
</g>
<!-- M63&#45;&gt;M8 -->
<g id="edge88" class="edge">
<title>M63-&gt;M8</title>
<path fill="none" stroke="#000000" d="M676.042,-438.9584C681.2063,-407.2803 690.9299,-361.8586 707.9543,-325.1723 734.2801,-268.4422 745.9038,-254.9202 790.9543,-211.5405 813.4177,-189.9101 842.8296,-170.3998 865.7336,-156.7299"/>
<polygon fill="#000000" stroke="#000000" points="867.6219,-159.6801 874.4792,-151.6036 864.0821,-153.6411 867.6219,-159.6801"/>
</g>
<!-- M63&#45;&gt;M21 -->
<g id="edge89" class="edge">
<title>M63-&gt;M21</title>
<path fill="none" stroke="#000000" d="M643.3581,-450.113C627.9292,-434.7339 608.5423,-415.4096 592.044,-398.9645"/>
<polygon fill="#000000" stroke="#000000" points="594.2449,-396.2166 584.6915,-391.6358 589.3032,-401.1744 594.2449,-396.2166"/>
</g>
<!-- M63&#45;&gt;M22 -->
<g id="edge90" class="edge">
<title>M63-&gt;M22</title>
<path fill="none" stroke="#000000" d="M707.9934,-465.9935C774.2533,-445.1945 912.9473,-401.6584 985.8597,-378.7712"/>
<polygon fill="#000000" stroke="#000000" points="987.2042,-382.0176 995.697,-375.6833 985.1077,-375.3389 987.2042,-382.0176"/>
</g>
<!-- M23 -->
<g id="node13" class="node">
<title>M23</title>
<ellipse fill="none" stroke="#000000" cx="918.9543" cy="-477.6201" rx="38.6327" ry="38.6327"/>
<text text-anchor="middle" x="918.9543" y="-471.6201" font-family="Helvetica,Arial,sans-serif" font-size="20.00" fill="#000000">M23</text>
</g>
<!-- M23&#45;&gt;M2 -->
<g id="edge20" class="edge">
<title>M23-&gt;M2</title>
<path fill="none" stroke="#000000" d="M926.6494,-439.3258C944.0075,-362.9115 993.4548,-190.8759 1101.9543,-97.9086 1147.8511,-58.5822 1217.6446,-42.1555 1261.7452,-35.4337"/>
<polygon fill="#000000" stroke="#000000" points="1262.4241,-38.8724 1271.8307,-33.9974 1261.4371,-31.9424 1262.4241,-38.8724"/>
</g>
<!-- M23&#45;&gt;M7 -->
<g id="edge21" class="edge">
<title>M23-&gt;M7</title>
<path fill="none" stroke="#000000" d="M907.2584,-440.5694C897.154,-409.4515 881.7286,-363.9795 865.9543,-325.1723 860.884,-312.6984 854.8244,-299.3098 849.1834,-287.3556"/>
<polygon fill="#000000" stroke="#000000" points="852.242,-285.6383 844.7761,-278.121 845.9246,-288.6534 852.242,-285.6383"/>
</g>
<!-- M23&#45;&gt;M8 -->
<g id="edge22" class="edge">
<title>M23-&gt;M8</title>
<path fill="none" stroke="#000000" d="M917.0207,-438.8469C913.7909,-374.079 907.3267,-244.4549 904.0144,-178.0355"/>
<polygon fill="#000000" stroke="#000000" points="907.5047,-177.7511 903.5109,-167.9379 900.5134,-178.0998 907.5047,-177.7511"/>
</g>
<!-- M23&#45;&gt;M22 -->
<g id="edge23" class="edge">
<title>M23-&gt;M22</title>
<path fill="none" stroke="#000000" d="M946.5505,-450.113C961.9794,-434.7339 981.3663,-415.4096 997.8647,-398.9645"/>
<polygon fill="#000000" stroke="#000000" points="1000.6055,-401.1744 1005.2171,-391.6358 995.6637,-396.2166 1000.6055,-401.1744"/>
</g>
<!-- M23&#45;&gt;M56 -->
<g id="edge24" class="edge">
<title>M23-&gt;M56</title>
<path fill="none" stroke="#000000" d="M880.66,-469.9292C840.4386,-461.912 775.3206,-449.104 718.9543,-438.8041 625.8019,-421.7823 602.1067,-419.826 508.9543,-402.8041 456.9917,-393.3089 397.5913,-381.6822 357.1153,-373.6423"/>
<polygon fill="#000000" stroke="#000000" points="357.7394,-370.198 347.2486,-371.6791 356.3733,-377.0634 357.7394,-370.198"/>
</g>
<!-- M24 -->
<g id="node14" class="node">
<title>M24</title>
<ellipse fill="none" stroke="#000000" cx="737.9543" cy="-591.2519" rx="38.6327" ry="38.6327"/>
<text text-anchor="middle" x="737.9543" y="-585.2519" font-family="Helvetica,Arial,sans-serif" font-size="20.00" fill="#000000">M24</text>
</g>
<!-- M24&#45;&gt;M2 -->
<g id="edge25" class="edge">
<title>M24-&gt;M2</title>
<path fill="none" stroke="#000000" d="M738.7353,-552.3214C741.7545,-446.3865 756.255,-156.9116 824.9543,-97.9086 857.9779,-69.546 1152.3292,-43.1136 1262.0073,-34.1651"/>
<polygon fill="#000000" stroke="#000000" points="1262.3446,-37.6493 1272.0298,-33.3542 1261.7801,-30.6721 1262.3446,-37.6493"/>
</g>
<!-- M24&#45;&gt;M7 -->
<g id="edge26" class="edge">
<title>M24-&gt;M7</title>
<path fill="none" stroke="#000000" d="M744.853,-552.8239C754.6899,-500.6106 774.4187,-404.6509 799.9543,-325.1723 803.8854,-312.9368 808.9614,-299.9007 813.8636,-288.1955"/>
<polygon fill="#000000" stroke="#000000" points="817.2003,-289.2939 817.9116,-278.7229 810.7635,-286.5431 817.2003,-289.2939"/>
</g>
<!-- M24&#45;&gt;M8 -->
<g id="edge27" class="edge">
<title>M24-&gt;M8</title>
<path fill="none" stroke="#000000" d="M755.7061,-556.4418C761.9549,-543.9084 768.9205,-529.6105 774.9543,-516.436 820.6113,-416.7459 838.5357,-393.9182 870.9543,-289.1723 882.4332,-252.0836 890.7953,-208.5792 895.9215,-177.5585"/>
<polygon fill="#000000" stroke="#000000" points="899.3997,-177.974 897.5358,-167.5444 892.4889,-176.8599 899.3997,-177.974"/>
</g>
<!-- M24&#45;&gt;M21 -->
<g id="edge28" class="edge">
<title>M24-&gt;M21</title>
<path fill="none" stroke="#000000" d="M700.0929,-582.092C666.0558,-571.8533 617.3314,-551.8596 589.9543,-516.436 567.2421,-487.0482 559.3943,-445.3909 557.0026,-413.047"/>
<polygon fill="#000000" stroke="#000000" points="560.487,-412.6775 556.4058,-402.9003 553.4991,-413.0885 560.487,-412.6775"/>
</g>
<!-- M24&#45;&gt;M22 -->
<g id="edge29" class="edge">
<title>M24-&gt;M22</title>
<path fill="none" stroke="#000000" d="M776.3764,-585.2198C841.4885,-574.2226 969.4287,-549.0124 999.9543,-516.436 1025.6845,-488.9772 1033.2046,-446.4099 1034.7026,-413.2271"/>
<polygon fill="#000000" stroke="#000000" points="1038.2128,-412.908 1034.9929,-402.8143 1031.2155,-412.7129 1038.2128,-412.908"/>
</g>
<!-- M24&#45;&gt;M56 -->
<g id="edge30" class="edge">
<title>M24-&gt;M56</title>
<path fill="none" stroke="#000000" d="M699.4985,-584.6679C600.3685,-567.6193 343.4083,-522.9081 336.9543,-516.436 310.2638,-489.6704 304.4336,-446.379 304.6072,-412.7559"/>
<polygon fill="#000000" stroke="#000000" points="308.1085,-412.7378 304.8374,-402.6605 301.1103,-412.5781 308.1085,-412.7378"/>
</g>
<!-- M24&#45;&gt;M63 -->
<g id="edge31" class="edge">
<title>M24-&gt;M63</title>
<path fill="none" stroke="#000000" d="M718.2145,-557.7732C711.2568,-545.9729 703.3406,-532.5471 696.0031,-520.1028"/>
<polygon fill="#000000" stroke="#000000" points="698.8786,-518.0886 690.7846,-511.2521 692.8488,-521.644 698.8786,-518.0886"/>
</g>
<!-- M25 -->
<g id="node15" class="node">
<title>M25</title>
<ellipse fill="none" stroke="#000000" cx="1356.9543" cy="-250.3564" rx="38.6327" ry="38.6327"/>
<text text-anchor="middle" x="1356.9543" y="-244.3564" font-family="Helvetica,Arial,sans-serif" font-size="20.00" fill="#000000">M25</text>
</g>
<!-- M25&#45;&gt;M2 -->
<g id="edge32" class="edge">
<title>M25-&gt;M2</title>
<path fill="none" stroke="#000000" d="M1361.4473,-211.649C1363.6983,-180.145 1363.6816,-134.986 1350.9543,-97.9086 1346.4769,-84.8649 1338.5628,-72.1486 1330.4361,-61.3635"/>
<polygon fill="#000000" stroke="#000000" points="1333.1814,-59.1924 1324.2335,-53.519 1327.6905,-63.534 1333.1814,-59.1924"/>
</g>
<!-- M25&#45;&gt;M11 -->
<g id="edge33" class="edge">
<title>M25-&gt;M11</title>
<path fill="none" stroke="#000000" d="M1384.9187,-223.4272C1401.2583,-207.6925 1422.0375,-187.6825 1439.5157,-170.8512"/>
<polygon fill="#000000" stroke="#000000" points="1442.0064,-173.3118 1446.7818,-163.8542 1437.1508,-168.2696 1442.0064,-173.3118"/>
</g>
<!-- M25&#45;&gt;M13 -->
<g id="edge34" class="edge">
<title>M25-&gt;M13</title>
<path fill="none" stroke="#000000" d="M1340.1644,-215.0254C1335.0849,-204.3367 1329.44,-192.4583 1324.1137,-181.2501"/>
<polygon fill="#000000" stroke="#000000" points="1327.1873,-179.5634 1319.7339,-172.0336 1320.8649,-182.5679 1327.1873,-179.5634"/>
</g>
<!-- M27 -->
<g id="node16" class="node">
<title>M27</title>
<ellipse fill="none" stroke="#000000" cx="1166.9543" cy="-591.2519" rx="38.6327" ry="38.6327"/>
<text text-anchor="middle" x="1166.9543" y="-585.2519" font-family="Helvetica,Arial,sans-serif" font-size="20.00" fill="#000000">M27</text>
</g>
<!-- M27&#45;&gt;M2 -->
<g id="edge35" class="edge">
<title>M27-&gt;M2</title>
<path fill="none" stroke="#000000" d="M1196.1802,-565.2037C1209.226,-551.9172 1223.5273,-534.7186 1231.9543,-516.436 1289.0304,-392.6079 1286.0972,-346.3935 1265.9543,-211.5405 1263.4827,-194.9938 1257.4259,-192.0871 1254.9543,-175.5405 1249.8572,-141.416 1244.3963,-130.7566 1254.9543,-97.9086 1259.1743,-84.7794 1267.0249,-72.042 1275.1724,-61.2638"/>
<polygon fill="#000000" stroke="#000000" points="1277.9184,-63.434 1281.4056,-53.4295 1272.4406,-59.0757 1277.9184,-63.434"/>
</g>
<!-- M27&#45;&gt;M7 -->
<g id="edge36" class="edge">
<title>M27-&gt;M7</title>
<path fill="none" stroke="#000000" d="M1128.2386,-586.7754C1056.0982,-577.6147 905.301,-554.3386 870.9543,-516.436 814.8478,-454.5207 817.6173,-349.2306 824.3796,-291.4036"/>
<polygon fill="#000000" stroke="#000000" points="827.8902,-291.5403 825.6754,-281.1796 820.9457,-290.6601 827.8902,-291.5403"/>
</g>
<!-- M27&#45;&gt;M8 -->
<g id="edge37" class="edge">
<title>M27-&gt;M8</title>
<path fill="none" stroke="#000000" d="M1191.8315,-561.1843C1200.9892,-548.2441 1210.2649,-532.4295 1214.9543,-516.436 1224.6622,-483.3268 1224.145,-472.0606 1214.9543,-438.8041 1182.5197,-321.4405 1156.4057,-288.3855 1061.9543,-211.5405 1025.6916,-182.0373 975.877,-161.1408 941.5113,-149.0631"/>
<polygon fill="#000000" stroke="#000000" points="942.4084,-145.6708 931.8138,-145.7444 940.1418,-152.2938 942.4084,-145.6708"/>
</g>
<!-- M27&#45;&gt;M21 -->
<g id="edge38" class="edge">
<title>M27-&gt;M21</title>
<path fill="none" stroke="#000000" d="M1128.2413,-588.1356C1010.6405,-578.367 663.1405,-547.1613 622.9543,-516.436 593.1712,-493.6646 604.8531,-473.2076 589.9543,-438.8041 585.7646,-429.1294 581.2285,-418.7716 576.8997,-408.9413"/>
<polygon fill="#000000" stroke="#000000" points="580.0692,-407.4542 572.8309,-399.7174 573.6646,-410.2794 580.0692,-407.4542"/>
</g>
<!-- M27&#45;&gt;M22 -->
<g id="edge39" class="edge">
<title>M27-&gt;M22</title>
<path fill="none" stroke="#000000" d="M1145.4631,-558.7619C1137.0089,-545.7235 1127.3384,-530.4823 1118.9543,-516.436 1098.7389,-482.5681 1095.3376,-473.155 1075.9543,-438.8041 1070.0892,-428.41 1063.7103,-417.2399 1057.7054,-406.7833"/>
<polygon fill="#000000" stroke="#000000" points="1060.567,-404.7385 1052.547,-397.8153 1054.4992,-408.2288 1060.567,-404.7385"/>
</g>
<!-- M28 -->
<g id="node17" class="node">
<title>M28</title>
<ellipse fill="none" stroke="#000000" cx="1166.9543" cy="-477.6201" rx="38.6327" ry="38.6327"/>
<text text-anchor="middle" x="1166.9543" y="-471.6201" font-family="Helvetica,Arial,sans-serif" font-size="20.00" fill="#000000">M28</text>
</g>
<!-- M27&#45;&gt;M28 -->
<g id="edge40" class="edge">
<title>M27-&gt;M28</title>
<path fill="none" stroke="#000000" d="M1160.5273,-552.7813C1160.2174,-544.2663 1160.1305,-535.1355 1160.2666,-526.275"/>
<polygon fill="#000000" stroke="#000000" points="1163.7712,-526.1375 1160.5287,-516.051 1156.7735,-525.958 1163.7712,-526.1375"/>
</g>
<!-- M28&#45;&gt;M2 -->
<g id="edge41" class="edge">
<title>M28-&gt;M2</title>
<path fill="none" stroke="#000000" d="M1163.785,-438.9139C1159.6905,-366.8327 1159.3851,-209.2582 1221.9543,-97.9086 1232.6097,-78.9461 1250.9075,-63.1245 1267.4188,-51.6309"/>
<polygon fill="#000000" stroke="#000000" points="1269.458,-54.478 1275.8404,-46.0212 1265.5773,-48.6521 1269.458,-54.478"/>
</g>
<!-- M28&#45;&gt;M7 -->
<g id="edge42" class="edge">
<title>M28-&gt;M7</title>
<path fill="none" stroke="#000000" d="M1147.3616,-443.7929C1139.9795,-430.9791 1131.5375,-416.243 1123.9543,-402.8041 1104.571,-368.4533 1111.6762,-349.9081 1080.9543,-325.1723 1019.4206,-275.6284 925.7224,-258.8661 872.2273,-253.2138"/>
<polygon fill="#000000" stroke="#000000" points="872.3782,-249.712 862.0857,-252.225 871.6989,-256.6789 872.3782,-249.712"/>
</g>
<!-- M28&#45;&gt;M8 -->
<g id="edge43" class="edge">
<title>M28-&gt;M8</title>
<path fill="none" stroke="#000000" d="M1159.9405,-439.1191C1152.7209,-406.7071 1139.1766,-360.1709 1115.9543,-325.1723 1067.6137,-252.3175 984.1154,-190.2925 936.9798,-158.8314"/>
<polygon fill="#000000" stroke="#000000" points="938.614,-155.7166 928.3385,-153.1346 934.7611,-161.5608 938.614,-155.7166"/>
</g>
<!-- M28&#45;&gt;M21 -->
<g id="edge44" class="edge">
<title>M28-&gt;M21</title>
<path fill="none" stroke="#000000" d="M1128.6374,-470.0512C1088.3975,-462.1336 1023.2646,-449.4058 966.9543,-438.8041 836.2958,-414.2047 681.9722,-386.3738 605.271,-372.624"/>
<polygon fill="#000000" stroke="#000000" points="605.879,-369.1773 595.4184,-370.8587 604.6444,-376.0676 605.879,-369.1773"/>
</g>
<!-- M28&#45;&gt;M22 -->
<g id="edge45" class="edge">
<title>M28-&gt;M22</title>
<path fill="none" stroke="#000000" d="M1137.2154,-452.4015C1117.5248,-435.7039 1091.5386,-413.6676 1070.4356,-395.7723"/>
<polygon fill="#000000" stroke="#000000" points="1072.5007,-392.9345 1062.6101,-389.1363 1067.9734,-398.2734 1072.5007,-392.9345"/>
</g>
<!-- M28&#45;&gt;M27 -->
<g id="edge46" class="edge">
<title>M28-&gt;M27</title>
<path fill="none" stroke="#000000" d="M1173.3799,-516.051C1173.6904,-524.5641 1173.778,-533.6944 1173.6427,-542.5557"/>
<polygon fill="#000000" stroke="#000000" points="1170.138,-542.6951 1173.3813,-552.7813 1177.1358,-542.8741 1170.138,-542.6951"/>
</g>
<!-- M44 -->
<g id="node18" class="node">
<title>M44</title>
<ellipse fill="none" stroke="#000000" cx="1814.9543" cy="-363.9882" rx="38.6327" ry="38.6327"/>
<text text-anchor="middle" x="1814.9543" y="-357.9882" font-family="Helvetica,Arial,sans-serif" font-size="20.00" fill="#000000">M44</text>
</g>
<!-- M44&#45;&gt;M2 -->
<g id="edge47" class="edge">
<title>M44-&gt;M2</title>
<path fill="none" stroke="#000000" d="M1792.5905,-331.9846C1784.0161,-319.0132 1774.4912,-303.6908 1766.9543,-289.1723 1724.6571,-207.6937 1760.4728,-155.4666 1688.9543,-97.9086 1636.2558,-55.497 1432.4074,-38.5706 1344.1147,-33.1307"/>
<polygon fill="#000000" stroke="#000000" points="1344.1289,-29.6254 1333.9381,-32.5233 1343.7118,-36.6129 1344.1289,-29.6254"/>
</g>
<!-- M46 -->
<g id="node19" class="node">
<title>M46</title>
<ellipse fill="none" stroke="#000000" cx="1881.9543" cy="-136.7245" rx="38.6327" ry="38.6327"/>
<text text-anchor="middle" x="1881.9543" y="-130.7245" font-family="Helvetica,Arial,sans-serif" font-size="20.00" fill="#000000">M46</text>
</g>
<!-- M44&#45;&gt;M46 -->
<g id="edge48" class="edge">
<title>M44-&gt;M46</title>
<path fill="none" stroke="#000000" d="M1839.0972,-333.2369C1848.0281,-320.3171 1857.3355,-304.6995 1862.9543,-289.1723 1874.929,-256.0812 1879.6073,-216.6043 1881.3294,-186.1144"/>
<polygon fill="#000000" stroke="#000000" points="1884.8441,-185.8845 1881.8223,-175.7298 1877.852,-185.5526 1884.8441,-185.8845"/>
</g>
<!-- M92 -->
<g id="node20" class="node">
<title>M92</title>
<ellipse fill="none" stroke="#000000" cx="1814.9543" cy="-250.3564" rx="38.6327" ry="38.6327"/>
<text text-anchor="middle" x="1814.9543" y="-244.3564" font-family="Helvetica,Arial,sans-serif" font-size="20.00" fill="#000000">M92</text>
</g>
<!-- M44&#45;&gt;M92 -->
<g id="edge49" class="edge">
<title>M44-&gt;M92</title>
<path fill="none" stroke="#000000" d="M1808.5273,-325.5177C1808.2174,-317.0026 1808.1305,-307.8718 1808.2666,-299.0114"/>
<polygon fill="#000000" stroke="#000000" points="1811.7712,-298.8738 1808.5287,-288.7873 1804.7735,-298.6943 1811.7712,-298.8738"/>
</g>
<!-- M46&#45;&gt;M2 -->
<g id="edge53" class="edge">
<title>M46-&gt;M2</title>
<path fill="none" stroke="#000000" d="M1849.7942,-114.6498C1839.1303,-108.2875 1826.9189,-101.9742 1814.9543,-97.9086 1727.662,-68.2464 1450.1202,-43.0267 1344.3965,-34.2592"/>
<polygon fill="#000000" stroke="#000000" points="1344.3797,-30.7461 1334.1264,-33.4146 1343.8059,-37.7225 1344.3797,-30.7461"/>
</g>
<!-- M92&#45;&gt;M2 -->
<g id="edge91" class="edge">
<title>M92-&gt;M2</title>
<path fill="none" stroke="#000000" d="M1812.4366,-211.4896C1807.9618,-176.2699 1795.6523,-125.7507 1761.9543,-97.9086 1698.6215,-45.5815 1444.6861,-34.1339 1344.1935,-31.6424"/>
<polygon fill="#000000" stroke="#000000" points="1344.1942,-28.1416 1334.1162,-31.4102 1344.0329,-35.1398 1344.1942,-28.1416"/>
</g>
<!-- M92&#45;&gt;M44 -->
<g id="edge92" class="edge">
<title>M92-&gt;M44</title>
<path fill="none" stroke="#000000" d="M1821.3799,-288.7873C1821.6904,-297.3004 1821.778,-306.4307 1821.6427,-315.292"/>
<polygon fill="#000000" stroke="#000000" points="1818.138,-315.4315 1821.3813,-325.5177 1825.1358,-315.6104 1818.138,-315.4315"/>
</g>
<!-- M92&#45;&gt;M46 -->
<g id="edge93" class="edge">
<title>M92-&gt;M46</title>
<path fill="none" stroke="#000000" d="M1834.6941,-216.8777C1841.6518,-205.0774 1849.568,-191.6516 1856.9055,-179.2073"/>
<polygon fill="#000000" stroke="#000000" points="1860.0599,-180.7484 1862.124,-170.3566 1854.03,-177.193 1860.0599,-180.7484"/>
</g>
<!-- M45 -->
<g id="node21" class="node">
<title>M45</title>
<ellipse fill="none" stroke="#000000" cx="1986.9543" cy="-363.9882" rx="38.6327" ry="38.6327"/>
<text text-anchor="middle" x="1986.9543" y="-357.9882" font-family="Helvetica,Arial,sans-serif" font-size="20.00" fill="#000000">M45</text>
</g>
<!-- M45&#45;&gt;M2 -->
<g id="edge50" class="edge">
<title>M45-&gt;M2</title>
<path fill="none" stroke="#000000" d="M2011.8315,-333.9206C2020.9892,-320.9805 2030.2649,-305.1658 2034.9543,-289.1723 2060.3807,-202.4545 2042.3818,-146.1302 1965.9543,-97.9086 1913.3286,-64.7046 1480.8874,-40.0215 1344.2014,-32.9888"/>
<polygon fill="#000000" stroke="#000000" points="1344.298,-29.4892 1334.1326,-32.4752 1343.9413,-36.4802 1344.298,-29.4892"/>
</g>
<!-- M45&#45;&gt;M46 -->
<g id="edge51" class="edge">
<title>M45-&gt;M46</title>
<path fill="none" stroke="#000000" d="M1964.3697,-332.0971C1955.7648,-319.1413 1946.2768,-303.8001 1938.9543,-289.1723 1921.8345,-254.9728 1906.8839,-214.3215 1896.5944,-183.601"/>
<polygon fill="#000000" stroke="#000000" points="1899.8815,-182.3933 1893.4206,-173.9965 1893.235,-184.5897 1899.8815,-182.3933"/>
</g>
<!-- M93 -->
<g id="node22" class="node">
<title>M93</title>
<ellipse fill="none" stroke="#000000" cx="1986.9543" cy="-250.3564" rx="38.6327" ry="38.6327"/>
<text text-anchor="middle" x="1986.9543" y="-244.3564" font-family="Helvetica,Arial,sans-serif" font-size="20.00" fill="#000000">M93</text>
</g>
<!-- M45&#45;&gt;M93 -->
<g id="edge52" class="edge">
<title>M45-&gt;M93</title>
<path fill="none" stroke="#000000" d="M1980.5273,-325.5177C1980.2174,-317.0026 1980.1305,-307.8718 1980.2666,-299.0114"/>
<polygon fill="#000000" stroke="#000000" points="1983.7712,-298.8738 1980.5287,-288.7873 1976.7735,-298.6943 1983.7712,-298.8738"/>
</g>
<!-- M93&#45;&gt;M2 -->
<g id="edge94" class="edge">
<title>M93-&gt;M2</title>
<path fill="none" stroke="#000000" d="M1983.6515,-211.4518C1978.4189,-175.949 1964.8969,-125.0102 1929.9543,-97.9086 1883.6843,-62.0214 1476.7946,-39.353 1344.3916,-32.875"/>
<polygon fill="#000000" stroke="#000000" points="1344.4087,-29.3719 1334.2512,-32.3844 1344.0703,-36.3637 1344.4087,-29.3719"/>
</g>
<!-- M93&#45;&gt;M46 -->
<g id="edge96" class="edge">
<title>M93-&gt;M46</title>
<path fill="none" stroke="#000000" d="M1960.4584,-221.6823C1946.7795,-206.8789 1929.9498,-188.6656 1915.3857,-172.9042"/>
<polygon fill="#000000" stroke="#000000" points="1917.799,-170.3587 1908.4418,-165.3895 1912.6578,-175.1093 1917.799,-170.3587"/>
</g>
<!-- M93&#45;&gt;M45 -->
<g id="edge95" class="edge">
<title>M93-&gt;M45</title>
<path fill="none" stroke="#000000" d="M1993.3799,-288.7873C1993.6904,-297.3004 1993.778,-306.4307 1993.6427,-315.292"/>
<polygon fill="#000000" stroke="#000000" points="1990.138,-315.4315 1993.3813,-325.5177 1997.1358,-315.6104 1990.138,-315.4315"/>
</g>
<!-- M48 -->
<g id="node23" class="node">
<title>M48</title>
<ellipse fill="none" stroke="#000000" cx="2143.9543" cy="-363.9882" rx="38.6327" ry="38.6327"/>
<text text-anchor="middle" x="2143.9543" y="-357.9882" font-family="Helvetica,Arial,sans-serif" font-size="20.00" fill="#000000">M48</text>
</g>
<!-- M48&#45;&gt;M2 -->
<g id="edge54" class="edge">
<title>M48-&gt;M2</title>
<path fill="none" stroke="#000000" d="M2137.4989,-325.4635C2125.2513,-265.6546 2092.5638,-151.7555 2014.9543,-97.9086 1959.7219,-59.5874 1488.3355,-38.1848 1344.4731,-32.5022"/>
<polygon fill="#000000" stroke="#000000" points="1344.4286,-28.9978 1334.2996,-32.105 1344.1555,-35.9925 1344.4286,-28.9978"/>
</g>
<!-- M49 -->
<g id="node24" class="node">
<title>M49</title>
<ellipse fill="none" stroke="#000000" cx="2210.9543" cy="-250.3564" rx="38.6327" ry="38.6327"/>
<text text-anchor="middle" x="2210.9543" y="-244.3564" font-family="Helvetica,Arial,sans-serif" font-size="20.00" fill="#000000">M49</text>
</g>
<!-- M48&#45;&gt;M49 -->
<g id="edge55" class="edge">
<title>M48-&gt;M49</title>
<path fill="none" stroke="#000000" d="M2163.6941,-330.5095C2170.6518,-318.7093 2178.568,-305.2834 2185.9055,-292.8391"/>
<polygon fill="#000000" stroke="#000000" points="2189.0599,-294.3803 2191.124,-283.9885 2183.03,-290.8249 2189.0599,-294.3803"/>
</g>
<!-- M50 -->
<g id="node25" class="node">
<title>M50</title>
<ellipse fill="none" stroke="#000000" cx="2158.9543" cy="-136.7245" rx="38.6327" ry="38.6327"/>
<text text-anchor="middle" x="2158.9543" y="-130.7245" font-family="Helvetica,Arial,sans-serif" font-size="20.00" fill="#000000">M50</text>
</g>
<!-- M48&#45;&gt;M50 -->
<g id="edge56" class="edge">
<title>M48-&gt;M50</title>
<path fill="none" stroke="#000000" d="M2146.5159,-325.1784C2149.0537,-286.7277 2152.9496,-227.7012 2155.704,-185.9689"/>
<polygon fill="#000000" stroke="#000000" points="2159.2119,-185.9635 2156.3782,-175.7547 2152.2271,-185.5024 2159.2119,-185.9635"/>
</g>
<!-- M49&#45;&gt;M2 -->
<g id="edge57" class="edge">
<title>M49-&gt;M2</title>
<path fill="none" stroke="#000000" d="M2222.4911,-213.0911C2230.6433,-178.515 2235.6373,-127.9934 2206.9543,-97.9086 2176.7723,-66.2516 1517.0848,-39.0779 1344.1536,-32.4802"/>
<polygon fill="#000000" stroke="#000000" points="1344.0673,-28.9745 1333.9419,-32.093 1343.802,-35.9695 1344.0673,-28.9745"/>
</g>
<!-- M49&#45;&gt;M50 -->
<g id="edge58" class="edge">
<title>M49-&gt;M50</title>
<path fill="none" stroke="#000000" d="M2194.7862,-215.0254C2189.8949,-204.3367 2184.4591,-192.4583 2179.33,-181.2501"/>
<polygon fill="#000000" stroke="#000000" points="2182.4562,-179.6703 2175.1124,-172.0336 2176.091,-182.5832 2182.4562,-179.6703"/>
</g>
<!-- M50&#45;&gt;M2 -->
<g id="edge59" class="edge">
<title>M50-&gt;M2</title>
<path fill="none" stroke="#000000" d="M2129.8029,-111.0401C2122.4627,-105.8429 2114.2874,-101.0229 2105.9543,-97.9086 1964.05,-44.8747 1487.5107,-33.6538 1344.1165,-31.4556"/>
<polygon fill="#000000" stroke="#000000" points="1344.0378,-27.9542 1333.9875,-31.307 1343.9351,-34.9534 1344.0378,-27.9542"/>
</g>
<!-- M51 -->
<g id="node26" class="node">
<title>M51</title>
<ellipse fill="none" stroke="#000000" cx="1541.9543" cy="-477.6201" rx="38.6327" ry="38.6327"/>
<text text-anchor="middle" x="1541.9543" y="-471.6201" font-family="Helvetica,Arial,sans-serif" font-size="20.00" fill="#000000">M51</text>
</g>
<!-- M51&#45;&gt;M2 -->
<g id="edge60" class="edge">
<title>M51-&gt;M2</title>
<path fill="none" stroke="#000000" d="M1512.5802,-451.8953C1498.6793,-438.4314 1482.7917,-420.9867 1471.9543,-402.8041 1398.796,-280.0617 1445.1633,-219.4053 1369.9543,-97.9086 1360.6363,-82.8558 1347.3066,-68.6227 1334.9871,-57.1819"/>
<polygon fill="#000000" stroke="#000000" points="1337.2665,-54.5245 1327.4919,-50.4368 1332.5839,-59.7278 1337.2665,-54.5245"/>
</g>
<!-- M51&#45;&gt;M11 -->
<g id="edge61" class="edge">
<title>M51-&gt;M11</title>
<path fill="none" stroke="#000000" d="M1517.3936,-447.0138C1508.4019,-434.115 1499.162,-418.474 1493.9543,-402.8041 1469.8043,-330.1381 1468.9241,-240.3423 1471.3293,-185.8569"/>
<polygon fill="#000000" stroke="#000000" points="1474.8295,-185.9377 1471.8299,-175.7764 1467.8381,-185.5905 1474.8295,-185.9377"/>
</g>
<!-- M52 -->
<g id="node27" class="node">
<title>M52</title>
<ellipse fill="none" stroke="#000000" cx="1541.9543" cy="-363.9882" rx="38.6327" ry="38.6327"/>
<text text-anchor="middle" x="1541.9543" y="-357.9882" font-family="Helvetica,Arial,sans-serif" font-size="20.00" fill="#000000">M52</text>
</g>
<!-- M51&#45;&gt;M52 -->
<g id="edge62" class="edge">
<title>M51-&gt;M52</title>
<path fill="none" stroke="#000000" d="M1541.9543,-438.5144C1541.9543,-430.3903 1541.9543,-421.7294 1541.9543,-413.2933"/>
<polygon fill="#000000" stroke="#000000" points="1545.4544,-413.1659 1541.9543,-403.1659 1538.4544,-413.166 1545.4544,-413.1659"/>
</g>
<!-- M53 -->
<g id="node28" class="node">
<title>M53</title>
<ellipse fill="none" stroke="#000000" cx="1680.9543" cy="-250.3564" rx="38.6327" ry="38.6327"/>
<text text-anchor="middle" x="1680.9543" y="-244.3564" font-family="Helvetica,Arial,sans-serif" font-size="20.00" fill="#000000">M53</text>
</g>
<!-- M51&#45;&gt;M53 -->
<g id="edge63" class="edge">
<title>M51-&gt;M53</title>
<path fill="none" stroke="#000000" d="M1574.3103,-455.9484C1592.2622,-442.4899 1613.7622,-423.7859 1627.9543,-402.8041 1649.3448,-371.18 1662.9794,-330.0337 1671.0546,-298.4598"/>
<polygon fill="#000000" stroke="#000000" points="1674.4975,-299.1154 1673.4838,-288.5692 1667.6995,-297.4457 1674.4975,-299.1154"/>
</g>
<!-- M55 -->
<g id="node29" class="node">
<title>M55</title>
<ellipse fill="none" stroke="#000000" cx="1613.9543" cy="-136.7245" rx="38.6327" ry="38.6327"/>
<text text-anchor="middle" x="1613.9543" y="-130.7245" font-family="Helvetica,Arial,sans-serif" font-size="20.00" fill="#000000">M55</text>
</g>
<!-- M51&#45;&gt;M55 -->
<g id="edge64" class="edge">
<title>M51-&gt;M55</title>
<path fill="none" stroke="#000000" d="M1566.3666,-446.9637C1575.3367,-434.0576 1584.6005,-418.4247 1589.9543,-402.8041 1614.819,-330.2573 1617.5764,-240.4267 1616.4113,-185.9018"/>
<polygon fill="#000000" stroke="#000000" points="1619.9077,-185.7166 1616.142,-175.8136 1612.9101,-185.9035 1619.9077,-185.7166"/>
</g>
<!-- M52&#45;&gt;M2 -->
<g id="edge65" class="edge">
<title>M52-&gt;M2</title>
<path fill="none" stroke="#000000" d="M1551.381,-326.1962C1563.0129,-269.9018 1575.3709,-163.6198 1522.9543,-97.9086 1500.5715,-69.8488 1401.0976,-48.1753 1343.8689,-37.7598"/>
<polygon fill="#000000" stroke="#000000" points="1344.1619,-34.2569 1333.7027,-35.947 1342.933,-41.1482 1344.1619,-34.2569"/>
</g>
<!-- M52&#45;&gt;M11 -->
<g id="edge66" class="edge">
<title>M52-&gt;M11</title>
<path fill="none" stroke="#000000" d="M1530.9656,-326.7147C1519.452,-287.6605 1501.3354,-226.2089 1488.8396,-183.8234"/>
<polygon fill="#000000" stroke="#000000" points="1492.134,-182.6205 1485.949,-174.0184 1485.4197,-184.6 1492.134,-182.6205"/>
</g>
<!-- M52&#45;&gt;M53 -->
<g id="edge67" class="edge">
<title>M52-&gt;M53</title>
<path fill="none" stroke="#000000" d="M1572.1152,-339.3318C1592.8801,-322.3566 1620.6308,-299.6705 1642.9134,-281.4547"/>
<polygon fill="#000000" stroke="#000000" points="1645.3253,-284.0037 1650.8522,-274.9647 1640.8948,-278.5841 1645.3253,-284.0037"/>
</g>
<!-- M52&#45;&gt;M55 -->
<g id="edge68" class="edge">
<title>M52-&gt;M55</title>
<path fill="none" stroke="#000000" d="M1553.6826,-326.9686C1566.1039,-287.7615 1585.7412,-225.7775 1599.2038,-183.2837"/>
<polygon fill="#000000" stroke="#000000" points="1602.5473,-184.3184 1602.231,-173.7283 1595.8742,-182.2043 1602.5473,-184.3184"/>
</g>
<!-- M53&#45;&gt;M2 -->
<g id="edge69" class="edge">
<title>M53-&gt;M2</title>
<path fill="none" stroke="#000000" d="M1687.6477,-211.9488C1691.2787,-177.5467 1690.2907,-128.0101 1661.9543,-97.9086 1619.0897,-52.3739 1429.108,-37.2583 1344.1979,-32.7194"/>
<polygon fill="#000000" stroke="#000000" points="1344.3057,-29.2204 1334.14,-32.2052 1343.9482,-36.2113 1344.3057,-29.2204"/>
</g>
<!-- M53&#45;&gt;M55 -->
<g id="edge70" class="edge">
<title>M53-&gt;M55</title>
<path fill="none" stroke="#000000" d="M1656.7489,-219.606C1649.2401,-207.9701 1641.0994,-194.4721 1633.9063,-181.7907"/>
<polygon fill="#000000" stroke="#000000" points="1636.7861,-179.7684 1628.8588,-172.7393 1630.6725,-183.1778 1636.7861,-179.7684"/>
</g>
<!-- M55&#45;&gt;M2 -->
<g id="edge71" class="edge">
<title>M55-&gt;M2</title>
<path fill="none" stroke="#000000" d="M1582.8479,-113.175C1574.4383,-107.5838 1565.1194,-102.0482 1555.9543,-97.9086 1484.6747,-65.7134 1394.8603,-46.5422 1343.667,-37.4369"/>
<polygon fill="#000000" stroke="#000000" points="1344.1065,-33.9609 1333.6549,-35.6973 1342.9082,-40.8575 1344.1065,-33.9609"/>
</g>
<!-- M55&#45;&gt;M53 -->
<g id="edge72" class="edge">
<title>M55-&gt;M53</title>
<path fill="none" stroke="#000000" d="M1638.1597,-167.4749C1645.6787,-179.1265 1653.8312,-192.6452 1661.0314,-205.3415"/>
<polygon fill="#000000" stroke="#000000" points="1658.1565,-207.3727 1666.0832,-214.4025 1664.2705,-203.9639 1658.1565,-207.3727"/>
</g>
<!-- M60 -->
<g id="node30" class="node">
<title>M60</title>
<ellipse fill="none" stroke="#000000" cx="384.9543" cy="-477.6201" rx="38.6327" ry="38.6327"/>
<text text-anchor="middle" x="384.9543" y="-471.6201" font-family="Helvetica,Arial,sans-serif" font-size="20.00" fill="#000000">M60</text>
</g>
<!-- M60&#45;&gt;M2 -->
<g id="edge81" class="edge">
<title>M60-&gt;M2</title>
<path fill="none" stroke="#000000" d="M377.6361,-439.2581C369.3069,-384.5686 361.8005,-282.9212 403.9543,-211.5405 447.7547,-137.3716 480.2863,-128.1109 560.9543,-97.9086 691.1107,-49.1778 1125.6257,-35.0799 1261.7865,-31.8093"/>
<polygon fill="#000000" stroke="#000000" points="1261.8946,-35.3078 1271.8102,-31.5753 1261.7312,-28.3097 1261.8946,-35.3078"/>
</g>
<!-- M60&#45;&gt;M7 -->
<g id="edge82" class="edge">
<title>M60-&gt;M7</title>
<path fill="none" stroke="#000000" d="M403.6755,-443.2166C424.64,-408.0443 461.9279,-354.5324 508.9543,-325.1723 555.8571,-295.8894 714.5775,-268.3023 790.2169,-256.448"/>
<polygon fill="#000000" stroke="#000000" points="790.973,-259.8727 800.3183,-254.8812 789.9,-252.9554 790.973,-259.8727"/>
</g>
<!-- M60&#45;&gt;M8 -->
<g id="edge83" class="edge">
<title>M60-&gt;M8</title>
<path fill="none" stroke="#000000" d="M387.3596,-438.831C392.2915,-372.7389 405.9071,-242.4311 437.9543,-211.5405 498.0273,-153.6356 758.2451,-140.5006 860.4869,-137.5594"/>
<polygon fill="#000000" stroke="#000000" points="860.83,-141.0515 870.7322,-137.2839 860.6417,-134.054 860.83,-141.0515"/>
</g>
<!-- M60&#45;&gt;M21 -->
<g id="edge84" class="edge">
<title>M60-&gt;M21</title>
<path fill="none" stroke="#000000" d="M418.4463,-457.4396C442.5176,-442.7244 475.5921,-422.0703 503.9543,-402.8041 508.4356,-399.76 513.0786,-396.5092 517.669,-393.2332"/>
<polygon fill="#000000" stroke="#000000" points="519.7652,-396.0367 525.8286,-387.3484 515.6706,-390.3592 519.7652,-396.0367"/>
</g>
<!-- M60&#45;&gt;M56 -->
<g id="edge85" class="edge">
<title>M60-&gt;M56</title>
<path fill="none" stroke="#000000" d="M363.1758,-445.0577C354.8281,-432.5766 345.1947,-418.1732 336.3847,-405.001"/>
<polygon fill="#000000" stroke="#000000" points="339.2048,-402.9217 330.736,-396.5553 333.3862,-406.8133 339.2048,-402.9217"/>
</g>
</g>
</svg>