<?xml version="1.0" encoding="UTF-8" standalone="no"?>
<!DOCTYPE svg PUBLIC "-//W3C//DTD SVG 1.1//EN" "http://www.w3.org/Graphics/SVG/1.1/DTD/svg11.dtd">
<!-- Generated by graphviz version 2.40.1 (20161225.0304)
 -->
<!-- Title: Inclusion Pages: 1 -->
<svg width="2341pt" height="622pt" viewBox="0.00 0.00 2341.15 622.04" xmlns="http://www.w3.org/2000/svg" xmlns:xlink="http://www.w3.org/1999/xlink">
<g id="graph0" class="graph" transform="scale(1 1) rotate(0) translate(4 618.0387)">
<title>Inclusion</title>
<polygon fill="#ffffff" stroke="transparent" points="-4,4 -4,-618.0387 2337.1523,-618.0387 2337.1523,4 -4,4"/>
<!-- T1 -->
<g id="node1" class="node">
<title>T1</title>
<ellipse fill="none" stroke="#000000" cx="1997" cy="-510.1564" rx="27.6307" ry="22.7556"/>
<text text-anchor="middle" x="1997" y="-504.1564" font-family="Helvetica,Arial,sans-serif" font-size="20.00" fill="#000000">T1</text>
</g>
<!-- T16 -->
<g id="node2" class="node">
<title>T16</title>
<ellipse fill="none" stroke="#000000" cx="1242" cy="-347.6468" rx="35.8536" ry="22.7556"/>
<text text-anchor="middle" x="1242" y="-341.6468" font-family="Helvetica,Arial,sans-serif" font-size="20.00" fill="#000000">T16</text>
</g>
<!-- T1&#45;&gt;T16 -->
<g id="edge1" class="edge">
<title>T1-&gt;T16</title>
<path fill="none" stroke="#000000" d="M1969.0892,-507.5212C1860.1557,-497.1949 1468.3574,-459.655 1443,-451.529 1404.0985,-439.0626 1399.1772,-425.2465 1363,-406.2742 1335.6249,-391.9179 1304.1945,-376.7269 1280.2289,-365.406"/>
<polygon fill="#000000" stroke="#000000" points="1281.6452,-362.2043 1271.1067,-361.1132 1278.6646,-368.5381 1281.6452,-362.2043"/>
</g>
<!-- T17 -->
<g id="node3" class="node">
<title>T17</title>
<ellipse fill="none" stroke="#000000" cx="1262" cy="-266.3919" rx="35.8536" ry="22.7556"/>
<text text-anchor="middle" x="1262" y="-260.3919" font-family="Helvetica,Arial,sans-serif" font-size="20.00" fill="#000000">T17</text>
</g>
<!-- T1&#45;&gt;T17 -->
<g id="edge2" class="edge">
<title>T1-&gt;T17</title>
<path fill="none" stroke="#000000" d="M1980.0246,-491.9096C1957.3598,-468.6265 1914.9429,-428.6918 1871,-406.2742 1677.1423,-307.3771 1413.1354,-277.579 1307.9665,-269.3143"/>
<polygon fill="#000000" stroke="#000000" points="1307.938,-265.8022 1297.7022,-268.537 1307.4094,-272.7822 1307.938,-265.8022"/>
</g>
<!-- T18 -->
<g id="node4" class="node">
<title>T18</title>
<ellipse fill="none" stroke="#000000" cx="1335" cy="-22.6274" rx="35.8536" ry="22.7556"/>
<text text-anchor="middle" x="1335" y="-16.6274" font-family="Helvetica,Arial,sans-serif" font-size="20.00" fill="#000000">T18</text>
</g>
<!-- T1&#45;&gt;T18 -->
<g id="edge3" class="edge">
<title>T1-&gt;T18</title>
<path fill="none" stroke="#000000" d="M2024.941,-508.0004C2098.8751,-500.6253 2294,-469.6083 2294,-347.6468 2294,-347.6468 2294,-347.6468 2294,-185.1371 2294,-144.3227 2339.8385,-146.2608 2134,-81.2548 1992.0107,-36.4131 1528.6178,-25.5692 1380.7716,-23.221"/>
<polygon fill="#000000" stroke="#000000" points="1380.7333,-19.7201 1370.6808,-23.0663 1380.6259,-26.7193 1380.7333,-19.7201"/>
</g>
<!-- T19 -->
<g id="node5" class="node">
<title>T19</title>
<ellipse fill="none" stroke="#000000" cx="1335" cy="-103.8823" rx="35.8536" ry="22.7556"/>
<text text-anchor="middle" x="1335" y="-97.8823" font-family="Helvetica,Arial,sans-serif" font-size="20.00" fill="#000000">T19</text>
</g>
<!-- T1&#45;&gt;T19 -->
<g id="edge4" class="edge">
<title>T1-&gt;T19</title>
<path fill="none" stroke="#000000" d="M2002.9683,-487.8626C2018.6373,-423.7017 2052.9855,-238.353 1950,-162.5097 1904.3905,-128.9208 1515.2842,-110.8449 1380.6325,-105.5514"/>
<polygon fill="#000000" stroke="#000000" points="1380.7655,-102.054 1370.6373,-105.1637 1380.4941,-109.0488 1380.7655,-102.054"/>
</g>
<!-- T20 -->
<g id="node6" class="node">
<title>T20</title>
<ellipse fill="none" stroke="#000000" cx="1189" cy="-185.1371" rx="35.8536" ry="22.7556"/>
<text text-anchor="middle" x="1189" y="-179.1371" font-family="Helvetica,Arial,sans-serif" font-size="20.00" fill="#000000">T20</text>
</g>
<!-- T1&#45;&gt;T20 -->
<g id="edge5" class="edge">
<title>T1-&gt;T20</title>
<path fill="none" stroke="#000000" d="M1985.0639,-489.622C1971.0697,-466.9373 1946.0588,-430.4287 1917,-406.2742 1794.9424,-304.8162 1750.2869,-291.7649 1599,-243.7645 1471.1918,-203.2134 1312.0308,-190.6313 1235.0109,-186.7881"/>
<polygon fill="#000000" stroke="#000000" points="1234.8538,-183.2768 1224.7,-186.3018 1234.524,-190.2691 1234.8538,-183.2768"/>
</g>
<!-- T16&#45;&gt;T17 -->
<g id="edge94" class="edge">
<title>T16-&gt;T17</title>
<path fill="none" stroke="#000000" d="M1241.4477,-325.0128C1242.8891,-316.6197 1245.1133,-306.9427 1247.6478,-297.9011"/>
<polygon fill="#000000" stroke="#000000" points="1251.0777,-298.6498 1250.616,-288.065 1244.3762,-296.6274 1251.0777,-298.6498"/>
</g>
<!-- T16&#45;&gt;T18 -->
<g id="edge95" class="edge">
<title>T16-&gt;T18</title>
<path fill="none" stroke="#000000" d="M1270.5151,-333.6208C1289.742,-323.9887 1314.0012,-309.2601 1329,-289.0193 1385.0886,-213.3282 1401.2886,-170.4607 1371,-81.2548 1367.4049,-70.6665 1361.0425,-60.493 1354.5687,-51.6789"/>
<polygon fill="#000000" stroke="#000000" points="1357.2848,-49.4693 1348.4143,-43.6757 1351.7357,-53.7365 1357.2848,-49.4693"/>
</g>
<!-- T16&#45;&gt;T19 -->
<g id="edge96" class="edge">
<title>T16-&gt;T19</title>
<path fill="none" stroke="#000000" d="M1262.3257,-328.8538C1274.6113,-318.6388 1289.2703,-304.857 1298,-289.0193 1324.5355,-240.8777 1328.232,-175.5553 1330.278,-136.7555"/>
<polygon fill="#000000" stroke="#000000" points="1333.7846,-136.7257 1330.8289,-126.5516 1326.7948,-136.3483 1333.7846,-136.7257"/>
</g>
<!-- T16&#45;&gt;T20 -->
<g id="edge97" class="edge">
<title>T16-&gt;T20</title>
<path fill="none" stroke="#000000" d="M1224.6619,-327.5707C1218.59,-316.3744 1212.5235,-302.0901 1208,-289.0193 1199.9368,-265.7206 1192.7449,-238.8315 1188.9028,-218.248"/>
<polygon fill="#000000" stroke="#000000" points="1192.3097,-217.3993 1187.2121,-208.1113 1185.405,-218.5509 1192.3097,-217.3993"/>
</g>
<!-- T17&#45;&gt;T16 -->
<g id="edge98" class="edge">
<title>T17-&gt;T16</title>
<path fill="none" stroke="#000000" d="M1262.5433,-289.0782C1261.1051,-297.439 1258.8921,-307.0683 1256.3705,-316.0725"/>
<polygon fill="#000000" stroke="#000000" points="1252.9516,-315.2873 1253.4171,-325.8719 1259.6539,-317.3073 1252.9516,-315.2873"/>
</g>
<!-- T17&#45;&gt;T18 -->
<g id="edge99" class="edge">
<title>T17-&gt;T18</title>
<path fill="none" stroke="#000000" d="M1256.2052,-244.0479C1253.3368,-208.244 1257.5132,-136.4409 1281,-81.2548 1286.2731,-68.8647 1294.7853,-56.7806 1303.6147,-46.8337"/>
<polygon fill="#000000" stroke="#000000" points="1306.3692,-49.0155 1310.7079,-39.3498 1301.2885,-44.2001 1306.3692,-49.0155"/>
</g>
<!-- T17&#45;&gt;T19 -->
<g id="edge100" class="edge">
<title>T17-&gt;T19</title>
<path fill="none" stroke="#000000" d="M1267.3054,-243.7956C1277.8122,-215.1842 1299.8181,-165.7958 1316.0861,-134.0026"/>
<polygon fill="#000000" stroke="#000000" points="1319.396,-135.2261 1320.9315,-124.7431 1313.1939,-131.9805 1319.396,-135.2261"/>
</g>
<!-- T17&#45;&gt;T20 -->
<g id="edge101" class="edge">
<title>T17-&gt;T20</title>
<path fill="none" stroke="#000000" d="M1240.0789,-248.3588C1230.066,-238.3512 1218.4041,-225.6616 1208.6792,-214.2816"/>
<polygon fill="#000000" stroke="#000000" points="1211.0913,-211.71 1201.9916,-206.2837 1205.7213,-216.2003 1211.0913,-211.71"/>
</g>
<!-- T18&#45;&gt;T16 -->
<g id="edge102" class="edge">
<title>T18-&gt;T16</title>
<path fill="none" stroke="#000000" d="M1360.1205,-39.0334C1371.5816,-49.9026 1383.5134,-65.0957 1389,-81.2548 1419.2886,-170.4607 1403.0886,-213.3282 1347,-289.0193 1331.6052,-309.7945 1306.4544,-324.7627 1284.5124,-334.3732"/>
<polygon fill="#000000" stroke="#000000" points="1282.9325,-331.2388 1275.0241,-338.2892 1285.6031,-337.7094 1282.9325,-331.2388"/>
</g>
<!-- T18&#45;&gt;T17 -->
<g id="edge103" class="edge">
<title>T18-&gt;T17</title>
<path fill="none" stroke="#000000" d="M1322.527,-44.0352C1314.4461,-54.4679 1304.7784,-67.6777 1299,-81.2548 1277.5898,-131.5616 1272.2263,-195.677 1268.5138,-233.7433"/>
<polygon fill="#000000" stroke="#000000" points="1265.0253,-233.4539 1267.4985,-243.756 1271.9896,-234.1602 1265.0253,-233.4539"/>
</g>
<!-- T18&#45;&gt;T19 -->
<g id="edge104" class="edge">
<title>T18-&gt;T19</title>
<path fill="none" stroke="#000000" d="M1341.1143,-45.14C1341.7147,-53.1404 1341.8898,-62.3193 1341.6396,-71.007"/>
<polygon fill="#000000" stroke="#000000" points="1338.1313,-71.0847 1341.1234,-81.2482 1345.1224,-71.4372 1338.1313,-71.0847"/>
</g>
<!-- T18&#45;&gt;T20 -->
<g id="edge105" class="edge">
<title>T18-&gt;T20</title>
<path fill="none" stroke="#000000" d="M1307.8917,-37.8065C1289.1486,-47.8352 1264.9042,-62.576 1248,-81.2548 1228.8133,-102.4558 1215.47,-132.345 1205.8593,-154.6232"/>
<polygon fill="#000000" stroke="#000000" points="1202.5785,-153.3923 1201.831,-163.9608 1209.0059,-156.1652 1202.5785,-153.3923"/>
</g>
<!-- T19&#45;&gt;T16 -->
<g id="edge106" class="edge">
<title>T19-&gt;T16</title>
<path fill="none" stroke="#000000" d="M1341.9977,-126.2559C1346.7342,-162.7246 1345.1087,-236.2092 1316,-289.0193 1307.4342,-304.5597 1293.1597,-318.1206 1279.3122,-328.2747"/>
<polygon fill="#000000" stroke="#000000" points="1277.0459,-325.5859 1270.8002,-334.1441 1281.0196,-331.3487 1277.0459,-325.5859"/>
</g>
<!-- T19&#45;&gt;T17 -->
<g id="edge107" class="edge">
<title>T19-&gt;T17</title>
<path fill="none" stroke="#000000" d="M1329.7685,-126.2773C1319.2543,-154.9586 1297.0644,-204.7533 1280.7417,-236.6079"/>
<polygon fill="#000000" stroke="#000000" points="1277.6346,-234.9967 1276.0963,-245.4793 1283.8359,-238.244 1277.6346,-234.9967"/>
</g>
<!-- T19&#45;&gt;T18 -->
<g id="edge108" class="edge">
<title>T19-&gt;T18</title>
<path fill="none" stroke="#000000" d="M1328.8766,-81.2482C1328.2805,-73.236 1328.1097,-64.0537 1328.3643,-55.371"/>
<polygon fill="#000000" stroke="#000000" points="1331.8721,-55.3053 1328.8857,-45.14 1324.8811,-54.9489 1331.8721,-55.3053"/>
</g>
<!-- T19&#45;&gt;T20 -->
<g id="edge109" class="edge">
<title>T19-&gt;T20</title>
<path fill="none" stroke="#000000" d="M1310.3674,-120.7029C1287.5606,-134.2301 1253.5241,-153.1977 1227.2241,-167.0503"/>
<polygon fill="#000000" stroke="#000000" points="1225.522,-163.9906 1218.2753,-171.7195 1228.7601,-170.1966 1225.522,-163.9906"/>
</g>
<!-- T20&#45;&gt;T16 -->
<g id="edge110" class="edge">
<title>T20-&gt;T16</title>
<path fill="none" stroke="#000000" d="M1200.809,-206.8908C1207.9445,-228.0956 1216.3481,-261.1299 1226,-289.0193 1228.9912,-297.6624 1232.657,-306.836 1235.9471,-315.2966"/>
<polygon fill="#000000" stroke="#000000" points="1232.7458,-316.7253 1239.5738,-324.8265 1239.2881,-314.2355 1232.7458,-316.7253"/>
</g>
<!-- T20&#45;&gt;T17 -->
<g id="edge111" class="edge">
<title>T20-&gt;T17</title>
<path fill="none" stroke="#000000" d="M1211.0663,-203.3153C1221.0044,-213.2581 1232.5448,-225.8156 1242.1979,-237.1037"/>
<polygon fill="#000000" stroke="#000000" points="1239.7409,-239.6213 1248.8434,-245.0432 1245.1088,-235.1284 1239.7409,-239.6213"/>
</g>
<!-- T20&#45;&gt;T18 -->
<g id="edge112" class="edge">
<title>T20-&gt;T18</title>
<path fill="none" stroke="#000000" d="M1188.952,-162.2854C1194.3522,-139.6424 1208.5112,-104.9996 1230,-81.2548 1247.3505,-62.0828 1272.434,-47.0595 1293.8552,-37.022"/>
<polygon fill="#000000" stroke="#000000" points="1295.3857,-40.1717 1303.0875,-32.8962 1292.5296,-33.7808 1295.3857,-40.1717"/>
</g>
<!-- T20&#45;&gt;T19 -->
<g id="edge113" class="edge">
<title>T20-&gt;T19</title>
<path fill="none" stroke="#000000" d="M1213.3268,-168.4979C1236.2063,-154.9166 1270.5742,-135.7632 1297.0257,-121.8375"/>
<polygon fill="#000000" stroke="#000000" points="1298.7713,-124.8746 1306.02,-117.1475 1295.5347,-118.6677 1298.7713,-124.8746"/>
</g>
<!-- T2 -->
<g id="node7" class="node">
<title>T2</title>
<ellipse fill="none" stroke="#000000" cx="440" cy="-428.9016" rx="27.6307" ry="22.7556"/>
<text text-anchor="middle" x="440" y="-422.9016" font-family="Helvetica,Arial,sans-serif" font-size="20.00" fill="#000000">T2</text>
</g>
<!-- T2&#45;&gt;T16 -->
<g id="edge6" class="edge">
<title>T2-&gt;T16</title>
<path fill="none" stroke="#000000" d="M466.7947,-422.6492C489.599,-417.5417 523.2877,-410.4994 553,-406.2742 793.9312,-372.0126 1085.3145,-355.2504 1196.1837,-349.7565"/>
<polygon fill="#000000" stroke="#000000" points="1196.5246,-353.2441 1206.3417,-349.2598 1196.1827,-346.2525 1196.5246,-353.2441"/>
</g>
<!-- T2&#45;&gt;T17 -->
<g id="edge7" class="edge">
<title>T2-&gt;T17</title>
<path fill="none" stroke="#000000" d="M467.1794,-423.2293C529.01,-410.253 676.5138,-378.8625 698,-370.2742 734.5045,-355.6829 736.7872,-337.6958 774,-325.0193 855.395,-297.2923 1111.0844,-276.886 1216.1908,-269.4584"/>
<polygon fill="#000000" stroke="#000000" points="1216.4466,-272.9492 1226.1779,-268.7598 1215.958,-265.9663 1216.4466,-272.9492"/>
</g>
<!-- T2&#45;&gt;T18 -->
<g id="edge8" class="edge">
<title>T2-&gt;T18</title>
<path fill="none" stroke="#000000" d="M419.271,-413.2475C352.1058,-360.7676 150.544,-188.3516 252,-81.2548 288.1783,-43.065 1086.6672,-26.8717 1288.8194,-23.3756"/>
<polygon fill="#000000" stroke="#000000" points="1289.1512,-26.8706 1299.0899,-23.2001 1289.0316,-19.8716 1289.1512,-26.8706"/>
</g>
<!-- T2&#45;&gt;T19 -->
<g id="edge9" class="edge">
<title>T2-&gt;T19</title>
<path fill="none" stroke="#000000" d="M434.2882,-406.4289C421.993,-352.1129 400.1987,-214.3678 480,-162.5097 548.054,-118.2854 1121.2228,-106.8577 1289.0228,-104.4469"/>
<polygon fill="#000000" stroke="#000000" points="1289.3005,-107.9435 1299.2506,-104.304 1289.2026,-100.9442 1289.3005,-107.9435"/>
</g>
<!-- T2&#45;&gt;T20 -->
<g id="edge10" class="edge">
<title>T2-&gt;T20</title>
<path fill="none" stroke="#000000" d="M450.9636,-407.6402C464.0038,-384.3039 487.8496,-347.2132 518,-325.0193 561.3176,-293.133 693.715,-256.3913 746,-243.7645 888.3593,-209.3848 1061.6522,-193.8291 1142.8488,-188.03"/>
<polygon fill="#000000" stroke="#000000" points="1143.485,-191.4943 1153.2174,-187.3071 1142.9981,-184.5112 1143.485,-191.4943"/>
</g>
<!-- T3 -->
<g id="node8" class="node">
<title>T3</title>
<ellipse fill="none" stroke="#000000" cx="1724" cy="-510.1564" rx="27.6307" ry="22.7556"/>
<text text-anchor="middle" x="1724" y="-504.1564" font-family="Helvetica,Arial,sans-serif" font-size="20.00" fill="#000000">T3</text>
</g>
<!-- T3&#45;&gt;T16 -->
<g id="edge12" class="edge">
<title>T3-&gt;T16</title>
<path fill="none" stroke="#000000" d="M1696.9055,-503.791C1675.7611,-498.9513 1645.6095,-492.3297 1619,-487.529 1509.8249,-467.8325 1471.3576,-500.8771 1372,-451.529 1346.3141,-438.7715 1348.0588,-424.6024 1326,-406.2742 1310.1884,-393.1366 1291.5294,-379.9099 1275.8182,-369.3532"/>
<polygon fill="#000000" stroke="#000000" points="1277.6961,-366.3988 1267.4298,-363.7805 1273.8226,-372.2294 1277.6961,-366.3988"/>
</g>
<!-- T3&#45;&gt;T17 -->
<g id="edge13" class="edge">
<title>T3-&gt;T17</title>
<path fill="none" stroke="#000000" d="M1698.9665,-499.9765C1672.2975,-488.896 1629.0446,-470.2456 1593,-451.529 1558.1107,-433.4123 1553.0052,-422.0572 1517,-406.2742 1465.6128,-383.7484 1442.9087,-401.0576 1396,-370.2742 1374.0423,-355.8646 1377.9124,-342.1445 1358,-325.0193 1340.0589,-309.5895 1317.5941,-295.6316 1298.9075,-285.2091"/>
<polygon fill="#000000" stroke="#000000" points="1300.5281,-282.1063 1290.0739,-280.3856 1297.1733,-288.25 1300.5281,-282.1063"/>
</g>
<!-- T3&#45;&gt;T18 -->
<g id="edge14" class="edge">
<title>T3-&gt;T18</title>
<path fill="none" stroke="#000000" d="M1749.9203,-501.8093C1785.2212,-490.4407 1850.3914,-469.4508 1906,-451.529 2073.4937,-397.5484 2256,-442.3693 2256,-266.3919 2256,-266.3919 2256,-266.3919 2256,-185.1371 2256,-116.9061 2446.5492,-179.2901 2021,-81.2548 1898.5181,-53.0383 1514.3161,-31.616 1381.0605,-24.8674"/>
<polygon fill="#000000" stroke="#000000" points="1380.9597,-21.358 1370.7966,-24.3515 1380.6083,-28.3491 1380.9597,-21.358"/>
</g>
<!-- T3&#45;&gt;T19 -->
<g id="edge15" class="edge">
<title>T3-&gt;T19</title>
<path fill="none" stroke="#000000" d="M1751.1916,-505.3149C1783.244,-498.3729 1836.5023,-482.8147 1871,-451.529 1967.4015,-364.1032 2016.2818,-247.8162 1918,-162.5097 1877.6561,-127.492 1510.9837,-110.4678 1380.6855,-105.4855"/>
<polygon fill="#000000" stroke="#000000" points="1380.7554,-101.9858 1370.6308,-105.1071 1380.4921,-108.9808 1380.7554,-101.9858"/>
</g>
<!-- T3&#45;&gt;T20 -->
<g id="edge16" class="edge">
<title>T3-&gt;T20</title>
<path fill="none" stroke="#000000" d="M1715.4139,-488.6128C1705.8493,-466.373 1688.8193,-431.4643 1667,-406.2742 1627.4392,-360.6017 1503.9483,-268.8984 1449,-243.7645 1378.1887,-211.3747 1288.1249,-196.2343 1234.7179,-189.6615"/>
<polygon fill="#000000" stroke="#000000" points="1234.8836,-186.1568 1224.5419,-188.4586 1234.0618,-193.1084 1234.8836,-186.1568"/>
</g>
<!-- T10 -->
<g id="node9" class="node">
<title>T10</title>
<ellipse fill="none" stroke="#000000" cx="1826" cy="-428.9016" rx="35.8536" ry="22.7556"/>
<text text-anchor="middle" x="1826" y="-422.9016" font-family="Helvetica,Arial,sans-serif" font-size="20.00" fill="#000000">T10</text>
</g>
<!-- T3&#45;&gt;T10 -->
<g id="edge11" class="edge">
<title>T3-&gt;T10</title>
<path fill="none" stroke="#000000" d="M1744.1519,-494.1031C1758.9205,-482.3382 1779.2174,-466.1694 1795.9038,-452.8767"/>
<polygon fill="#000000" stroke="#000000" points="1798.1245,-455.5825 1803.7653,-446.6141 1793.7629,-450.1074 1798.1245,-455.5825"/>
</g>
<!-- T10&#45;&gt;T16 -->
<g id="edge51" class="edge">
<title>T10-&gt;T16</title>
<path fill="none" stroke="#000000" d="M1790.9548,-423.8704C1758.7418,-419.2562 1709.6613,-412.2522 1667,-406.2742 1528.4607,-386.8609 1364.4431,-364.3764 1286.9022,-353.7766"/>
<polygon fill="#000000" stroke="#000000" points="1287.3728,-350.3084 1276.991,-352.422 1286.4249,-357.244 1287.3728,-350.3084"/>
</g>
<!-- T10&#45;&gt;T17 -->
<g id="edge52" class="edge">
<title>T10-&gt;T17</title>
<path fill="none" stroke="#000000" d="M1793.2392,-419.462C1696.5578,-391.6044 1412.4721,-309.7486 1304.3963,-278.6079"/>
<polygon fill="#000000" stroke="#000000" points="1305.0772,-275.1617 1294.499,-275.7561 1303.139,-281.8881 1305.0772,-275.1617"/>
</g>
<!-- T10&#45;&gt;T18 -->
<g id="edge53" class="edge">
<title>T10-&gt;T18</title>
<path fill="none" stroke="#000000" d="M1855.2839,-415.6664C1874.2645,-405.6973 1898.1355,-390.3161 1913,-370.2742 1947.1425,-324.2397 1970.226,-291.1603 1938,-243.7645 1871.9971,-146.6918 1506.6757,-59.711 1379.0332,-31.8847"/>
<polygon fill="#000000" stroke="#000000" points="1379.7108,-28.4504 1369.1967,-29.7551 1378.2296,-35.2919 1379.7108,-28.4504"/>
</g>
<!-- T10&#45;&gt;T19 -->
<g id="edge54" class="edge">
<title>T10-&gt;T19</title>
<path fill="none" stroke="#000000" d="M1851.8439,-413.0673C1865.9802,-402.8134 1882.17,-388.0656 1890,-370.2742 1927.1959,-285.7573 1951.7694,-231.1477 1890,-162.5097 1856.1548,-124.9009 1508.054,-109.6337 1381.0506,-105.2874"/>
<polygon fill="#000000" stroke="#000000" points="1380.9872,-101.7834 1370.8755,-104.9465 1380.7527,-108.7795 1380.9872,-101.7834"/>
</g>
<!-- T10&#45;&gt;T20 -->
<g id="edge55" class="edge">
<title>T10-&gt;T20</title>
<path fill="none" stroke="#000000" d="M1806.2315,-409.989C1782.3698,-387.8017 1740.3982,-350.781 1700,-325.0193 1629.3922,-279.9933 1609.8001,-269.1566 1530,-243.7645 1427.3065,-211.0878 1301.0787,-195.4178 1234.7353,-188.966"/>
<polygon fill="#000000" stroke="#000000" points="1234.8998,-185.466 1224.6146,-188.0085 1234.2404,-192.4349 1234.8998,-185.466"/>
</g>
<!-- T4 -->
<g id="node10" class="node">
<title>T4</title>
<ellipse fill="none" stroke="#000000" cx="798" cy="-428.9016" rx="27.6307" ry="22.7556"/>
<text text-anchor="middle" x="798" y="-422.9016" font-family="Helvetica,Arial,sans-serif" font-size="20.00" fill="#000000">T4</text>
</g>
<!-- T4&#45;&gt;T16 -->
<g id="edge17" class="edge">
<title>T4-&gt;T16</title>
<path fill="none" stroke="#000000" d="M825.4391,-423.8801C899.8977,-410.2537 1106.2674,-372.4867 1197.5673,-355.7782"/>
<polygon fill="#000000" stroke="#000000" points="1198.3899,-359.1859 1207.5964,-353.9428 1197.1297,-352.3002 1198.3899,-359.1859"/>
</g>
<!-- T4&#45;&gt;T17 -->
<g id="edge18" class="edge">
<title>T4-&gt;T17</title>
<path fill="none" stroke="#000000" d="M823.5458,-419.5667C873.9895,-401.1744 989.9987,-359.0789 1088,-325.0193 1133.2749,-309.2844 1185.3927,-291.8078 1220.6956,-280.0638"/>
<polygon fill="#000000" stroke="#000000" points="1221.8013,-283.3846 1230.1873,-276.9096 1219.5938,-276.7418 1221.8013,-283.3846"/>
</g>
<!-- T4&#45;&gt;T18 -->
<g id="edge19" class="edge">
<title>T4-&gt;T18</title>
<path fill="none" stroke="#000000" d="M797.1505,-406.2549C796.8967,-368.7412 801.3976,-292.9718 838,-243.7645 950.5517,-92.4529 1189.9047,-42.6471 1289.767,-28.0564"/>
<polygon fill="#000000" stroke="#000000" points="1290.42,-31.499 1299.8332,-26.6367 1289.4424,-24.5676 1290.42,-31.499"/>
</g>
<!-- T4&#45;&gt;T19 -->
<g id="edge20" class="edge">
<title>T4-&gt;T19</title>
<path fill="none" stroke="#000000" d="M801.065,-406.207C807.7867,-366.1147 827.8084,-283.2678 882,-243.7645 1010.3105,-150.2317 1202.4737,-118.2319 1289.3984,-108.14"/>
<polygon fill="#000000" stroke="#000000" points="1289.9164,-111.604 1299.4659,-107.0153 1289.1391,-104.6473 1289.9164,-111.604"/>
</g>
<!-- T4&#45;&gt;T20 -->
<g id="edge21" class="edge">
<title>T4-&gt;T20</title>
<path fill="none" stroke="#000000" d="M807.6292,-407.5658C826.3988,-368.5296 871.7421,-285.7706 936,-243.7645 969.8722,-221.6218 1080.637,-201.7061 1143.8062,-191.7813"/>
<polygon fill="#000000" stroke="#000000" points="1144.5462,-195.2085 1153.8921,-190.218 1143.474,-188.2911 1144.5462,-195.2085"/>
</g>
<!-- T5 -->
<g id="node11" class="node">
<title>T5</title>
<ellipse fill="none" stroke="#000000" cx="590" cy="-510.1564" rx="27.6307" ry="22.7556"/>
<text text-anchor="middle" x="590" y="-504.1564" font-family="Helvetica,Arial,sans-serif" font-size="20.00" fill="#000000">T5</text>
</g>
<!-- T5&#45;&gt;T16 -->
<g id="edge24" class="edge">
<title>T5-&gt;T16</title>
<path fill="none" stroke="#000000" d="M617.3551,-505.8885C646.8688,-501.2972 695.2517,-493.8093 737,-487.529 845.8336,-471.157 878.2968,-488.3859 982,-451.529 1019.0427,-438.3638 1022.1486,-422.4035 1058,-406.2742 1104.5911,-385.3131 1160.9103,-368.5333 1198.8683,-358.3839"/>
<polygon fill="#000000" stroke="#000000" points="1199.8064,-361.7563 1208.5844,-355.8236 1198.0226,-354.9873 1199.8064,-361.7563"/>
</g>
<!-- T5&#45;&gt;T17 -->
<g id="edge25" class="edge">
<title>T5-&gt;T17</title>
<path fill="none" stroke="#000000" d="M611.1582,-495.3322C615.0646,-492.6859 619.1317,-489.9899 623,-487.529 683.053,-449.3245 697.1682,-437.7614 761,-406.2742 799.2665,-387.3979 810.5717,-386.5852 850,-370.2742 897.7125,-350.5361 907.5967,-340.0322 957,-325.0193 1047.2242,-297.6017 1156.5134,-280.2841 1216.7143,-272.0622"/>
<polygon fill="#000000" stroke="#000000" points="1217.2115,-275.527 1226.6563,-270.7264 1216.2793,-268.5893 1217.2115,-275.527"/>
</g>
<!-- T5&#45;&gt;T18 -->
<g id="edge26" class="edge">
<title>T5-&gt;T18</title>
<path fill="none" stroke="#000000" d="M562.0011,-509.0366C459.9677,-503.3268 114,-469.0261 114,-266.3919 114,-266.3919 114,-266.3919 114,-185.1371 114,-118.2153 161.5454,-107.7473 223,-81.2548 321.9774,-38.5866 1092.3744,-25.7671 1289.2898,-23.1716"/>
<polygon fill="#000000" stroke="#000000" points="1289.3481,-26.6712 1299.3019,-23.042 1289.2574,-19.6718 1289.3481,-26.6712"/>
</g>
<!-- T5&#45;&gt;T19 -->
<g id="edge27" class="edge">
<title>T5-&gt;T19</title>
<path fill="none" stroke="#000000" d="M571.5303,-493.0826C561.2684,-482.2958 549.492,-467.4257 544,-451.529 501.355,-328.093 496.996,-246.4993 597,-162.5097 649.9762,-118.0169 1135.8508,-106.8947 1288.9935,-104.4828"/>
<polygon fill="#000000" stroke="#000000" points="1289.0681,-107.9822 1299.0136,-104.3301 1288.9613,-100.983 1289.0681,-107.9822"/>
</g>
<!-- T5&#45;&gt;T20 -->
<g id="edge28" class="edge">
<title>T5-&gt;T20</title>
<path fill="none" stroke="#000000" d="M574.1429,-491.1635C558.4058,-469.8603 538.5622,-434.5859 553,-406.2742 581.7616,-349.8744 727.8874,-266.4332 787,-243.7645 851.5197,-219.0223 1052.7903,-197.8084 1143.667,-189.2173"/>
<polygon fill="#000000" stroke="#000000" points="1144.0379,-192.698 1153.6679,-188.2808 1143.3851,-185.7285 1144.0379,-192.698"/>
</g>
<!-- T5&#45;&gt;T4 -->
<g id="edge22" class="edge">
<title>T5-&gt;T4</title>
<path fill="none" stroke="#000000" d="M616.3627,-502.2369C649.5198,-491.9619 707.9312,-472.8129 756,-451.529 759.3796,-450.0326 762.8572,-448.3703 766.2959,-446.6455"/>
<polygon fill="#000000" stroke="#000000" points="767.9587,-449.7258 775.2136,-442.0045 764.7272,-443.5163 767.9587,-449.7258"/>
</g>
<!-- T6 -->
<g id="node12" class="node">
<title>T6</title>
<ellipse fill="none" stroke="#000000" cx="590" cy="-428.9016" rx="27.6307" ry="22.7556"/>
<text text-anchor="middle" x="590" y="-422.9016" font-family="Helvetica,Arial,sans-serif" font-size="20.00" fill="#000000">T6</text>
</g>
<!-- T5&#45;&gt;T6 -->
<g id="edge23" class="edge">
<title>T5-&gt;T6</title>
<path fill="none" stroke="#000000" d="M590,-487.5224C590,-479.5769 590,-470.4808 590,-461.8623"/>
<polygon fill="#000000" stroke="#000000" points="593.5001,-461.696 590,-451.696 586.5001,-461.6961 593.5001,-461.696"/>
</g>
<!-- T6&#45;&gt;T16 -->
<g id="edge29" class="edge">
<title>T6-&gt;T16</title>
<path fill="none" stroke="#000000" d="M617.5322,-425.1699C651.3151,-420.6114 710.3491,-412.712 761,-406.2742 921.0241,-385.9348 1111.1864,-363.1723 1196.5566,-353.028"/>
<polygon fill="#000000" stroke="#000000" points="1197.1645,-356.4805 1206.682,-351.8256 1196.339,-349.5293 1197.1645,-356.4805"/>
</g>
<!-- T6&#45;&gt;T17 -->
<g id="edge30" class="edge">
<title>T6-&gt;T17</title>
<path fill="none" stroke="#000000" d="M616.3168,-420.8926C652.1321,-409.9073 718.1614,-389.3502 774,-370.2742 829.5164,-351.3082 841.2277,-339.8073 898,-325.0193 1010.6797,-295.6688 1147.0194,-278.4274 1216.4973,-270.9061"/>
<polygon fill="#000000" stroke="#000000" points="1217.0831,-274.3636 1226.6563,-269.8243 1216.3419,-267.4029 1217.0831,-274.3636"/>
</g>
<!-- T6&#45;&gt;T18 -->
<g id="edge31" class="edge">
<title>T6-&gt;T18</title>
<path fill="none" stroke="#000000" d="M580.457,-407.5478C565.5471,-370.6202 541.7843,-293.9752 576,-243.7645 683.826,-85.5326 790.6705,-133.0855 975,-81.2548 1085.6022,-50.1552 1220.2589,-33.6895 1289.3175,-26.7361"/>
<polygon fill="#000000" stroke="#000000" points="1289.8139,-30.2042 1299.4221,-25.7397 1289.1269,-23.238 1289.8139,-30.2042"/>
</g>
<!-- T6&#45;&gt;T19 -->
<g id="edge32" class="edge">
<title>T6-&gt;T19</title>
<path fill="none" stroke="#000000" d="M585.5041,-406.5542C576.5555,-354.8963 562.8946,-226.7348 632,-162.5097 680.0749,-117.8298 1140.5249,-106.8686 1289.0591,-104.4848"/>
<polygon fill="#000000" stroke="#000000" points="1289.26,-107.9822 1299.2045,-104.3276 1289.1515,-100.983 1289.26,-107.9822"/>
</g>
<!-- T6&#45;&gt;T20 -->
<g id="edge33" class="edge">
<title>T6-&gt;T20</title>
<path fill="none" stroke="#000000" d="M609.7807,-412.5426C654.9415,-376.0925 770.3751,-287.9458 882,-243.7645 970.473,-208.7467 1081.7857,-194.194 1143.137,-188.5004"/>
<polygon fill="#000000" stroke="#000000" points="1143.6186,-191.9714 1153.269,-187.5989 1142.9982,-184.999 1143.6186,-191.9714"/>
</g>
<!-- T7 -->
<g id="node13" class="node">
<title>T7</title>
<ellipse fill="none" stroke="#000000" cx="1630" cy="-428.9016" rx="27.6307" ry="22.7556"/>
<text text-anchor="middle" x="1630" y="-422.9016" font-family="Helvetica,Arial,sans-serif" font-size="20.00" fill="#000000">T7</text>
</g>
<!-- T7&#45;&gt;T16 -->
<g id="edge34" class="edge">
<title>T7-&gt;T16</title>
<path fill="none" stroke="#000000" d="M1603.0246,-423.2524C1537.0197,-409.4297 1366.8872,-373.8006 1285.9903,-356.8592"/>
<polygon fill="#000000" stroke="#000000" points="1286.6203,-353.4153 1276.1152,-354.7912 1285.1855,-360.2667 1286.6203,-353.4153"/>
</g>
<!-- T7&#45;&gt;T17 -->
<g id="edge35" class="edge">
<title>T7-&gt;T17</title>
<path fill="none" stroke="#000000" d="M1605.4258,-417.9401C1562.8203,-398.9471 1472.4659,-358.7198 1396,-325.0193 1364.0263,-310.9277 1327.7104,-295.0465 1300.9578,-283.3709"/>
<polygon fill="#000000" stroke="#000000" points="1302.1253,-280.0617 1291.5601,-279.2707 1299.3261,-286.4776 1302.1253,-280.0617"/>
</g>
<!-- T7&#45;&gt;T18 -->
<g id="edge36" class="edge">
<title>T7-&gt;T18</title>
<path fill="none" stroke="#000000" d="M1631.4287,-406.1381C1633.3494,-356.857 1631.5038,-238.6071 1577,-162.5097 1527.5214,-93.4284 1432.5106,-53.4061 1377.403,-35.0098"/>
<polygon fill="#000000" stroke="#000000" points="1378.1896,-31.5853 1367.5975,-31.8243 1376.0268,-38.2428 1378.1896,-31.5853"/>
</g>
<!-- T7&#45;&gt;T19 -->
<g id="edge37" class="edge">
<title>T7-&gt;T19</title>
<path fill="none" stroke="#000000" d="M1617.733,-408.5551C1604.3652,-386.9933 1581.8212,-352.3521 1559,-325.0193 1494.9022,-248.2501 1407.9711,-168.228 1363.6115,-128.8382"/>
<polygon fill="#000000" stroke="#000000" points="1365.9056,-126.1946 1356.0958,-122.1921 1361.2684,-131.4384 1365.9056,-126.1946"/>
</g>
<!-- T7&#45;&gt;T20 -->
<g id="edge38" class="edge">
<title>T7-&gt;T20</title>
<path fill="none" stroke="#000000" d="M1613,-410.6932C1577.0605,-373.3398 1489.1525,-287.8588 1398,-243.7645 1344.2947,-217.785 1277.0877,-201.5168 1233.6151,-192.884"/>
<polygon fill="#000000" stroke="#000000" points="1234.1192,-189.4167 1223.6365,-190.9539 1232.7899,-196.2894 1234.1192,-189.4167"/>
</g>
<!-- T8 -->
<g id="node14" class="node">
<title>T8</title>
<ellipse fill="none" stroke="#000000" cx="1216" cy="-510.1564" rx="27.6307" ry="22.7556"/>
<text text-anchor="middle" x="1216" y="-504.1564" font-family="Helvetica,Arial,sans-serif" font-size="20.00" fill="#000000">T8</text>
</g>
<!-- T8&#45;&gt;T16 -->
<g id="edge41" class="edge">
<title>T8-&gt;T16</title>
<path fill="none" stroke="#000000" d="M1219.6152,-487.5601C1224.0655,-459.7439 1231.6578,-412.2893 1236.7506,-380.4577"/>
<polygon fill="#000000" stroke="#000000" points="1240.2499,-380.7399 1238.3737,-370.3125 1233.3378,-379.6339 1240.2499,-380.7399"/>
</g>
<!-- T8&#45;&gt;T17 -->
<g id="edge42" class="edge">
<title>T8-&gt;T17</title>
<path fill="none" stroke="#000000" d="M1207.0375,-488.5166C1193.675,-452.7823 1172.5796,-379.9319 1197,-325.0193 1203.4723,-310.4654 1215.5406,-298.0014 1227.5377,-288.3555"/>
<polygon fill="#000000" stroke="#000000" points="1229.8966,-290.9598 1235.7623,-282.1368 1225.6748,-285.3762 1229.8966,-290.9598"/>
</g>
<!-- T8&#45;&gt;T18 -->
<g id="edge43" class="edge">
<title>T8-&gt;T18</title>
<path fill="none" stroke="#000000" d="M1244.025,-508.2381C1365.6168,-499.8398 1842.6589,-466.085 1871,-451.529 1944.063,-414.0037 1950.0647,-370.668 1959,-289.0193 1961.1881,-269.0254 1967.013,-262.2127 1959,-243.7645 1937.9217,-195.2363 1916.7285,-190.7698 1872,-162.5097 1710.9057,-60.7278 1478.1786,-32.7217 1380.6759,-25.248"/>
<polygon fill="#000000" stroke="#000000" points="1380.7946,-21.7475 1370.5664,-24.5103 1380.2851,-28.7289 1380.7946,-21.7475"/>
</g>
<!-- T8&#45;&gt;T19 -->
<g id="edge44" class="edge">
<title>T8-&gt;T19</title>
<path fill="none" stroke="#000000" d="M1243.8563,-508.6372C1337.8315,-503.2314 1638.8939,-483.5252 1667,-451.529 1782.7502,-319.758 1484.7139,-170.0494 1374.2614,-120.6572"/>
<polygon fill="#000000" stroke="#000000" points="1375.3506,-117.3118 1364.7898,-116.4625 1372.516,-123.7122 1375.3506,-117.3118"/>
</g>
<!-- T8&#45;&gt;T20 -->
<g id="edge45" class="edge">
<title>T8-&gt;T20</title>
<path fill="none" stroke="#000000" d="M1201.7244,-490.6253C1194.6181,-479.7083 1186.7582,-465.5161 1183,-451.529 1161.0346,-369.7794 1173.5357,-268.7927 1182.4536,-217.8367"/>
<polygon fill="#000000" stroke="#000000" points="1185.9426,-218.2125 1184.2885,-207.7476 1179.0555,-216.9599 1185.9426,-218.2125"/>
</g>
<!-- T8&#45;&gt;T4 -->
<g id="edge39" class="edge">
<title>T8-&gt;T4</title>
<path fill="none" stroke="#000000" d="M1188.8959,-504.8877C1116.4634,-490.8075 918.2804,-452.2828 835.3092,-436.1541"/>
<polygon fill="#000000" stroke="#000000" points="835.7985,-432.6838 825.3143,-434.2112 834.4627,-439.5551 835.7985,-432.6838"/>
</g>
<!-- T9 -->
<g id="node15" class="node">
<title>T9</title>
<ellipse fill="none" stroke="#000000" cx="1480" cy="-428.9016" rx="27.6307" ry="22.7556"/>
<text text-anchor="middle" x="1480" y="-422.9016" font-family="Helvetica,Arial,sans-serif" font-size="20.00" fill="#000000">T9</text>
</g>
<!-- T8&#45;&gt;T9 -->
<g id="edge40" class="edge">
<title>T8-&gt;T9</title>
<path fill="none" stroke="#000000" d="M1242.2785,-502.0683C1289.8181,-487.4364 1390.1556,-456.5542 1444.0191,-439.9759"/>
<polygon fill="#000000" stroke="#000000" points="1445.2998,-443.2438 1453.8278,-436.957 1443.2406,-436.5535 1445.2998,-443.2438"/>
</g>
<!-- T9&#45;&gt;T16 -->
<g id="edge46" class="edge">
<title>T9-&gt;T16</title>
<path fill="none" stroke="#000000" d="M1454.0768,-420.0512C1412.9368,-406.0058 1332.3385,-378.4889 1283.2142,-361.7176"/>
<polygon fill="#000000" stroke="#000000" points="1284.1271,-358.3309 1273.5326,-358.4122 1281.8654,-364.9555 1284.1271,-358.3309"/>
</g>
<!-- T9&#45;&gt;T17 -->
<g id="edge47" class="edge">
<title>T9-&gt;T17</title>
<path fill="none" stroke="#000000" d="M1456.4961,-416.1365C1450.4787,-412.8966 1444.0097,-409.438 1438,-406.2742 1407.0435,-389.977 1396.3677,-390.7479 1368,-370.2742 1359.2733,-363.9759 1316.7905,-321.6538 1288.328,-293.01"/>
<polygon fill="#000000" stroke="#000000" points="1290.5961,-290.3266 1281.0677,-285.6942 1285.6275,-295.2575 1290.5961,-290.3266"/>
</g>
<!-- T9&#45;&gt;T18 -->
<g id="edge48" class="edge">
<title>T9-&gt;T18</title>
<path fill="none" stroke="#000000" d="M1480.4186,-406.2665C1480.4808,-347.896 1474.1172,-189.2912 1408,-81.2548 1398.7249,-66.0992 1384.0606,-53.1969 1370.3007,-43.387"/>
<polygon fill="#000000" stroke="#000000" points="1372.1453,-40.4089 1361.9063,-37.6861 1368.2125,-46.1998 1372.1453,-40.4089"/>
</g>
<!-- T9&#45;&gt;T19 -->
<g id="edge49" class="edge">
<title>T9-&gt;T19</title>
<path fill="none" stroke="#000000" d="M1470.4861,-407.5762C1445.5558,-351.6945 1378.2385,-200.8018 1348.9397,-135.1283"/>
<polygon fill="#000000" stroke="#000000" points="1352.0096,-133.4188 1344.739,-125.7124 1345.6169,-136.2708 1352.0096,-133.4188"/>
</g>
<!-- T9&#45;&gt;T20 -->
<g id="edge50" class="edge">
<title>T9-&gt;T20</title>
<path fill="none" stroke="#000000" d="M1465.6694,-409.434C1438.1809,-373.131 1374.7368,-294.2182 1307,-243.7645 1283.1365,-225.9898 1253.0583,-211.1417 1229.2421,-200.8353"/>
<polygon fill="#000000" stroke="#000000" points="1230.361,-197.5084 1219.7873,-196.8382 1227.6351,-203.9559 1230.361,-197.5084"/>
</g>
<!-- T11 -->
<g id="node16" class="node">
<title>T11</title>
<ellipse fill="none" stroke="#000000" cx="384" cy="-591.4113" rx="35.8536" ry="22.7556"/>
<text text-anchor="middle" x="384" y="-585.4113" font-family="Helvetica,Arial,sans-serif" font-size="20.00" fill="#000000">T11</text>
</g>
<!-- T11&#45;&gt;T16 -->
<g id="edge60" class="edge">
<title>T11-&gt;T16</title>
<path fill="none" stroke="#000000" d="M419.6139,-588.4901C495.2341,-581.8962 677.1808,-563.9532 827,-532.7838 955.5345,-506.0427 994.2212,-511.52 1111,-451.529 1151.0106,-430.9749 1190.5849,-397.2385 1215.5894,-373.8113"/>
<polygon fill="#000000" stroke="#000000" points="1218.0271,-376.3231 1222.866,-366.8978 1213.2056,-371.2484 1218.0271,-376.3231"/>
</g>
<!-- T11&#45;&gt;T17 -->
<g id="edge61" class="edge">
<title>T11-&gt;T17</title>
<path fill="none" stroke="#000000" d="M378.9929,-568.9687C371.8801,-530.7305 363.7096,-452.6002 403,-406.2742 442.3327,-359.8983 476.37,-386.408 535,-370.2742 607.4902,-350.3263 624.1288,-339.0116 698,-325.0193 888.6142,-288.9143 1119.9817,-273.6544 1216.4015,-268.542"/>
<polygon fill="#000000" stroke="#000000" points="1216.5903,-272.0371 1226.3953,-268.0231 1216.2272,-265.0465 1216.5903,-272.0371"/>
</g>
<!-- T11&#45;&gt;T18 -->
<g id="edge62" class="edge">
<title>T11-&gt;T18</title>
<path fill="none" stroke="#000000" d="M349.9226,-584.6392C255.9434,-564.9946 0,-504.5501 0,-428.9016 0,-428.9016 0,-428.9016 0,-185.1371 0,-132.8954 10.8723,-109.2179 55,-81.2548 108.1206,-47.5931 1066.3762,-27.651 1289.0466,-23.4593"/>
<polygon fill="#000000" stroke="#000000" points="1289.1546,-26.958 1299.0874,-23.2716 1289.0237,-19.9592 1289.1546,-26.958"/>
</g>
<!-- T11&#45;&gt;T19 -->
<g id="edge63" class="edge">
<title>T11-&gt;T19</title>
<path fill="none" stroke="#000000" d="M350.6193,-583.4053C324.9667,-575.3078 291.2584,-559.9896 275,-532.7838 264.6822,-515.5187 270.4396,-507.1184 275,-487.529 293.5386,-407.8959 355.396,-217.6173 439,-162.5097 510.3089,-115.5064 1116.1344,-106.014 1289.077,-104.2551"/>
<polygon fill="#000000" stroke="#000000" points="1289.1604,-107.7546 1299.1257,-104.1567 1289.0918,-100.7549 1289.1604,-107.7546"/>
</g>
<!-- T11&#45;&gt;T20 -->
<g id="edge64" class="edge">
<title>T11-&gt;T20</title>
<path fill="none" stroke="#000000" d="M350.6193,-583.4053C324.9667,-575.3078 291.2584,-559.9896 275,-532.7838 223.3777,-446.4023 289.3822,-391.4165 365,-325.0193 431.2605,-266.8384 460.7049,-266.1302 546,-243.7645 659.2425,-214.0706 1015.7606,-193.8023 1143.1727,-187.3468"/>
<polygon fill="#000000" stroke="#000000" points="1143.5526,-190.8322 1153.3646,-186.8352 1143.2016,-183.841 1143.5526,-190.8322"/>
</g>
<!-- T11&#45;&gt;T2 -->
<g id="edge56" class="edge">
<title>T11-&gt;T2</title>
<path fill="none" stroke="#000000" d="M391.6691,-569.1557C401.3458,-541.0745 418.0513,-492.5958 429.0641,-460.6372"/>
<polygon fill="#000000" stroke="#000000" points="432.4745,-461.483 432.4235,-450.8883 425.8564,-459.2024 432.4745,-461.483"/>
</g>
<!-- T11&#45;&gt;T4 -->
<g id="edge57" class="edge">
<title>T11-&gt;T4</title>
<path fill="none" stroke="#000000" d="M418.8543,-586.478C467.0107,-578.8928 555.9925,-562.0821 627,-532.7838 680.3522,-510.7703 736.4823,-473.5721 769.3103,-450.1729"/>
<polygon fill="#000000" stroke="#000000" points="771.4642,-452.935 777.5341,-444.2512 767.3738,-447.2544 771.4642,-452.935"/>
</g>
<!-- T12 -->
<g id="node17" class="node">
<title>T12</title>
<ellipse fill="none" stroke="#000000" cx="320" cy="-510.1564" rx="35.8536" ry="22.7556"/>
<text text-anchor="middle" x="320" y="-504.1564" font-family="Helvetica,Arial,sans-serif" font-size="20.00" fill="#000000">T12</text>
</g>
<!-- T11&#45;&gt;T12 -->
<g id="edge58" class="edge">
<title>T11-&gt;T12</title>
<path fill="none" stroke="#000000" d="M367.8501,-570.9072C360.1189,-561.0916 350.7363,-549.1794 342.3347,-538.5127"/>
<polygon fill="#000000" stroke="#000000" points="345.0819,-536.344 336.1447,-530.6539 339.5828,-540.6754 345.0819,-536.344"/>
</g>
<!-- T15 -->
<g id="node18" class="node">
<title>T15</title>
<ellipse fill="none" stroke="#000000" cx="782" cy="-510.1564" rx="35.8536" ry="22.7556"/>
<text text-anchor="middle" x="782" y="-504.1564" font-family="Helvetica,Arial,sans-serif" font-size="20.00" fill="#000000">T15</text>
</g>
<!-- T11&#45;&gt;T15 -->
<g id="edge59" class="edge">
<title>T11-&gt;T15</title>
<path fill="none" stroke="#000000" d="M418.7933,-585.71C476.6052,-576.0498 595.9914,-555.3064 696,-532.7838 710.1802,-529.5904 725.5621,-525.6854 739.3439,-522.0242"/>
<polygon fill="#000000" stroke="#000000" points="740.3068,-525.3897 749.0563,-519.415 738.4906,-518.6294 740.3068,-525.3897"/>
</g>
<!-- T12&#45;&gt;T16 -->
<g id="edge66" class="edge">
<title>T12-&gt;T16</title>
<path fill="none" stroke="#000000" d="M355.5027,-506.5004C464.2467,-495.2482 788.2051,-461.3075 835,-451.529 901.9139,-437.5464 915.9421,-423.8622 982,-406.2742 1057.246,-386.2398 1145.9142,-367.2112 1197.8441,-356.5231"/>
<polygon fill="#000000" stroke="#000000" points="1198.6312,-359.9347 1207.7254,-354.4989 1197.2264,-353.0771 1198.6312,-359.9347"/>
</g>
<!-- T12&#45;&gt;T17 -->
<g id="edge67" class="edge">
<title>T12-&gt;T17</title>
<path fill="none" stroke="#000000" d="M324.9496,-487.6787C331.3343,-463.9864 344.7539,-427.2535 370,-406.2742 501.0204,-297.397 1052.5656,-272.5653 1216.1084,-267.5492"/>
<polygon fill="#000000" stroke="#000000" points="1216.4191,-271.0417 1226.311,-267.2468 1216.2116,-264.0447 1216.4191,-271.0417"/>
</g>
<!-- T12&#45;&gt;T18 -->
<g id="edge68" class="edge">
<title>T12-&gt;T18</title>
<path fill="none" stroke="#000000" d="M284.57,-506.3374C208.8307,-496.0092 38,-460.2348 38,-347.6468 38,-347.6468 38,-347.6468 38,-185.1371 38,-122.5721 76.3778,-107.8688 133,-81.2548 238.9937,-31.4349 1081.4533,-23.9106 1288.9454,-22.8103"/>
<polygon fill="#000000" stroke="#000000" points="1289.2032,-26.3091 1299.1853,-22.7585 1289.1677,-19.3092 1289.2032,-26.3091"/>
</g>
<!-- T12&#45;&gt;T19 -->
<g id="edge69" class="edge">
<title>T12-&gt;T19</title>
<path fill="none" stroke="#000000" d="M314.3455,-487.7163C299.9841,-424.7659 269.7113,-245.6905 366,-162.5097 401.3218,-131.9962 1101.3278,-110.3854 1289.027,-105.1231"/>
<polygon fill="#000000" stroke="#000000" points="1289.2166,-108.6193 1299.1153,-104.8423 1289.0218,-101.622 1289.2166,-108.6193"/>
</g>
<!-- T12&#45;&gt;T20 -->
<g id="edge70" class="edge">
<title>T12-&gt;T20</title>
<path fill="none" stroke="#000000" d="M317.6171,-487.509C316.42,-465.0248 317.8517,-430.503 334,-406.2742 373.6865,-346.7288 409.9821,-358.9222 473,-325.0193 504.8575,-307.8804 516.625,-310.1321 546,-289.0193 569.0326,-272.4651 565.3732,-255.9223 591,-243.7645 688.6466,-197.4391 1020.0026,-187.6967 1142.7577,-185.6659"/>
<polygon fill="#000000" stroke="#000000" points="1143.0042,-189.1626 1152.9485,-185.5073 1142.8952,-182.1634 1143.0042,-189.1626"/>
</g>
<!-- T12&#45;&gt;T2 -->
<g id="edge65" class="edge">
<title>T12-&gt;T2</title>
<path fill="none" stroke="#000000" d="M344.5734,-493.5172C363.4482,-480.7366 389.6102,-463.0217 409.7682,-449.3722"/>
<polygon fill="#000000" stroke="#000000" points="411.9618,-452.1138 418.2798,-443.6089 408.037,-446.3176 411.9618,-452.1138"/>
</g>
<!-- T15&#45;&gt;T16 -->
<g id="edge89" class="edge">
<title>T15-&gt;T16</title>
<path fill="none" stroke="#000000" d="M817.3906,-506.143C870.8653,-499.3073 974.8416,-482.9856 1058,-451.529 1073.4236,-445.6947 1157.9543,-396.8075 1206.9045,-368.2245"/>
<polygon fill="#000000" stroke="#000000" points="1208.7386,-371.2065 1215.6059,-363.1386 1205.2063,-365.1631 1208.7386,-371.2065"/>
</g>
<!-- T15&#45;&gt;T17 -->
<g id="edge90" class="edge">
<title>T15-&gt;T17</title>
<path fill="none" stroke="#000000" d="M809.0444,-495.2079C878.6856,-456.778 1063.1089,-355.428 1126,-325.0193 1157.8516,-309.6186 1194.7545,-293.8357 1222.0762,-282.5308"/>
<polygon fill="#000000" stroke="#000000" points="1223.7662,-285.6202 1231.6814,-278.5775 1221.1019,-279.147 1223.7662,-285.6202"/>
</g>
<!-- T15&#45;&gt;T18 -->
<g id="edge91" class="edge">
<title>T15-&gt;T18</title>
<path fill="none" stroke="#000000" d="M746.9847,-505.0433C653.6586,-491.3764 405.8132,-454.8108 403,-451.529 385.4169,-431.0168 412.0426,-337.184 419,-325.0193 506.191,-172.5706 563.918,-138.3482 730,-81.2548 833.5139,-45.6703 1166.5586,-29.2585 1289.1495,-24.3137"/>
<polygon fill="#000000" stroke="#000000" points="1289.4678,-27.804 1299.3213,-23.9104 1289.1904,-20.8095 1289.4678,-27.804"/>
</g>
<!-- T15&#45;&gt;T19 -->
<g id="edge92" class="edge">
<title>T15-&gt;T19</title>
<path fill="none" stroke="#000000" d="M755.455,-494.6807C715.8765,-469.3815 646,-415.1559 646,-347.6468 646,-347.6468 646,-347.6468 646,-266.3919 646,-128.2272 804.9228,-195.8683 939,-162.5097 1063.7068,-131.4824 1214.859,-114.6904 1289.1942,-107.7567"/>
<polygon fill="#000000" stroke="#000000" points="1289.9528,-111.202 1299.592,-106.8047 1289.3145,-104.2311 1289.9528,-111.202"/>
</g>
<!-- T15&#45;&gt;T20 -->
<g id="edge93" class="edge">
<title>T15-&gt;T20</title>
<path fill="none" stroke="#000000" d="M800.0545,-490.476C810.372,-479.1571 823.5056,-464.626 835,-451.529 915.0163,-360.3562 911.3725,-311.5081 1012,-243.7645 1052.3769,-216.5823 1106.3854,-201.1057 1144.0827,-192.9614"/>
<polygon fill="#000000" stroke="#000000" points="1145.1749,-196.3096 1154.2578,-190.8551 1143.7559,-189.4549 1145.1749,-196.3096"/>
</g>
<!-- T15&#45;&gt;T2 -->
<g id="edge88" class="edge">
<title>T15-&gt;T2</title>
<path fill="none" stroke="#000000" d="M748.5849,-502.2174C684.2891,-486.9415 543.8118,-453.566 476.8804,-437.6639"/>
<polygon fill="#000000" stroke="#000000" points="477.331,-434.1736 466.7927,-435.2672 475.7128,-440.984 477.331,-434.1736"/>
</g>
<!-- T13 -->
<g id="node19" class="node">
<title>T13</title>
<ellipse fill="none" stroke="#000000" cx="1498" cy="-591.4113" rx="35.8536" ry="22.7556"/>
<text text-anchor="middle" x="1498" y="-585.4113" font-family="Helvetica,Arial,sans-serif" font-size="20.00" fill="#000000">T13</text>
</g>
<!-- T13&#45;&gt;T1 -->
<g id="edge71" class="edge">
<title>T13-&gt;T1</title>
<path fill="none" stroke="#000000" d="M1532.6925,-585.7621C1623.1401,-571.034 1865.6208,-531.5496 1959.3208,-516.2919"/>
<polygon fill="#000000" stroke="#000000" points="1960.1666,-519.7004 1969.4741,-514.6386 1959.0415,-512.7914 1960.1666,-519.7004"/>
</g>
<!-- T13&#45;&gt;T16 -->
<g id="edge76" class="edge">
<title>T13-&gt;T16</title>
<path fill="none" stroke="#000000" d="M1468.3386,-578.7367C1423.3012,-558.1374 1337.4788,-513.3841 1286,-451.529 1268.6942,-430.7349 1257.254,-402.1381 1250.3879,-380.2119"/>
<polygon fill="#000000" stroke="#000000" points="1253.6633,-378.9463 1247.4647,-370.3539 1246.9521,-380.9364 1253.6633,-378.9463"/>
</g>
<!-- T13&#45;&gt;T17 -->
<g id="edge77" class="edge">
<title>T13-&gt;T17</title>
<path fill="none" stroke="#000000" d="M1462.0772,-590.3543C1386.4273,-587.2933 1214.7237,-575.6713 1179,-532.7838 1156.948,-506.3097 1107.1691,-469.3148 1182,-325.0193 1191.0296,-307.6077 1207.862,-294.0837 1223.7659,-284.4348"/>
<polygon fill="#000000" stroke="#000000" points="1225.504,-287.4728 1232.4504,-279.4729 1222.0313,-281.3948 1225.504,-287.4728"/>
</g>
<!-- T13&#45;&gt;T18 -->
<g id="edge78" class="edge">
<title>T13-&gt;T18</title>
<path fill="none" stroke="#000000" d="M1533.7921,-589.56C1647.3338,-583.4384 1998.3932,-562.5324 2108,-532.7838 2213.9089,-504.0389 2332,-538.642 2332,-428.9016 2332,-428.9016 2332,-428.9016 2332,-185.1371 2332,-161.1653 2350.4369,-137.2784 2210,-81.2548 2132.7356,-50.4323 1549.6788,-29.508 1380.739,-24.0455"/>
<polygon fill="#000000" stroke="#000000" points="1380.7878,-20.5454 1370.6807,-23.7228 1380.5633,-27.5418 1380.7878,-20.5454"/>
</g>
<!-- T13&#45;&gt;T19 -->
<g id="edge79" class="edge">
<title>T13-&gt;T19</title>
<path fill="none" stroke="#000000" d="M1533.6782,-589.8525C1638.1472,-584.9217 1941.8097,-567.8726 2034,-532.7838 2108.4292,-504.4552 2180,-508.5397 2180,-428.9016 2180,-428.9016 2180,-428.9016 2180,-347.6468 2180,-227.4948 2092.5966,-211.7547 1983,-162.5097 1928.3967,-137.9748 1519.9221,-113.8739 1381.052,-106.3105"/>
<polygon fill="#000000" stroke="#000000" points="1380.933,-102.799 1370.7584,-105.7533 1380.5546,-109.7888 1380.933,-102.799"/>
</g>
<!-- T13&#45;&gt;T20 -->
<g id="edge80" class="edge">
<title>T13-&gt;T20</title>
<path fill="none" stroke="#000000" d="M1462.454,-588.0093C1376.9787,-579.4854 1165.4008,-556.2127 1144,-532.7838 1062.0697,-443.0894 1135.2659,-281.9073 1171.4866,-215.2525"/>
<polygon fill="#000000" stroke="#000000" points="1174.5548,-216.9366 1176.3321,-206.4919 1168.4293,-213.5486 1174.5548,-216.9366"/>
</g>
<!-- T13&#45;&gt;T2 -->
<g id="edge72" class="edge">
<title>T13-&gt;T2</title>
<path fill="none" stroke="#000000" d="M1462.1822,-590.6025C1299.8993,-586.7484 637.8309,-568.9172 553,-532.7838 514.6732,-516.4587 481.0175,-481.3338 460.6202,-456.4572"/>
<polygon fill="#000000" stroke="#000000" points="463.2016,-454.0811 454.2236,-448.4557 457.734,-458.452 463.2016,-454.0811"/>
</g>
<!-- T13&#45;&gt;T3 -->
<g id="edge73" class="edge">
<title>T13-&gt;T3</title>
<path fill="none" stroke="#000000" d="M1529.4243,-580.1131C1571.2823,-565.0637 1645.117,-538.5176 1688.8018,-522.8114"/>
<polygon fill="#000000" stroke="#000000" points="1690.206,-526.0259 1698.4321,-519.349 1687.8376,-519.4388 1690.206,-526.0259"/>
</g>
<!-- T13&#45;&gt;T10 -->
<g id="edge74" class="edge">
<title>T13-&gt;T10</title>
<path fill="none" stroke="#000000" d="M1533.2008,-586.9805C1596.0763,-578.5179 1724.5235,-558.5782 1761,-532.7838 1786.1903,-514.9704 1803.6996,-484.0029 1814.1465,-460.5008"/>
<polygon fill="#000000" stroke="#000000" points="1817.3809,-461.8385 1818.0639,-451.2657 1810.9367,-459.1049 1817.3809,-461.8385"/>
</g>
<!-- T13&#45;&gt;T15 -->
<g id="edge75" class="edge">
<title>T13-&gt;T15</title>
<path fill="none" stroke="#000000" d="M1462.4734,-588.6655C1371.4142,-581.4473 1122.3219,-560.5639 916,-532.7838 885.9657,-528.7399 852.3356,-523.0575 826.2794,-518.3989"/>
<polygon fill="#000000" stroke="#000000" points="826.7921,-514.9349 816.3296,-516.604 825.5494,-521.8237 826.7921,-514.9349"/>
</g>
<!-- T14 -->
<g id="node20" class="node">
<title>T14</title>
<ellipse fill="none" stroke="#000000" cx="1574" cy="-510.1564" rx="35.8536" ry="22.7556"/>
<text text-anchor="middle" x="1574" y="-504.1564" font-family="Helvetica,Arial,sans-serif" font-size="20.00" fill="#000000">T14</text>
</g>
<!-- T14&#45;&gt;T16 -->
<g id="edge83" class="edge">
<title>T14-&gt;T16</title>
<path fill="none" stroke="#000000" d="M1538.1122,-508.0559C1488.8517,-503.7576 1399.007,-490.7428 1334,-451.529 1317.4553,-441.5489 1285.5238,-403.2902 1263.9834,-376.1093"/>
<polygon fill="#000000" stroke="#000000" points="1266.5947,-373.768 1257.6606,-368.0731 1261.0934,-378.0964 1266.5947,-373.768"/>
</g>
<!-- T14&#45;&gt;T17 -->
<g id="edge84" class="edge">
<title>T14-&gt;T17</title>
<path fill="none" stroke="#000000" d="M1541.6998,-499.8946C1488.9188,-481.651 1383.6963,-438.9077 1320,-370.2742 1300.2939,-349.0406 1284.772,-319.8945 1274.7641,-297.878"/>
<polygon fill="#000000" stroke="#000000" points="1277.9211,-296.3624 1270.6877,-288.6211 1271.5147,-299.1836 1277.9211,-296.3624"/>
</g>
<!-- T14&#45;&gt;T18 -->
<g id="edge85" class="edge">
<title>T14-&gt;T18</title>
<path fill="none" stroke="#000000" d="M1608.0527,-502.9715C1630.4452,-498.3373 1660.4157,-492.3061 1687,-487.529 1787.1074,-469.5403 1817.5172,-486.5735 1913,-451.529 1987.4322,-424.2105 2218,-345.6791 2218,-266.3919 2218,-266.3919 2218,-266.3919 2218,-185.1371 2218,-99.1231 1561.5589,-40.6217 1380.6685,-26.1338"/>
<polygon fill="#000000" stroke="#000000" points="1380.6793,-22.6237 1370.4334,-25.3205 1380.1247,-29.6017 1380.6793,-22.6237"/>
</g>
<!-- T14&#45;&gt;T19 -->
<g id="edge86" class="edge">
<title>T14-&gt;T19</title>
<path fill="none" stroke="#000000" d="M1608.1817,-503.4462C1636.2319,-495.9621 1674.2679,-480.8297 1693,-451.529 1723.2896,-404.1502 1713.6129,-378.0832 1695,-325.0193 1647.757,-190.3335 1464.3346,-132.6336 1379.0531,-112.7014"/>
<polygon fill="#000000" stroke="#000000" points="1379.6819,-109.2552 1369.1552,-110.4553 1378.1327,-116.0816 1379.6819,-109.2552"/>
</g>
<!-- T14&#45;&gt;T20 -->
<g id="edge87" class="edge">
<title>T14-&gt;T20</title>
<path fill="none" stroke="#000000" d="M1564.4222,-488.3006C1554.301,-466.4321 1537.0472,-432.3794 1517,-406.2742 1509.0422,-395.9116 1358.0761,-250.6947 1347,-243.7645 1311.1479,-221.3323 1265.4099,-205.5409 1232.3801,-196.0427"/>
<polygon fill="#000000" stroke="#000000" points="1233.1357,-192.6198 1222.5625,-193.2967 1231.2501,-199.3611 1233.1357,-192.6198"/>
</g>
<!-- T14&#45;&gt;T10 -->
<g id="edge82" class="edge">
<title>T14-&gt;T10</title>
<path fill="none" stroke="#000000" d="M1607.357,-502.033C1647.7956,-491.8301 1717.765,-473.0324 1776,-451.529 1779.9719,-450.0624 1784.0715,-448.4231 1788.1347,-446.7153"/>
<polygon fill="#000000" stroke="#000000" points="1789.6974,-449.8525 1797.4724,-442.6552 1786.9061,-443.433 1789.6974,-449.8525"/>
</g>
<!-- T14&#45;&gt;T9 -->
<g id="edge81" class="edge">
<title>T14-&gt;T9</title>
<path fill="none" stroke="#000000" d="M1552.6699,-491.7184C1539.1415,-480.0243 1521.52,-464.792 1507.0175,-452.2559"/>
<polygon fill="#000000" stroke="#000000" points="1509.1815,-449.5001 1499.3273,-445.6084 1504.6038,-454.7958 1509.1815,-449.5001"/>
</g>
</g>
</svg>