<?xml version="1.0" encoding="UTF-8" standalone="no"?>
<!DOCTYPE svg PUBLIC "-//W3C//DTD SVG 1.1//EN" "http://www.w3.org/Graphics/SVG/1.1/DTD/svg11.dtd">
<!-- Generated by graphviz version 2.40.1 (20161225.0304)
 -->
<!-- Title: total_m50 Pages: 1 -->
<svg width="3493pt" height="1110pt" viewBox="0.00 0.00 3493.04 1109.57" xmlns="http://www.w3.org/2000/svg" xmlns:xlink="http://www.w3.org/1999/xlink">
<g id="graph0" class="graph" transform="scale(1 1) rotate(0) translate(4 1105.5677)">
<title>total_m50</title>
<polygon fill="#ffffff" stroke="transparent" points="-4,4 -4,-1105.5677 3489.0444,-1105.5677 3489.0444,4 -4,4"/>
<!-- T1 -->
<g id="node1" class="node">
<title>T1</title>
<ellipse fill="none" stroke="#000000" cx="1918" cy="-672.6661" rx="27.6307" ry="22.7556"/>
<text text-anchor="middle" x="1918" y="-666.6661" font-family="Helvetica,Arial,sans-serif" font-size="20.00" fill="#000000">T1</text>
</g>
<!-- T2 -->
<g id="node2" class="node">
<title>T2</title>
<ellipse fill="none" stroke="#000000" cx="1326" cy="-591.4113" rx="27.6307" ry="22.7556"/>
<text text-anchor="middle" x="1326" y="-585.4113" font-family="Helvetica,Arial,sans-serif" font-size="20.00" fill="#000000">T2</text>
</g>
<!-- T1&#45;&gt;T2 -->
<g id="edge1" class="edge">
<title>T1-&gt;T2</title>
<path fill="none" stroke="#000000" d="M1890.6381,-668.2406C1864.6657,-663.3418 1825.2047,-655.4274 1791,-650.0387 1632.6543,-625.0922 1443.1559,-604.3897 1363.7296,-595.7475"/>
<polygon fill="#000000" stroke="#000000" points="1364.0298,-592.2596 1353.7098,-594.6571 1363.2724,-599.2185 1364.0298,-592.2596"/>
</g>
<!-- T5 -->
<g id="node3" class="node">
<title>T5</title>
<ellipse fill="none" stroke="#000000" cx="1935" cy="-22.6274" rx="27.6307" ry="22.7556"/>
<text text-anchor="middle" x="1935" y="-16.6274" font-family="Helvetica,Arial,sans-serif" font-size="20.00" fill="#000000">T5</text>
</g>
<!-- T1&#45;&gt;T5 -->
<g id="edge2" class="edge">
<title>T1-&gt;T5</title>
<path fill="none" stroke="#000000" d="M1945.8387,-669.8653C2130.361,-650.8927 3160.242,-530.6553 2901,-162.5097 2839.3035,-74.8953 2778.7814,-103.6955 2674,-81.2548 2537.4132,-52.0025 2104.6868,-30.6152 1973.1763,-24.446"/>
<polygon fill="#000000" stroke="#000000" points="1972.9649,-20.9324 1962.8125,-23.9619 1972.6383,-27.9248 1972.9649,-20.9324"/>
</g>
<!-- T12 -->
<g id="node4" class="node">
<title>T12</title>
<ellipse fill="none" stroke="#000000" cx="1862" cy="-103.8823" rx="35.8536" ry="22.7556"/>
<text text-anchor="middle" x="1862" y="-97.8823" font-family="Helvetica,Arial,sans-serif" font-size="20.00" fill="#000000">T12</text>
</g>
<!-- T1&#45;&gt;T12 -->
<g id="edge3" class="edge">
<title>T1-&gt;T12</title>
<path fill="none" stroke="#000000" d="M1915.4689,-650.0444C1913.084,-567.2853 1923.364,-283.7254 1916,-243.7645 1908.7029,-204.1664 1888.0543,-162.5554 1874.2213,-135.1178"/>
<polygon fill="#000000" stroke="#000000" points="1877.2691,-133.3881 1869.6457,-126.0305 1871.0169,-136.5362 1877.2691,-133.3881"/>
</g>
<!-- T16 -->
<g id="node5" class="node">
<title>T16</title>
<ellipse fill="none" stroke="#000000" cx="1586" cy="-185.1371" rx="35.8536" ry="22.7556"/>
<text text-anchor="middle" x="1586" y="-179.1371" font-family="Helvetica,Arial,sans-serif" font-size="20.00" fill="#000000">T16</text>
</g>
<!-- T1&#45;&gt;T16 -->
<g id="edge4" class="edge">
<title>T1-&gt;T16</title>
<path fill="none" stroke="#000000" d="M1892.202,-663.3703C1870.7613,-653.2751 1841.1502,-635.6611 1821,-614.0387 1703.0598,-487.4814 1619.3635,-293.7146 1593.6885,-217.5138"/>
<polygon fill="#000000" stroke="#000000" points="1597.0076,-216.4025 1590.5833,-207.9777 1590.3516,-218.57 1597.0076,-216.4025"/>
</g>
<!-- T17 -->
<g id="node6" class="node">
<title>T17</title>
<ellipse fill="none" stroke="#000000" cx="1880" cy="-266.3919" rx="35.8536" ry="22.7556"/>
<text text-anchor="middle" x="1880" y="-260.3919" font-family="Helvetica,Arial,sans-serif" font-size="20.00" fill="#000000">T17</text>
</g>
<!-- T1&#45;&gt;T17 -->
<g id="edge5" class="edge">
<title>T1-&gt;T17</title>
<path fill="none" stroke="#000000" d="M1892.0204,-664.5182C1870.894,-655.3373 1843.1846,-638.4396 1831,-614.0387 1822.0145,-596.0441 1824.4725,-587.8084 1831,-568.7838 1837.5783,-549.6112 1851.9919,-551.8036 1859,-532.7838 1888.3638,-453.0919 1881.8053,-350.8167 1879.0417,-299.2486"/>
<polygon fill="#000000" stroke="#000000" points="1882.5261,-298.8503 1878.5239,-289.0405 1875.5351,-299.205 1882.5261,-298.8503"/>
</g>
<!-- T18 -->
<g id="node7" class="node">
<title>T18</title>
<ellipse fill="none" stroke="#000000" cx="1581" cy="-347.6468" rx="35.8536" ry="22.7556"/>
<text text-anchor="middle" x="1581" y="-341.6468" font-family="Helvetica,Arial,sans-serif" font-size="20.00" fill="#000000">T18</text>
</g>
<!-- T1&#45;&gt;T18 -->
<g id="edge6" class="edge">
<title>T1-&gt;T18</title>
<path fill="none" stroke="#000000" d="M1890.7513,-666.7728C1872.2294,-661.9486 1847.667,-655.1163 1826,-650.0387 1745.2944,-631.1253 1703.5221,-670.6796 1643,-614.0387 1577.0109,-552.2814 1569.7416,-436.6922 1574.0818,-380.2867"/>
<polygon fill="#000000" stroke="#000000" points="1577.5834,-380.4368 1575.053,-370.1486 1570.6153,-379.7692 1577.5834,-380.4368"/>
</g>
<!-- T19 -->
<g id="node8" class="node">
<title>T19</title>
<ellipse fill="none" stroke="#000000" cx="2068" cy="-428.9016" rx="35.8536" ry="22.7556"/>
<text text-anchor="middle" x="2068" y="-422.9016" font-family="Helvetica,Arial,sans-serif" font-size="20.00" fill="#000000">T19</text>
</g>
<!-- T1&#45;&gt;T19 -->
<g id="edge7" class="edge">
<title>T1-&gt;T19</title>
<path fill="none" stroke="#000000" d="M1913.7381,-650.07C1915.0507,-627.3039 1923.4612,-592.2715 1943,-568.7838 1964.3685,-543.0967 1985.9805,-557.0025 2009,-532.7838 2028.6993,-512.0583 2041.9832,-482.114 2051.4411,-459.694"/>
<polygon fill="#000000" stroke="#000000" points="2054.7459,-460.8642 2055.397,-450.2894 2048.2935,-458.1501 2054.7459,-460.8642"/>
</g>
<!-- T20 -->
<g id="node9" class="node">
<title>T20</title>
<ellipse fill="none" stroke="#000000" cx="2162" cy="-510.1564" rx="35.8536" ry="22.7556"/>
<text text-anchor="middle" x="2162" y="-504.1564" font-family="Helvetica,Arial,sans-serif" font-size="20.00" fill="#000000">T20</text>
</g>
<!-- T1&#45;&gt;T20 -->
<g id="edge8" class="edge">
<title>T1-&gt;T20</title>
<path fill="none" stroke="#000000" d="M1932.6089,-653.1519C1954.6384,-631.0604 1996.8872,-594.771 2037,-568.7838 2063.5324,-551.5948 2095.7666,-535.6606 2120.9904,-524.756"/>
<polygon fill="#000000" stroke="#000000" points="2122.4366,-527.9447 2130.2879,-520.8309 2119.714,-521.4958 2122.4366,-527.9447"/>
</g>
<!-- T2&#45;&gt;T1 -->
<g id="edge9" class="edge">
<title>T2-&gt;T1</title>
<path fill="none" stroke="#000000" d="M1353.7838,-593.7849C1428.2241,-600.8489 1636.9922,-622.9399 1809,-650.0387 1833.2594,-653.8606 1860.163,-658.953 1881.2721,-663.3389"/>
<polygon fill="#000000" stroke="#000000" points="1880.6241,-666.7793 1891.1323,-665.4266 1882.0741,-659.9311 1880.6241,-666.7793"/>
</g>
<!-- T2&#45;&gt;T5 -->
<g id="edge10" class="edge">
<title>T2-&gt;T5</title>
<path fill="none" stroke="#000000" d="M1298.1293,-589.4212C1137.8435,-576.5469 349.582,-497.4266 565,-243.7645 654.239,-138.6826 1684.9125,-43.6556 1897.0232,-25.6754"/>
<polygon fill="#000000" stroke="#000000" points="1897.3861,-29.1573 1907.0573,-24.8309 1896.799,-22.182 1897.3861,-29.1573"/>
</g>
<!-- T2&#45;&gt;T12 -->
<g id="edge11" class="edge">
<title>T2-&gt;T12</title>
<path fill="none" stroke="#000000" d="M1302.4888,-579.1226C1209.9926,-526.3808 880.9034,-318.4916 945,-243.7645 1002.4294,-176.8103 1638.6338,-121.117 1816.2584,-107.2193"/>
<polygon fill="#000000" stroke="#000000" points="1816.62,-110.7018 1826.3193,-106.4387 1816.0785,-103.7228 1816.62,-110.7018"/>
</g>
<!-- T2&#45;&gt;T16 -->
<g id="edge12" class="edge">
<title>T2-&gt;T16</title>
<path fill="none" stroke="#000000" d="M1317.6767,-569.7411C1310.5586,-533.6487 1307.5801,-459.8976 1335,-406.2742 1383.5756,-311.2778 1490.785,-236.8244 1548.2369,-203.7706"/>
<polygon fill="#000000" stroke="#000000" points="1550.0203,-206.7831 1557.0137,-198.8243 1546.5835,-200.6848 1550.0203,-206.7831"/>
</g>
<!-- T2&#45;&gt;T17 -->
<g id="edge13" class="edge">
<title>T2-&gt;T17</title>
<path fill="none" stroke="#000000" d="M1320.158,-569.1975C1317.0358,-530.9558 1323.5279,-452.3621 1366,-406.2742 1420.3169,-347.3331 1450.869,-350.0878 1527,-325.0193 1633.4581,-289.9647 1765.702,-274.9577 1834.2618,-269.33"/>
<polygon fill="#000000" stroke="#000000" points="1834.6117,-272.8133 1844.3047,-268.536 1834.0599,-265.8351 1834.6117,-272.8133"/>
</g>
<!-- T2&#45;&gt;T18 -->
<g id="edge14" class="edge">
<title>T2-&gt;T18</title>
<path fill="none" stroke="#000000" d="M1328.1576,-568.8199C1338.6023,-524.7008 1371.8607,-429.3714 1397,-406.2742 1434.9563,-371.401 1494.3125,-357.2053 1535.419,-351.4705"/>
<polygon fill="#000000" stroke="#000000" points="1535.9773,-354.9277 1545.4525,-350.1874 1535.0893,-347.9843 1535.9773,-354.9277"/>
</g>
<!-- T2&#45;&gt;T19 -->
<g id="edge15" class="edge">
<title>T2-&gt;T19</title>
<path fill="none" stroke="#000000" d="M1345.0538,-574.8914C1349.5335,-572.6053 1354.3245,-570.4678 1359,-568.7838 1421.9821,-546.1001 1877.2875,-462.063 2023.2194,-436.3958"/>
<polygon fill="#000000" stroke="#000000" points="2023.9363,-439.8236 2033.1822,-434.6502 2022.7282,-432.9286 2023.9363,-439.8236"/>
</g>
<!-- T2&#45;&gt;T20 -->
<g id="edge16" class="edge">
<title>T2-&gt;T20</title>
<path fill="none" stroke="#000000" d="M1353.9924,-588.423C1476.3778,-576.024 1964.0706,-528.609 2116.3827,-514.281"/>
<polygon fill="#000000" stroke="#000000" points="2116.7128,-517.7655 2126.3421,-513.3466 2116.0588,-510.7961 2116.7128,-517.7655"/>
</g>
<!-- T5&#45;&gt;T1 -->
<g id="edge41" class="edge">
<title>T5-&gt;T1</title>
<path fill="none" stroke="#000000" d="M1963.0231,-23.6977C2082.6087,-28.6812 2549.1852,-50.6686 2692,-81.2548 2796.7814,-103.6955 2857.3035,-74.8953 2919,-162.5097 3175.9941,-527.4631 2166.1241,-648.7889 1955.6916,-669.3488"/>
<polygon fill="#000000" stroke="#000000" points="1955.3477,-665.8657 1945.7276,-670.3046 1956.0161,-672.8337 1955.3477,-665.8657"/>
</g>
<!-- T5&#45;&gt;T2 -->
<g id="edge42" class="edge">
<title>T5-&gt;T2</title>
<path fill="none" stroke="#000000" d="M1907.2344,-25.1945C1722.1334,-41.8918 673.0675,-137.7069 583,-243.7645 373.9574,-489.9194 1110.0646,-571.7108 1288.1463,-588.1013"/>
<polygon fill="#000000" stroke="#000000" points="1287.8376,-591.5876 1298.1125,-589.0037 1288.4689,-584.6161 1287.8376,-591.5876"/>
</g>
<!-- T5&#45;&gt;T12 -->
<g id="edge43" class="edge">
<title>T5-&gt;T12</title>
<path fill="none" stroke="#000000" d="M1922.4861,-43.1872C1913.7247,-53.972 1901.8857,-67.2761 1890.942,-78.6773"/>
<polygon fill="#000000" stroke="#000000" points="1888.4156,-76.2549 1883.9211,-85.8492 1893.4177,-81.1517 1888.4156,-76.2549"/>
</g>
<!-- T5&#45;&gt;T16 -->
<g id="edge44" class="edge">
<title>T5-&gt;T16</title>
<path fill="none" stroke="#000000" d="M1908.2819,-29.773C1871.9005,-38.8478 1805.8871,-56.3748 1753,-81.2548 1704.1891,-104.2173 1652.9441,-140.5003 1620.1192,-163.5438"/>
<polygon fill="#000000" stroke="#000000" points="1617.9601,-160.7829 1611.7755,-169.3853 1621.9747,-166.5172 1617.9601,-160.7829"/>
</g>
<!-- T5&#45;&gt;T17 -->
<g id="edge45" class="edge">
<title>T5-&gt;T17</title>
<path fill="none" stroke="#000000" d="M1935.8371,-45.4561C1931.4904,-80.4338 1916.436,-149.375 1903,-207.7645 1900.9199,-216.8041 1898.6018,-226.6126 1896.0863,-235.5738"/>
<polygon fill="#000000" stroke="#000000" points="1892.7061,-234.6602 1893.1645,-245.2451 1899.407,-236.6846 1892.7061,-234.6602"/>
</g>
<!-- T5&#45;&gt;T18 -->
<g id="edge46" class="edge">
<title>T5-&gt;T18</title>
<path fill="none" stroke="#000000" d="M1907.3794,-25.8248C1858.3518,-31.7216 1754.4127,-46.9851 1673,-81.2548 1612.6138,-106.6737 1581.0366,-104.8092 1550,-162.5097 1523.3616,-212.0333 1550.161,-278.0058 1568.2093,-316.353"/>
<polygon fill="#000000" stroke="#000000" points="1565.1015,-317.967 1572.5715,-325.4803 1571.4172,-314.9485 1565.1015,-317.967"/>
</g>
<!-- T5&#45;&gt;T19 -->
<g id="edge47" class="edge">
<title>T5-&gt;T19</title>
<path fill="none" stroke="#000000" d="M1963.0551,-24.1105C2076.8308,-31.0725 2500.1503,-64.4 2579,-162.5097 2712.6951,-328.8615 2262.0547,-404.284 2113.6728,-423.6728"/>
<polygon fill="#000000" stroke="#000000" points="2112.9982,-420.2305 2103.5238,-424.9724 2113.8874,-427.1738 2112.9982,-420.2305"/>
</g>
<!-- T5&#45;&gt;T20 -->
<g id="edge48" class="edge">
<title>T5-&gt;T20</title>
<path fill="none" stroke="#000000" d="M1962.8513,-24.2039C2120.8585,-33.9059 2896,-88.3085 2896,-185.1371 2896,-266.3919 2896,-266.3919 2896,-266.3919 2896,-284.6443 2360.9517,-451.4343 2204.4348,-498.0838"/>
<polygon fill="#000000" stroke="#000000" points="2203.2723,-494.7779 2194.6824,-500.98 2205.2651,-501.4883 2203.2723,-494.7779"/>
</g>
<!-- T12&#45;&gt;T1 -->
<g id="edge121" class="edge">
<title>T12-&gt;T1</title>
<path fill="none" stroke="#000000" d="M1880.5181,-123.2653C1899.2146,-149.3903 1925.5529,-197.926 1934,-243.7645 1941.0907,-282.2425 1931.8227,-546.5753 1923.2968,-640.0241"/>
<polygon fill="#000000" stroke="#000000" points="1919.8069,-639.7508 1922.3153,-650.0444 1926.7736,-640.4333 1919.8069,-639.7508"/>
</g>
<!-- T12&#45;&gt;T2 -->
<g id="edge122" class="edge">
<title>T12-&gt;T2</title>
<path fill="none" stroke="#000000" d="M1826.5627,-106.8916C1666.9196,-120.2206 1020.8919,-176.271 963,-243.7645 901.8205,-315.0908 1198.853,-507.7343 1296.138,-570.9848"/>
<polygon fill="#000000" stroke="#000000" points="1294.3577,-574.0021 1304.6483,-576.5227 1298.1756,-568.1349 1294.3577,-574.0021"/>
</g>
<!-- T12&#45;&gt;T5 -->
<g id="edge123" class="edge">
<title>T12-&gt;T5</title>
<path fill="none" stroke="#000000" d="M1875.1566,-82.5335C1884.3578,-71.2707 1896.7395,-57.4345 1907.9239,-45.8979"/>
<polygon fill="#000000" stroke="#000000" points="1910.5042,-48.2665 1915.0553,-38.699 1905.5311,-43.3401 1910.5042,-48.2665"/>
</g>
<!-- T12&#45;&gt;T16 -->
<g id="edge124" class="edge">
<title>T12-&gt;T16</title>
<path fill="none" stroke="#000000" d="M1828.693,-112.0418C1785.5578,-121.891 1708.8317,-139.9735 1645,-162.5097 1639.0449,-164.6121 1632.8218,-167.1427 1626.7123,-169.7388"/>
<polygon fill="#000000" stroke="#000000" points="1625.0535,-166.6427 1617.2603,-173.8202 1627.8285,-173.0692 1625.0535,-166.6427"/>
</g>
<!-- T12&#45;&gt;T17 -->
<g id="edge125" class="edge">
<title>T12-&gt;T17</title>
<path fill="none" stroke="#000000" d="M1869.3107,-126.2866C1874.6866,-154.0903 1880.2002,-201.7248 1881.9128,-233.63"/>
<polygon fill="#000000" stroke="#000000" points="1878.4232,-233.9523 1882.3421,-243.7956 1885.4169,-233.6568 1878.4232,-233.9523"/>
</g>
<!-- T12&#45;&gt;T18 -->
<g id="edge126" class="edge">
<title>T12-&gt;T18</title>
<path fill="none" stroke="#000000" d="M1843.4375,-123.3432C1796.0344,-167.7005 1671.1104,-276.1623 1612.2751,-324.1489"/>
<polygon fill="#000000" stroke="#000000" points="1609.9947,-321.4919 1604.4268,-330.5057 1614.4005,-326.9315 1609.9947,-321.4919"/>
</g>
<!-- T12&#45;&gt;T19 -->
<g id="edge127" class="edge">
<title>T12-&gt;T19</title>
<path fill="none" stroke="#000000" d="M1897.493,-106.886C1983.5036,-115.0144 2196.6775,-138.454 2217,-162.5097 2276.5909,-233.0473 2268.1522,-293.3971 2217,-370.2742 2194.6137,-403.9188 2148.8057,-418.293 2113.7375,-424.4108"/>
<polygon fill="#000000" stroke="#000000" points="2113.033,-420.9785 2103.6993,-425.9918 2114.1221,-427.8933 2113.033,-420.9785"/>
</g>
<!-- T12&#45;&gt;T20 -->
<g id="edge128" class="edge">
<title>T12-&gt;T20</title>
<path fill="none" stroke="#000000" d="M1897.8002,-104.5201C1984.4617,-106.8121 2201.4243,-117.1266 2254,-162.5097 2349.7223,-245.1366 2240.4542,-416.5084 2187.3577,-482.9796"/>
<polygon fill="#000000" stroke="#000000" points="2184.4892,-480.9588 2180.8736,-490.9177 2189.9104,-485.3872 2184.4892,-480.9588"/>
</g>
<!-- T16&#45;&gt;T1 -->
<g id="edge165" class="edge">
<title>T16-&gt;T1</title>
<path fill="none" stroke="#000000" d="M1597.843,-206.544C1628.6982,-273.2525 1714.8885,-480.8591 1839,-614.0387 1853.1241,-629.1948 1871.8965,-642.3814 1887.7034,-652.3897"/>
<polygon fill="#000000" stroke="#000000" points="1886.2655,-655.616 1896.6099,-657.906 1889.9513,-649.665 1886.2655,-655.616"/>
</g>
<!-- T16&#45;&gt;T2 -->
<g id="edge166" class="edge">
<title>T16-&gt;T2</title>
<path fill="none" stroke="#000000" d="M1561.9523,-201.9479C1512.8424,-234.0284 1402.4901,-309.4894 1353,-406.2742 1328.1381,-454.8951 1328.2675,-520.0635 1328.626,-558.7037"/>
<polygon fill="#000000" stroke="#000000" points="1325.1274,-558.8932 1328.7126,-568.8629 1332.1271,-558.8334 1325.1274,-558.8932"/>
</g>
<!-- T16&#45;&gt;T5 -->
<g id="edge167" class="edge">
<title>T16-&gt;T5</title>
<path fill="none" stroke="#000000" d="M1604.5363,-165.4814C1632.0208,-142.5795 1684.7978,-104.8718 1735,-81.2548 1788.8189,-55.9364 1856.2307,-38.2324 1897.5859,-29.3012"/>
<polygon fill="#000000" stroke="#000000" points="1898.4451,-32.6973 1907.5144,-27.2203 1897.0091,-25.8461 1898.4451,-32.6973"/>
</g>
<!-- T16&#45;&gt;T12 -->
<g id="edge168" class="edge">
<title>T16-&gt;T12</title>
<path fill="none" stroke="#000000" d="M1610.9497,-168.8861C1616.1858,-166.5919 1621.6991,-164.3812 1627,-162.5097 1691.4535,-139.754 1769.054,-121.539 1817.0884,-111.7563"/>
<polygon fill="#000000" stroke="#000000" points="1818.0482,-115.1337 1827.1676,-109.7405 1816.6754,-108.2696 1818.0482,-115.1337"/>
</g>
<!-- T16&#45;&gt;T17 -->
<g id="edge169" class="edge">
<title>T16-&gt;T17</title>
<path fill="none" stroke="#000000" d="M1619.3649,-193.1878C1673.3624,-207.2727 1779.3905,-236.4969 1838.2757,-253.4512"/>
<polygon fill="#000000" stroke="#000000" points="1837.4242,-256.8483 1848.003,-256.2652 1839.3695,-250.1241 1837.4242,-256.8483"/>
</g>
<!-- T16&#45;&gt;T18 -->
<g id="edge170" class="edge">
<title>T16-&gt;T18</title>
<path fill="none" stroke="#000000" d="M1590.1533,-207.8028C1591.5734,-235.6517 1590.343,-283.1096 1587.5469,-314.9152"/>
<polygon fill="#000000" stroke="#000000" points="1584.0458,-314.7535 1586.5402,-325.0505 1591.0115,-315.4454 1584.0458,-314.7535"/>
</g>
<!-- T16&#45;&gt;T19 -->
<g id="edge171" class="edge">
<title>T16-&gt;T19</title>
<path fill="none" stroke="#000000" d="M1621.5648,-187.8654C1699.3592,-194.7269 1881.1113,-214.2861 1934,-243.7645 1996.8611,-278.8011 2041.2128,-354.0355 2059.5766,-397.0333"/>
<polygon fill="#000000" stroke="#000000" points="2056.3957,-398.5034 2063.3914,-406.4602 2062.8846,-395.8775 2056.3957,-398.5034"/>
</g>
<!-- T16&#45;&gt;T20 -->
<g id="edge172" class="edge">
<title>T16-&gt;T20</title>
<path fill="none" stroke="#000000" d="M1621.5051,-187.538C1706.9807,-194.1115 1921.0068,-213.9239 1985,-243.7645 2080.6082,-288.3475 2111.7197,-311.4759 2158,-406.2742 2168.846,-428.4906 2171.8365,-456.4255 2170.9072,-477.7302"/>
<polygon fill="#000000" stroke="#000000" points="2167.4022,-477.6607 2170.1196,-487.9011 2174.3813,-478.2012 2167.4022,-477.6607"/>
</g>
<!-- T17&#45;&gt;T1 -->
<g id="edge173" class="edge">
<title>T17-&gt;T1</title>
<path fill="none" stroke="#000000" d="M1888.3049,-288.6821C1898.6406,-335.5864 1908.5324,-447.2062 1877,-532.7838 1869.9919,-551.8036 1855.5783,-549.6112 1849,-568.7838 1842.4725,-587.8084 1840.0145,-596.0441 1849,-614.0387 1857.2728,-630.6059 1872.7024,-643.7143 1886.9678,-653.2969"/>
<polygon fill="#000000" stroke="#000000" points="1885.3096,-656.3903 1895.6251,-658.8072 1889.0683,-650.485 1885.3096,-656.3903"/>
</g>
<!-- T17&#45;&gt;T2 -->
<g id="edge174" class="edge">
<title>T17-&gt;T2</title>
<path fill="none" stroke="#000000" d="M1844.4576,-269.4223C1782.269,-275.121 1650.8809,-290.1548 1545,-325.0193 1468.869,-350.0878 1438.3169,-347.3331 1384,-406.2742 1345.1154,-448.4692 1336.3892,-517.9107 1332.074,-558.6874"/>
<polygon fill="#000000" stroke="#000000" points="1328.566,-558.582 1331.0044,-568.8924 1335.5278,-559.3117 1328.566,-558.582"/>
</g>
<!-- T17&#45;&gt;T5 -->
<g id="edge175" class="edge">
<title>T17-&gt;T5</title>
<path fill="none" stroke="#000000" d="M1877.3765,-243.5819C1879.1481,-232.7408 1882.2779,-219.5942 1885,-207.7645 1897.4838,-153.5131 1911.3647,-90.1526 1921.9439,-53.3887"/>
<polygon fill="#000000" stroke="#000000" points="1925.3131,-54.3384 1924.8364,-43.7543 1918.6087,-52.3256 1925.3131,-54.3384"/>
</g>
<!-- T17&#45;&gt;T12 -->
<g id="edge176" class="edge">
<title>T17-&gt;T12</title>
<path fill="none" stroke="#000000" d="M1872.7181,-244.1364C1867.3441,-216.411 1861.8255,-168.8019 1860.0978,-136.8408"/>
<polygon fill="#000000" stroke="#000000" points="1863.5863,-136.4946 1859.6629,-126.653 1856.5927,-136.7932 1863.5863,-136.4946"/>
</g>
<!-- T17&#45;&gt;T16 -->
<g id="edge177" class="edge">
<title>T17-&gt;T16</title>
<path fill="none" stroke="#000000" d="M1846.4918,-258.3038C1792.531,-244.2258 1686.8736,-215.1043 1627.9881,-198.1537"/>
<polygon fill="#000000" stroke="#000000" points="1628.8358,-194.7555 1618.257,-195.3394 1626.8909,-201.4799 1628.8358,-194.7555"/>
</g>
<!-- T17&#45;&gt;T18 -->
<g id="edge178" class="edge">
<title>T17-&gt;T18</title>
<path fill="none" stroke="#000000" d="M1847.8809,-276.3754C1793.874,-291.8157 1685.2323,-321.3485 1624.47,-337.115"/>
<polygon fill="#000000" stroke="#000000" points="1623.2329,-333.8195 1614.425,-339.7078 1624.9824,-340.5974 1623.2329,-333.8195"/>
</g>
<!-- T17&#45;&gt;T19 -->
<g id="edge179" class="edge">
<title>T17-&gt;T19</title>
<path fill="none" stroke="#000000" d="M1903.9487,-283.3538C1939.5152,-311.572 2005.5127,-368.3792 2042.1294,-402.0732"/>
<polygon fill="#000000" stroke="#000000" points="2040.1988,-405.057 2049.9073,-409.2991 2044.9632,-399.9286 2040.1988,-405.057"/>
</g>
<!-- T17&#45;&gt;T20 -->
<g id="edge180" class="edge">
<title>T17-&gt;T20</title>
<path fill="none" stroke="#000000" d="M1912.6851,-275.9648C1964.3953,-294.1062 2064.3844,-337.9049 2122,-406.2742 2139.6381,-427.2043 2152.4487,-455.5547 2159.1506,-477.351"/>
<polygon fill="#000000" stroke="#000000" points="2155.8252,-478.457 2161.8701,-487.1581 2162.5706,-476.5865 2155.8252,-478.457"/>
</g>
<!-- T18&#45;&gt;T1 -->
<g id="edge181" class="edge">
<title>T18-&gt;T1</title>
<path fill="none" stroke="#000000" d="M1584.3608,-370.5337C1587.0674,-422.1995 1590.9327,-548.4647 1661,-614.0387 1721.5221,-670.6796 1763.2944,-631.1253 1844,-650.0387 1856.8375,-653.0472 1870.6915,-656.6716 1882.965,-660.1293"/>
<polygon fill="#000000" stroke="#000000" points="1882.268,-663.5708 1892.8462,-662.9775 1884.2068,-656.8447 1882.268,-663.5708"/>
</g>
<!-- T18&#45;&gt;T2 -->
<g id="edge182" class="edge">
<title>T18-&gt;T2</title>
<path fill="none" stroke="#000000" d="M1545.9192,-351.9565C1509.1055,-357.9913 1451.9259,-372.3477 1415,-406.2742 1391.2292,-428.1141 1360.1992,-514.536 1341.3356,-561.1794"/>
<polygon fill="#000000" stroke="#000000" points="1338.0725,-559.9118 1337.502,-570.4912 1344.5455,-562.5767 1338.0725,-559.9118"/>
</g>
<!-- T18&#45;&gt;T5 -->
<g id="edge183" class="edge">
<title>T18-&gt;T5</title>
<path fill="none" stroke="#000000" d="M1562.9797,-327.7684C1538.5819,-292.4663 1502.4811,-217.3886 1532,-162.5097 1563.0366,-104.8092 1594.6138,-106.6737 1655,-81.2548 1736.9018,-46.7792 1841.6017,-31.5389 1897.0066,-25.7196"/>
<polygon fill="#000000" stroke="#000000" points="1897.4844,-29.1893 1907.0854,-24.7092 1896.7861,-22.2242 1897.4844,-29.1893"/>
</g>
<!-- T18&#45;&gt;T12 -->
<g id="edge184" class="edge">
<title>T18-&gt;T12</title>
<path fill="none" stroke="#000000" d="M1599.6429,-328.1105C1647.0461,-283.7627 1771.6038,-175.6166 1830.499,-127.5644"/>
<polygon fill="#000000" stroke="#000000" points="1832.7926,-130.2107 1838.3587,-121.1957 1828.3857,-124.772 1832.7926,-130.2107"/>
</g>
<!-- T18&#45;&gt;T16 -->
<g id="edge185" class="edge">
<title>T18-&gt;T16</title>
<path fill="none" stroke="#000000" d="M1576.8503,-325.0505C1575.4217,-297.1559 1576.6596,-249.5122 1579.4698,-217.6794"/>
<polygon fill="#000000" stroke="#000000" points="1582.9711,-217.8396 1580.4815,-207.5414 1576.0057,-217.1444 1582.9711,-217.8396"/>
</g>
<!-- T18&#45;&gt;T17 -->
<g id="edge186" class="edge">
<title>T18-&gt;T17</title>
<path fill="none" stroke="#000000" d="M1613.049,-337.6833C1666.9915,-322.2602 1775.5783,-292.7414 1836.3931,-276.9592"/>
<polygon fill="#000000" stroke="#000000" points="1837.6406,-280.252 1846.4483,-274.3634 1835.8908,-273.4742 1837.6406,-280.252"/>
</g>
<!-- T18&#45;&gt;T19 -->
<g id="edge187" class="edge">
<title>T18-&gt;T19</title>
<path fill="none" stroke="#000000" d="M1615.7952,-352.8639C1702.5212,-366.6594 1927.6278,-404.1778 2023.6587,-420.7947"/>
<polygon fill="#000000" stroke="#000000" points="2023.1776,-424.2634 2033.6289,-422.5257 2024.3751,-417.3666 2023.1776,-424.2634"/>
</g>
<!-- T18&#45;&gt;T20 -->
<g id="edge188" class="edge">
<title>T18-&gt;T20</title>
<path fill="none" stroke="#000000" d="M1614.1658,-356.0274C1713.7276,-382.6173 2009.246,-465.2145 2119.7644,-497.2629"/>
<polygon fill="#000000" stroke="#000000" points="2118.983,-500.6806 2129.5626,-500.1134 2120.9384,-493.9592 2118.983,-500.6806"/>
</g>
<!-- T19&#45;&gt;T1 -->
<g id="edge189" class="edge">
<title>T19-&gt;T1</title>
<path fill="none" stroke="#000000" d="M2068.3869,-451.5515C2063.2533,-474.3605 2049.2008,-509.4265 2027,-532.7838 2003.9805,-557.0025 1982.3685,-543.0967 1961,-568.7838 1943.923,-589.3122 1935.3467,-618.6594 1929.591,-640.9283"/>
<polygon fill="#000000" stroke="#000000" points="1926.1245,-640.3581 1927.046,-650.9127 1932.9076,-642.0871 1926.1245,-640.3581"/>
</g>
<!-- T19&#45;&gt;T2 -->
<g id="edge190" class="edge">
<title>T19-&gt;T2</title>
<path fill="none" stroke="#000000" d="M2033.9509,-435.7201C1903.4764,-460.5525 1440.5463,-545.8969 1377,-568.7838 1371.4089,-570.7976 1365.6526,-573.4599 1360.0648,-576.2492"/>
<polygon fill="#000000" stroke="#000000" points="1358.1726,-573.2865 1350.8789,-580.971 1361.3728,-579.5121 1358.1726,-573.2865"/>
</g>
<!-- T19&#45;&gt;T5 -->
<g id="edge191" class="edge">
<title>T19-&gt;T5</title>
<path fill="none" stroke="#000000" d="M2102.9048,-424.1813C2235.9184,-405.6305 2695.8951,-330.3546 2561,-162.5097 2485.7577,-68.8884 2096.8432,-34.2575 1972.8901,-25.2353"/>
<polygon fill="#000000" stroke="#000000" points="1972.9654,-21.7318 1962.7415,-24.5108 1972.4669,-28.7141 1972.9654,-21.7318"/>
</g>
<!-- T19&#45;&gt;T12 -->
<g id="edge192" class="edge">
<title>T19-&gt;T12</title>
<path fill="none" stroke="#000000" d="M2102.9313,-423.7384C2133.9798,-417.2644 2177.3963,-402.7427 2199,-370.2742 2250.1522,-293.3971 2258.5909,-233.0473 2199,-162.5097 2180.1325,-140.1763 1995.0404,-118.374 1907.393,-108.862"/>
<polygon fill="#000000" stroke="#000000" points="1907.5226,-105.3557 1897.205,-107.7637 1906.7723,-112.3154 1907.5226,-105.3557"/>
</g>
<!-- T19&#45;&gt;T16 -->
<g id="edge193" class="edge">
<title>T19-&gt;T16</title>
<path fill="none" stroke="#000000" d="M2053.7526,-408.0261C2031.2171,-368.2193 1984.6445,-282.0246 1916,-243.7645 1867.4434,-216.7007 1710.2695,-197.9977 1631.5657,-189.8055"/>
<polygon fill="#000000" stroke="#000000" points="1631.7618,-186.3073 1621.4562,-188.7659 1631.0457,-193.2706 1631.7618,-186.3073"/>
</g>
<!-- T19&#45;&gt;T17 -->
<g id="edge194" class="edge">
<title>T19-&gt;T17</title>
<path fill="none" stroke="#000000" d="M2043.8971,-411.8174C2008.2952,-383.5582 1942.4375,-326.8683 1905.8732,-293.2226"/>
<polygon fill="#000000" stroke="#000000" points="1907.814,-290.2484 1898.1055,-286.0064 1903.0497,-295.3769 1907.814,-290.2484"/>
</g>
<!-- T19&#45;&gt;T18 -->
<g id="edge195" class="edge">
<title>T19-&gt;T18</title>
<path fill="none" stroke="#000000" d="M2033.2719,-423.6951C1946.5841,-409.9065 1721.3399,-372.3653 1625.3048,-355.7474"/>
<polygon fill="#000000" stroke="#000000" points="1625.786,-352.2786 1615.3346,-354.0163 1624.5885,-359.1754 1625.786,-352.2786"/>
</g>
<!-- T19&#45;&gt;T20 -->
<g id="edge196" class="edge">
<title>T19-&gt;T20</title>
<path fill="none" stroke="#000000" d="M2092.7382,-445.4764C2106.4345,-456.2648 2123.2873,-470.5893 2137.0096,-483.0152"/>
<polygon fill="#000000" stroke="#000000" points="2134.9505,-485.8767 2144.6798,-490.071 2139.6896,-480.7249 2134.9505,-485.8767"/>
</g>
<!-- T20&#45;&gt;T1 -->
<g id="edge197" class="edge">
<title>T20-&gt;T1</title>
<path fill="none" stroke="#000000" d="M2135.031,-525.2501C2112.8009,-536.1389 2081.1344,-551.8526 2055,-568.7838 2015.818,-594.168 1974.5979,-629.3818 1947.5177,-651.5915"/>
<polygon fill="#000000" stroke="#000000" points="1945.1361,-649.0169 1939.5854,-658.0413 1949.5523,-654.4481 1945.1361,-649.0169"/>
</g>
<!-- T20&#45;&gt;T2 -->
<g id="edge198" class="edge">
<title>T20-&gt;T2</title>
<path fill="none" stroke="#000000" d="M2126.6539,-513.8876C1990.9724,-527.5592 1504.8788,-574.8013 1364.276,-587.976"/>
<polygon fill="#000000" stroke="#000000" points="1363.6341,-584.5206 1354.0028,-588.9351 1364.2849,-591.4903 1363.6341,-584.5206"/>
</g>
<!-- T20&#45;&gt;T5 -->
<g id="edge199" class="edge">
<title>T20-&gt;T5</title>
<path fill="none" stroke="#000000" d="M2193.8375,-499.3742C2332.7897,-454.6004 2878,-284.8168 2878,-266.3919 2878,-266.3919 2878,-266.3919 2878,-185.1371 2878,-91.2226 2148.8124,-37.2189 1972.8223,-25.2012"/>
<polygon fill="#000000" stroke="#000000" points="1972.9541,-21.7022 1962.7402,-24.5173 1972.4803,-28.6862 1972.9541,-21.7022"/>
</g>
<!-- T20&#45;&gt;T12 -->
<g id="edge200" class="edge">
<title>T20-&gt;T12</title>
<path fill="none" stroke="#000000" d="M2174.5993,-488.7639C2215.5977,-427.0453 2334.642,-247.6569 2236,-162.5097 2187.2023,-120.3877 1996.7938,-108.4756 1907.9449,-105.1485"/>
<polygon fill="#000000" stroke="#000000" points="1908.0016,-101.6484 1897.884,-104.7924 1907.7538,-108.644 1908.0016,-101.6484"/>
</g>
<!-- T20&#45;&gt;T16 -->
<g id="edge201" class="edge">
<title>T20-&gt;T16</title>
<path fill="none" stroke="#000000" d="M2156.3981,-487.487C2154.5979,-465.6032 2152.5987,-432.0808 2140,-406.2742 2093.7197,-311.4759 2062.6082,-288.3475 1967,-243.7645 1907.6681,-216.0975 1719.3644,-197.051 1631.6243,-189.184"/>
<polygon fill="#000000" stroke="#000000" points="1631.7085,-185.6778 1621.4383,-188.2802 1631.0898,-192.6504 1631.7085,-185.6778"/>
</g>
<!-- T20&#45;&gt;T17 -->
<g id="edge202" class="edge">
<title>T20-&gt;T17</title>
<path fill="none" stroke="#000000" d="M2148.9143,-488.8288C2139.0833,-466.4477 2124.9454,-431.129 2104,-406.2742 2052.9783,-345.7295 1968.7269,-304.4531 1919.2705,-283.1999"/>
<polygon fill="#000000" stroke="#000000" points="1920.4365,-279.8929 1909.8633,-279.2165 1917.707,-286.3388 1920.4365,-279.8929"/>
</g>
<!-- T20&#45;&gt;T18 -->
<g id="edge203" class="edge">
<title>T20-&gt;T18</title>
<path fill="none" stroke="#000000" d="M2128.7805,-501.7614C2029.077,-475.1323 1733.2053,-392.4351 1622.9394,-360.4544"/>
<polygon fill="#000000" stroke="#000000" points="1623.7463,-357.0441 1613.1667,-357.6108 1621.7906,-363.7653 1623.7463,-357.0441"/>
</g>
<!-- T20&#45;&gt;T19 -->
<g id="edge204" class="edge">
<title>T20-&gt;T19</title>
<path fill="none" stroke="#000000" d="M2137.4291,-493.7133C2123.7369,-482.9367 2106.8526,-468.5907 2093.093,-456.1356"/>
<polygon fill="#000000" stroke="#000000" points="2095.1305,-453.2544 2085.4004,-449.0621 2090.3924,-458.4072 2095.1305,-453.2544"/>
</g>
<!-- T3 -->
<g id="node10" class="node">
<title>T3</title>
<ellipse fill="none" stroke="#000000" cx="836" cy="-1078.9403" rx="27.6307" ry="22.7556"/>
<text text-anchor="middle" x="836" y="-1072.9403" font-family="Helvetica,Arial,sans-serif" font-size="20.00" fill="#000000">T3</text>
</g>
<!-- T3&#45;&gt;T1 -->
<g id="edge17" class="edge">
<title>T3-&gt;T1</title>
<path fill="none" stroke="#000000" d="M863.9504,-1075.8511C1010.4438,-1059.2293 1689.4028,-976.7397 1859,-857.8032 1893.9088,-833.3221 1896.641,-817.0389 1910,-776.5483 1917.5288,-753.7288 1919.3981,-726.619 1919.4543,-705.8164"/>
<polygon fill="#000000" stroke="#000000" points="1922.9514,-705.5289 1919.3387,-695.5691 1915.9518,-705.6079 1922.9514,-705.5289"/>
</g>
<!-- T3&#45;&gt;T2 -->
<g id="edge18" class="edge">
<title>T3-&gt;T2</title>
<path fill="none" stroke="#000000" d="M809.1657,-1072.7792C732.6093,-1054.5763 516.3198,-998.5774 480,-939.058 448.9523,-888.1782 447.235,-799.6268 513,-731.2935 622.0003,-618.0363 1141.8086,-596.1596 1287.7924,-592.224"/>
<polygon fill="#000000" stroke="#000000" points="1288.1307,-595.7165 1298.0375,-591.9611 1287.951,-588.7188 1288.1307,-595.7165"/>
</g>
<!-- T3&#45;&gt;T5 -->
<g id="edge19" class="edge">
<title>T3-&gt;T5</title>
<path fill="none" stroke="#000000" d="M864.0657,-1078.8751C1089.0076,-1078.2523 2601.7654,-1072.1618 3055,-1020.3128 3249.9059,-998.0161 3484,-1112.6076 3484,-916.4306 3484,-916.4306 3484,-916.4306 3484,-185.1371 3484,-166.2588 3500.7101,-134.6496 3373,-81.2548 3306.5876,-53.4882 2194.2135,-28.1986 1973.0548,-23.4316"/>
<polygon fill="#000000" stroke="#000000" points="1972.9873,-19.9294 1962.9145,-23.214 1972.8371,-26.9278 1972.9873,-19.9294"/>
</g>
<!-- T3&#45;&gt;T12 -->
<g id="edge22" class="edge">
<title>T3-&gt;T12</title>
<path fill="none" stroke="#000000" d="M863.9821,-1078.7225C1144.8805,-1076.3601 3446,-1052.8442 3446,-916.4306 3446,-916.4306 3446,-916.4306 3446,-591.4113 3446,-288.3873 3210.7854,-232.6886 2916,-162.5097 2720.2194,-115.9006 2084.6088,-106.114 1907.9338,-104.2738"/>
<polygon fill="#000000" stroke="#000000" points="1907.9638,-100.774 1897.929,-104.1731 1907.8933,-107.7737 1907.9638,-100.774"/>
</g>
<!-- T3&#45;&gt;T16 -->
<g id="edge25" class="edge">
<title>T3-&gt;T16</title>
<path fill="none" stroke="#000000" d="M808.0501,-1078.1948C700.1264,-1075.0389 310.8425,-1061.0135 195,-1020.3128 116.0609,-992.578 38,-1000.1002 38,-916.4306 38,-916.4306 38,-916.4306 38,-672.6661 38,-544.9897 190,-556.578 190,-428.9016 190,-428.9016 190,-428.9016 190,-347.6468 190,-241.1214 302.7589,-270.0122 406,-243.7645 517.2517,-215.4803 1336.2272,-191.8324 1540.1273,-186.34"/>
<polygon fill="#000000" stroke="#000000" points="1540.2955,-189.8369 1550.1981,-186.0701 1540.1079,-182.8394 1540.2955,-189.8369"/>
</g>
<!-- T3&#45;&gt;T17 -->
<g id="edge26" class="edge">
<title>T3-&gt;T17</title>
<path fill="none" stroke="#000000" d="M807.9112,-1078.3982C679.2002,-1075.1729 152,-1053.5905 152,-916.4306 152,-916.4306 152,-916.4306 152,-835.1758 152,-490.1985 405.4611,-420.3673 737,-325.0193 843.5811,-294.3674 1633.5662,-272.5894 1833.9144,-267.5196"/>
<polygon fill="#000000" stroke="#000000" points="1834.1863,-271.014 1844.0951,-267.2636 1834.0102,-264.0162 1834.1863,-271.014"/>
</g>
<!-- T3&#45;&gt;T18 -->
<g id="edge27" class="edge">
<title>T3-&gt;T18</title>
<path fill="none" stroke="#000000" d="M808.0668,-1076.4125C739.962,-1069.8376 567.4035,-1050.5795 519,-1020.3128 376.0861,-930.9491 341.4586,-788.8987 437,-650.0387 561.5237,-469.0558 653.528,-458.1457 867,-406.2742 994.6549,-375.2553 1397.8134,-355.508 1534.8709,-349.5516"/>
<polygon fill="#000000" stroke="#000000" points="1535.1912,-353.0411 1545.0314,-349.1142 1534.8901,-346.0476 1535.1912,-353.0411"/>
</g>
<!-- T3&#45;&gt;T19 -->
<g id="edge28" class="edge">
<title>T3-&gt;T19</title>
<path fill="none" stroke="#000000" d="M863.9185,-1078.7246C1090.2064,-1076.895 2617.8689,-1062.9864 2704,-1020.3128 2892.5021,-926.9198 2994.3819,-717.9083 2846,-568.7838 2788.9051,-511.4032 2760.8223,-509.8013 2683,-487.529 2575.9168,-456.8825 2237.7776,-437.3735 2113.9862,-431.1025"/>
<polygon fill="#000000" stroke="#000000" points="2113.8822,-427.5929 2103.7195,-430.5879 2113.5317,-434.5842 2113.8822,-427.5929"/>
</g>
<!-- T3&#45;&gt;T20 -->
<g id="edge29" class="edge">
<title>T3-&gt;T20</title>
<path fill="none" stroke="#000000" d="M863.9521,-1078.6765C1087.2556,-1076.4914 2575.2644,-1060.4524 2660,-1020.3128 2808.8017,-949.8249 2798.1477,-755.8558 2672,-650.0387 2606.6096,-595.187 2579.4155,-594.3989 2498,-568.7838 2396.9327,-536.9859 2273.0045,-520.9972 2207.5447,-514.2522"/>
<polygon fill="#000000" stroke="#000000" points="2207.8532,-510.7656 2197.5533,-513.248 2207.1531,-517.7305 2207.8532,-510.7656"/>
</g>
<!-- T7 -->
<g id="node11" class="node">
<title>T7</title>
<ellipse fill="none" stroke="#000000" cx="716" cy="-997.6854" rx="27.6307" ry="22.7556"/>
<text text-anchor="middle" x="716" y="-991.6854" font-family="Helvetica,Arial,sans-serif" font-size="20.00" fill="#000000">T7</text>
</g>
<!-- T3&#45;&gt;T7 -->
<g id="edge20" class="edge">
<title>T3-&gt;T7</title>
<path fill="none" stroke="#000000" d="M812.477,-1066.4223C792.495,-1054.1367 764.0577,-1035.1246 743.1455,-1020.2069"/>
<polygon fill="#000000" stroke="#000000" points="745.1279,-1017.3212 734.9722,-1014.3024 741.0287,-1022.9955 745.1279,-1017.3212"/>
</g>
<!-- T11 -->
<g id="node12" class="node">
<title>T11</title>
<ellipse fill="none" stroke="#000000" cx="558" cy="-753.9209" rx="35.8536" ry="22.7556"/>
<text text-anchor="middle" x="558" y="-747.9209" font-family="Helvetica,Arial,sans-serif" font-size="20.00" fill="#000000">T11</text>
</g>
<!-- T3&#45;&gt;T11 -->
<g id="edge21" class="edge">
<title>T3-&gt;T11</title>
<path fill="none" stroke="#000000" d="M808.4146,-1075.86C772.3051,-1070.2033 709.7011,-1055.3542 670,-1020.3128 598.2658,-956.9981 566.5867,-842.6369 558.4391,-786.6246"/>
<polygon fill="#000000" stroke="#000000" points="561.8914,-786.0271 557.1526,-776.5511 554.9478,-786.914 561.8914,-786.0271"/>
</g>
<!-- T13 -->
<g id="node13" class="node">
<title>T13</title>
<ellipse fill="none" stroke="#000000" cx="836" cy="-835.1758" rx="35.8536" ry="22.7556"/>
<text text-anchor="middle" x="836" y="-829.1758" font-family="Helvetica,Arial,sans-serif" font-size="20.00" fill="#000000">T13</text>
</g>
<!-- T3&#45;&gt;T13 -->
<g id="edge23" class="edge">
<title>T3-&gt;T13</title>
<path fill="none" stroke="#000000" d="M843.6618,-1056.9202C859.7599,-1021.863 891.568,-951.4347 872,-893.8032 868.4049,-883.2149 862.0425,-873.0413 855.5687,-864.2273"/>
<polygon fill="#000000" stroke="#000000" points="858.2848,-862.0177 849.4143,-856.224 852.7357,-866.2848 858.2848,-862.0177"/>
</g>
<!-- T15 -->
<g id="node14" class="node">
<title>T15</title>
<ellipse fill="none" stroke="#000000" cx="836" cy="-916.4306" rx="35.8536" ry="22.7556"/>
<text text-anchor="middle" x="836" y="-910.4306" font-family="Helvetica,Arial,sans-serif" font-size="20.00" fill="#000000">T15</text>
</g>
<!-- T3&#45;&gt;T15 -->
<g id="edge24" class="edge">
<title>T3-&gt;T15</title>
<path fill="none" stroke="#000000" d="M831.155,-1056.344C828.8747,-1028.5277 828.6415,-981.0732 830.4556,-949.2415"/>
<polygon fill="#000000" stroke="#000000" points="833.9589,-949.3118 831.1493,-939.0963 826.9752,-948.8342 833.9589,-949.3118"/>
</g>
<!-- T7&#45;&gt;T1 -->
<g id="edge60" class="edge">
<title>T7-&gt;T1</title>
<path fill="none" stroke="#000000" d="M743.7304,-995.6195C906.1372,-983.3324 1730.0287,-918.3513 1824,-857.8032 1877.4685,-823.3521 1901.8871,-748.4373 1911.8999,-705.2061"/>
<polygon fill="#000000" stroke="#000000" points="1915.371,-705.7164 1914.091,-695.1992 1908.533,-704.2191 1915.371,-705.7164"/>
</g>
<!-- T7&#45;&gt;T2 -->
<g id="edge61" class="edge">
<title>T7-&gt;T2</title>
<path fill="none" stroke="#000000" d="M719.234,-975.1229C725.8806,-936.7036 744.5597,-858.3076 791,-812.5483 937.804,-667.8971 1192.6994,-613.0936 1288.3223,-597.0116"/>
<polygon fill="#000000" stroke="#000000" points="1289.0874,-600.433 1298.3906,-595.3635 1287.9566,-593.525 1289.0874,-600.433"/>
</g>
<!-- T7&#45;&gt;T5 -->
<g id="edge63" class="edge">
<title>T7-&gt;T5</title>
<path fill="none" stroke="#000000" d="M688.1846,-995.8714C601.9101,-989.9694 339.9115,-969.8971 261,-939.058 128.5363,-887.2904 0,-896.1409 0,-753.9209 0,-753.9209 0,-753.9209 0,-185.1371 0,-113.9212 55.5737,-106.9308 122,-81.2548 207.6529,-48.1471 1642.607,-26.6963 1896.6997,-23.1487"/>
<polygon fill="#000000" stroke="#000000" points="1896.9599,-26.6455 1906.9103,-23.0069 1896.8626,-19.6462 1896.9599,-26.6455"/>
</g>
<!-- T7&#45;&gt;T12 -->
<g id="edge65" class="edge">
<title>T7-&gt;T12</title>
<path fill="none" stroke="#000000" d="M688.056,-995.5418C612.8007,-989.4089 407.548,-970.204 348,-939.058 174.1609,-848.1331 76,-787.5932 76,-591.4113 76,-591.4113 76,-591.4113 76,-266.3919 76,-94.3049 279.0173,-189.3391 449,-162.5097 721.4806,-119.5024 1604.2796,-106.825 1816.0348,-104.3683"/>
<polygon fill="#000000" stroke="#000000" points="1816.22,-107.8665 1826.1794,-104.2525 1816.1401,-100.867 1816.22,-107.8665"/>
</g>
<!-- T7&#45;&gt;T16 -->
<g id="edge68" class="edge">
<title>T7-&gt;T16</title>
<path fill="none" stroke="#000000" d="M688.1589,-995.6108C620.3332,-990.07 448.8249,-972.9855 404,-939.058 208.9612,-791.4353 122.562,-604.4109 266,-406.2742 356.2995,-281.5398 423.7126,-285.2798 572,-243.7645 665.9054,-217.4742 1354.6225,-192.8443 1540.1015,-186.6348"/>
<polygon fill="#000000" stroke="#000000" points="1540.4486,-190.1252 1550.3264,-186.2941 1540.2154,-183.1291 1540.4486,-190.1252"/>
</g>
<!-- T7&#45;&gt;T17 -->
<g id="edge69" class="edge">
<title>T7-&gt;T17</title>
<path fill="none" stroke="#000000" d="M688.4017,-992.6532C619.9672,-980.0699 447.2851,-947.634 438,-939.058 383.7936,-888.9912 408.5151,-850.2004 404,-776.5483 391.1928,-567.6341 528.9349,-533.6773 695,-406.2742 749.6584,-364.3409 761.2619,-345.6215 827,-325.0193 923.8831,-294.6563 1643.373,-272.8964 1833.846,-267.6253"/>
<polygon fill="#000000" stroke="#000000" points="1834.1739,-271.1177 1844.0739,-267.344 1833.9814,-264.1203 1834.1739,-271.1177"/>
</g>
<!-- T7&#45;&gt;T18 -->
<g id="edge70" class="edge">
<title>T7-&gt;T18</title>
<path fill="none" stroke="#000000" d="M688.2839,-994.4383C647.4916,-988.6455 570.0662,-973.7141 514,-939.058 460.5255,-906.0039 418,-898.0415 418,-835.1758 418,-835.1758 418,-835.1758 418,-753.9209 418,-603.4617 855.3162,-450.9165 999,-406.2742 1099.0224,-375.1974 1415.7193,-356.1377 1534.9763,-349.9058"/>
<polygon fill="#000000" stroke="#000000" points="1535.4171,-353.3878 1545.2233,-349.3767 1535.0561,-346.3972 1535.4171,-353.3878"/>
</g>
<!-- T7&#45;&gt;T19 -->
<g id="edge71" class="edge">
<title>T7-&gt;T19</title>
<path fill="none" stroke="#000000" d="M688.7784,-991.4722C629.498,-976.1578 494,-930.705 494,-835.1758 494,-835.1758 494,-835.1758 494,-753.9209 494,-684.1204 360.5632,-777.3161 711,-650.0387 823.2004,-609.2879 852.6529,-603.0517 967,-568.7838 1094.399,-530.6045 1123.9996,-510.4867 1255,-487.529 1404.2228,-461.3778 1872.5427,-437.9599 2021.8075,-430.9965"/>
<polygon fill="#000000" stroke="#000000" points="2022.1675,-434.4836 2031.9945,-430.5237 2021.8429,-427.4911 2022.1675,-434.4836"/>
</g>
<!-- T7&#45;&gt;T20 -->
<g id="edge72" class="edge">
<title>T7-&gt;T20</title>
<path fill="none" stroke="#000000" d="M743.9436,-997.2455C849.0755,-995.2642 1230.6557,-985.1269 1541,-939.058 1701.9608,-915.1643 1743.5786,-909.1189 1898,-857.8032 2025.8901,-815.304 2088.9299,-813.3102 2154,-695.2935 2181.5932,-645.2482 2184.1385,-625.4844 2177,-568.7838 2175.9084,-560.1132 2173.9425,-550.8876 2171.7858,-542.3831"/>
<polygon fill="#000000" stroke="#000000" points="2175.0907,-541.1958 2169.1064,-532.4528 2168.3324,-543.0194 2175.0907,-541.1958"/>
</g>
<!-- T7&#45;&gt;T3 -->
<g id="edge62" class="edge">
<title>T7-&gt;T3</title>
<path fill="none" stroke="#000000" d="M739.2921,-1010.0615C759.2666,-1022.3307 787.8077,-1041.4075 808.795,-1056.3764"/>
<polygon fill="#000000" stroke="#000000" points="806.8416,-1059.2829 816.9974,-1062.3011 810.9403,-1053.6084 806.8416,-1059.2829"/>
</g>
<!-- T7&#45;&gt;T11 -->
<g id="edge64" class="edge">
<title>T7-&gt;T11</title>
<path fill="none" stroke="#000000" d="M700.056,-978.9624C669.3722,-937.1911 603.5216,-836.0405 573.3337,-784.7872"/>
<polygon fill="#000000" stroke="#000000" points="576.1769,-782.7135 568.1285,-775.8234 570.1235,-786.2287 576.1769,-782.7135"/>
</g>
<!-- T7&#45;&gt;T13 -->
<g id="edge66" class="edge">
<title>T7-&gt;T13</title>
<path fill="none" stroke="#000000" d="M724.4464,-976.0642C737.3617,-954.9576 761.0115,-921.994 782,-893.8032 790.0414,-883.0024 799.0521,-871.2045 807.5061,-861.0421"/>
<polygon fill="#000000" stroke="#000000" points="810.2948,-863.1664 814.1375,-853.293 804.9764,-858.6151 810.2948,-863.1664"/>
</g>
<!-- T7&#45;&gt;T15 -->
<g id="edge67" class="edge">
<title>T7-&gt;T15</title>
<path fill="none" stroke="#000000" d="M735.0026,-981.0462C752.4886,-968.2326 778.6139,-950.4592 799.984,-936.7956"/>
<polygon fill="#000000" stroke="#000000" points="801.9282,-939.7073 808.5111,-931.4057 798.188,-933.7902 801.9282,-939.7073"/>
</g>
<!-- T11&#45;&gt;T1 -->
<g id="edge108" class="edge">
<title>T11-&gt;T1</title>
<path fill="none" stroke="#000000" d="M593.6776,-751.7893C784.524,-740.387 1683.4705,-686.6783 1879.9867,-674.9372"/>
<polygon fill="#000000" stroke="#000000" points="1880.3381,-678.4226 1890.1115,-674.3323 1879.9206,-671.435 1880.3381,-678.4226"/>
</g>
<!-- T11&#45;&gt;T2 -->
<g id="edge109" class="edge">
<title>T11-&gt;T2</title>
<path fill="none" stroke="#000000" d="M591.991,-746.7284C718.0488,-720.0544 1158.2659,-626.904 1289.0739,-599.2249"/>
<polygon fill="#000000" stroke="#000000" points="1289.9493,-602.6172 1299.008,-597.1228 1288.5001,-595.7689 1289.9493,-602.6172"/>
</g>
<!-- T11&#45;&gt;T5 -->
<g id="edge111" class="edge">
<title>T11-&gt;T5</title>
<path fill="none" stroke="#000000" d="M522.8762,-749.66C457.9592,-741.2665 322.2364,-721.1417 283,-695.2935 198.8254,-639.841 152,-610.955 152,-510.1564 152,-510.1564 152,-510.1564 152,-185.1371 152,-108.3684 217.6374,-106.8886 290,-81.2548 368.1369,-53.5755 1656.3159,-27.9033 1896.5782,-23.3436"/>
<polygon fill="#000000" stroke="#000000" points="1896.9734,-26.8368 1906.9054,-23.1483 1896.841,-19.8381 1896.9734,-26.8368"/>
</g>
<!-- T11&#45;&gt;T12 -->
<g id="edge113" class="edge">
<title>T11-&gt;T12</title>
<path fill="none" stroke="#000000" d="M522.487,-750.6859C444.6685,-741.4485 266,-707.5895 266,-591.4113 266,-591.4113 266,-591.4113 266,-510.1564 266,-314.521 361.2602,-250.4826 536,-162.5097 594.3122,-133.1523 1588.7729,-109.8228 1816.015,-104.8596"/>
<polygon fill="#000000" stroke="#000000" points="1816.3278,-108.3537 1826.2494,-104.6372 1816.1757,-101.3554 1816.3278,-108.3537"/>
</g>
<!-- T11&#45;&gt;T16 -->
<g id="edge116" class="edge">
<title>T11-&gt;T16</title>
<path fill="none" stroke="#000000" d="M552.5997,-731.2438C539.9831,-672.7734 514.1088,-513.9506 576,-406.2742 627.7686,-316.2087 649.1093,-286.0437 744,-243.7645 762.3536,-235.587 1367.6614,-198.3665 1540.3988,-187.889"/>
<polygon fill="#000000" stroke="#000000" points="1540.6649,-191.3794 1550.4348,-187.2808 1540.2414,-184.3922 1540.6649,-191.3794"/>
</g>
<!-- T11&#45;&gt;T17 -->
<g id="edge117" class="edge">
<title>T11-&gt;T17</title>
<path fill="none" stroke="#000000" d="M563.3526,-731.5289C579.3893,-669.4773 633.0799,-494.1152 746,-406.2742 804.2495,-360.9616 995.1396,-336.7498 1068,-325.0193 1356.8074,-278.5214 1709.3715,-268.8876 1833.8314,-266.9029"/>
<polygon fill="#000000" stroke="#000000" points="1834.1791,-270.3982 1844.1253,-266.7482 1834.0738,-263.399 1834.1791,-270.3982"/>
</g>
<!-- T11&#45;&gt;T18 -->
<g id="edge118" class="edge">
<title>T11-&gt;T18</title>
<path fill="none" stroke="#000000" d="M579.0383,-735.3622C648.4058,-675.3886 878.4754,-486.0665 1106,-406.2742 1184.7431,-378.6591 1432.3185,-358.2875 1535.3304,-350.7921"/>
<polygon fill="#000000" stroke="#000000" points="1535.6968,-354.2749 1545.4196,-350.0656 1535.194,-347.2929 1535.6968,-354.2749"/>
</g>
<!-- T11&#45;&gt;T19 -->
<g id="edge119" class="edge">
<title>T11-&gt;T19</title>
<path fill="none" stroke="#000000" d="M588.4747,-741.8886C640.8244,-721.4634 751.4318,-679.372 847,-650.0387 1125.4946,-564.5587 1195.1382,-538.2868 1482,-487.529 1681.381,-452.2502 1922.9608,-436.4693 2022.1398,-431.1316"/>
<polygon fill="#000000" stroke="#000000" points="2022.6037,-434.6121 2032.4051,-430.5893 2022.2344,-427.6218 2022.6037,-434.6121"/>
</g>
<!-- T11&#45;&gt;T20 -->
<g id="edge120" class="edge">
<title>T11-&gt;T20</title>
<path fill="none" stroke="#000000" d="M592.8813,-748.8554C662.1251,-738.7836 821.8393,-715.4723 956,-695.2935 1409.0463,-627.1518 1957.3839,-542.0043 2116.6316,-517.2227"/>
<polygon fill="#000000" stroke="#000000" points="2117.6439,-520.6074 2126.9866,-515.611 2116.5673,-513.6906 2117.6439,-520.6074"/>
</g>
<!-- T11&#45;&gt;T3 -->
<g id="edge110" class="edge">
<title>T11-&gt;T3</title>
<path fill="none" stroke="#000000" d="M566.3994,-776.1699C580.5155,-827.059 611.4522,-952.7495 688,-1020.3128 719.7889,-1048.3707 766.2616,-1063.4827 798.7391,-1071.2956"/>
<polygon fill="#000000" stroke="#000000" points="798.2274,-1074.7688 808.7557,-1073.5829 799.7858,-1067.9444 798.2274,-1074.7688"/>
</g>
<!-- T11&#45;&gt;T7 -->
<g id="edge112" class="edge">
<title>T11-&gt;T7</title>
<path fill="none" stroke="#000000" d="M574.8475,-773.8773C606.0755,-816.6106 671.493,-917.1725 701.1611,-967.6602"/>
<polygon fill="#000000" stroke="#000000" points="698.2281,-969.5797 706.2684,-976.4794 704.2857,-966.0717 698.2281,-969.5797"/>
</g>
<!-- T11&#45;&gt;T13 -->
<g id="edge114" class="edge">
<title>T11-&gt;T13</title>
<path fill="none" stroke="#000000" d="M588.9904,-765.1324C598.0325,-769.0752 607.8323,-773.3226 617,-776.5483 676.7325,-797.5656 747.6739,-814.6169 792.3838,-824.8047"/>
<polygon fill="#000000" stroke="#000000" points="791.8104,-828.2634 802.3366,-827.0591 793.3569,-821.4364 791.8104,-828.2634"/>
</g>
<!-- T11&#45;&gt;T15 -->
<g id="edge115" class="edge">
<title>T11-&gt;T15</title>
<path fill="none" stroke="#000000" d="M586.1412,-768.0274C637.9501,-796.3465 747.6295,-860.3057 802.8983,-894.2692"/>
<polygon fill="#000000" stroke="#000000" points="801.2573,-897.3696 811.6035,-899.6513 804.9384,-891.4156 801.2573,-897.3696"/>
</g>
<!-- T13&#45;&gt;T1 -->
<g id="edge129" class="edge">
<title>T13-&gt;T1</title>
<path fill="none" stroke="#000000" d="M871.7119,-833.8546C1007.3757,-828.6378 1490.681,-808.1958 1641,-776.5483 1699.6355,-764.2035 1711.3518,-750.8255 1768,-731.2935 1815.833,-714.8009 1829.5558,-715.3669 1876,-695.2935 1879.3928,-693.8271 1882.8789,-692.1844 1886.3228,-690.4714"/>
<polygon fill="#000000" stroke="#000000" points="1887.9796,-693.555 1895.2471,-685.8456 1884.7582,-687.3402 1887.9796,-693.555"/>
</g>
<!-- T13&#45;&gt;T2 -->
<g id="edge130" class="edge">
<title>T13-&gt;T2</title>
<path fill="none" stroke="#000000" d="M868.6784,-825.7865C951.5486,-801.63 1167.7371,-736.352 1230,-695.2935 1260.8568,-674.9454 1288.615,-642.6139 1306.2514,-619.4244"/>
<polygon fill="#000000" stroke="#000000" points="1309.1112,-621.4442 1312.278,-611.3337 1303.4974,-617.2626 1309.1112,-621.4442"/>
</g>
<!-- T13&#45;&gt;T5 -->
<g id="edge132" class="edge">
<title>T13-&gt;T5</title>
<path fill="none" stroke="#000000" d="M804.0442,-824.6586C773.8362,-814.184 727.6575,-796.7779 690,-776.5483 644.0935,-751.8875 304,-562.2675 304,-510.1564 304,-510.1564 304,-510.1564 304,-185.1371 304,-102.3772 1651.2258,-35.8153 1896.8194,-24.369"/>
<polygon fill="#000000" stroke="#000000" points="1897.207,-27.8548 1907.0341,-23.8951 1896.8826,-20.8624 1897.207,-27.8548"/>
</g>
<!-- T13&#45;&gt;T12 -->
<g id="edge135" class="edge">
<title>T13-&gt;T12</title>
<path fill="none" stroke="#000000" d="M810.5356,-818.9732C749.4582,-778.681 594.0754,-667.4333 518,-532.7838 436.1282,-387.8751 435.6463,-255.0287 574,-162.5097 587.1864,-153.6917 1587.7235,-114.4906 1815.9916,-105.6552"/>
<polygon fill="#000000" stroke="#000000" points="1816.4135,-109.1416 1826.2707,-105.2576 1816.1429,-102.1468 1816.4135,-109.1416"/>
</g>
<!-- T13&#45;&gt;T16 -->
<g id="edge137" class="edge">
<title>T13-&gt;T16</title>
<path fill="none" stroke="#000000" d="M825.9935,-813.3523C788.1261,-727.1484 663.4741,-407.0976 820,-243.7645 832.5432,-230.6758 1376.575,-197.5154 1540.0314,-187.8314"/>
<polygon fill="#000000" stroke="#000000" points="1540.462,-191.3121 1550.2379,-187.2279 1540.0488,-184.3243 1540.462,-191.3121"/>
</g>
<!-- T13&#45;&gt;T17 -->
<g id="edge138" class="edge">
<title>T13-&gt;T17</title>
<path fill="none" stroke="#000000" d="M830.4991,-812.6867C814.2036,-739.9436 774.6587,-509.7612 898,-406.2742 951.2402,-361.604 1131.5566,-337.0796 1200,-325.0193 1436.2723,-283.3862 1724.1607,-270.9356 1834.2282,-267.5491"/>
<polygon fill="#000000" stroke="#000000" points="1834.4256,-271.0448 1844.3171,-267.249 1834.2174,-264.0479 1834.4256,-271.0448"/>
</g>
<!-- T13&#45;&gt;T18 -->
<g id="edge139" class="edge">
<title>T13-&gt;T18</title>
<path fill="none" stroke="#000000" d="M841.6674,-812.3898C857.8888,-751.567 910.0227,-583.4982 1012,-487.529 1045.144,-456.3377 1156.2636,-418.8659 1200,-406.2742 1318.1509,-372.2585 1462.9387,-356.8714 1535.2843,-350.8939"/>
<polygon fill="#000000" stroke="#000000" points="1535.7334,-354.3692 1545.4208,-350.0791 1535.1725,-347.3917 1535.7334,-354.3692"/>
</g>
<!-- T13&#45;&gt;T19 -->
<g id="edge140" class="edge">
<title>T13-&gt;T19</title>
<path fill="none" stroke="#000000" d="M860.5485,-818.2439C927.0344,-772.9492 1117.1576,-647.1301 1289,-568.7838 1314.8084,-557.0173 1503.2971,-493.6176 1531,-487.529 1709.8212,-448.2276 1928.2022,-434.7734 2021.8107,-430.6003"/>
<polygon fill="#000000" stroke="#000000" points="2022.2283,-434.0857 2032.0682,-430.1582 2021.9268,-427.0922 2022.2283,-434.0857"/>
</g>
<!-- T13&#45;&gt;T20 -->
<g id="edge141" class="edge">
<title>T13-&gt;T20</title>
<path fill="none" stroke="#000000" d="M871.6273,-833.8439C1015.2271,-828.316 1551.8205,-806.0809 1719,-776.5483 1846.1826,-754.0813 1887.3207,-761.8537 1998,-695.2935 2063.6503,-655.8129 2117.4481,-581.4429 2144.0283,-539.9883"/>
<polygon fill="#000000" stroke="#000000" points="2147.0574,-541.7465 2149.4336,-531.4215 2141.1373,-538.0111 2147.0574,-541.7465"/>
</g>
<!-- T13&#45;&gt;T3 -->
<g id="edge131" class="edge">
<title>T13-&gt;T3</title>
<path fill="none" stroke="#000000" d="M861.1205,-851.5817C872.5816,-862.4509 884.5134,-877.644 890,-893.8032 908.6765,-948.8091 880.5515,-1015.4723 858.1425,-1051.913"/>
<polygon fill="#000000" stroke="#000000" points="855.0819,-1050.2008 852.6004,-1060.501 860.9635,-1053.9965 855.0819,-1050.2008"/>
</g>
<!-- T13&#45;&gt;T7 -->
<g id="edge133" class="edge">
<title>T13-&gt;T7</title>
<path fill="none" stroke="#000000" d="M826.8695,-857.3307C819.3089,-868.2539 809.0417,-881.6588 800,-893.8032 780.0638,-920.5805 757.7265,-951.6641 740.8417,-972.8021"/>
<polygon fill="#000000" stroke="#000000" points="738.0384,-970.7014 734.4242,-980.6608 743.4603,-975.129 738.0384,-970.7014"/>
</g>
<!-- T13&#45;&gt;T11 -->
<g id="edge134" class="edge">
<title>T13-&gt;T11</title>
<path fill="none" stroke="#000000" d="M801.2967,-829.4257C754.3342,-820.3484 668.9756,-801.1698 599,-776.5483 596.7628,-775.7612 594.4881,-774.9132 592.2124,-774.0236"/>
<polygon fill="#000000" stroke="#000000" points="593.5242,-770.7787 582.9462,-770.1819 590.8433,-777.245 593.5242,-770.7787"/>
</g>
<!-- T13&#45;&gt;T15 -->
<g id="edge136" class="edge">
<title>T13-&gt;T15</title>
<path fill="none" stroke="#000000" d="M842.1143,-857.6884C842.7147,-865.6888 842.8898,-874.8676 842.6396,-883.5553"/>
<polygon fill="#000000" stroke="#000000" points="839.1313,-883.633 842.1234,-893.7966 846.1224,-883.9855 839.1313,-883.633"/>
</g>
<!-- T15&#45;&gt;T1 -->
<g id="edge152" class="edge">
<title>T15-&gt;T1</title>
<path fill="none" stroke="#000000" d="M863.359,-901.7737C870.5345,-898.5701 878.3969,-895.602 886,-893.8032 984.1476,-870.5822 1705.4984,-907.9593 1793,-857.8032 1821.9615,-841.2024 1854.968,-758.7186 1874,-731.2935 1881.1829,-720.9429 1889.3906,-709.8301 1896.7562,-700.0924"/>
<polygon fill="#000000" stroke="#000000" points="1899.6889,-702.0184 1902.9653,-691.9429 1894.1208,-697.7761 1899.6889,-702.0184"/>
</g>
<!-- T15&#45;&gt;T2 -->
<g id="edge153" class="edge">
<title>T15-&gt;T2</title>
<path fill="none" stroke="#000000" d="M864.1687,-902.5261C871.1927,-899.3824 878.7822,-896.2537 886,-893.8032 952.5581,-871.2055 976.6876,-888.3349 1040,-857.8032 1121.6555,-818.4256 1123.9217,-780.5916 1200,-731.2935 1229.0281,-712.4836 1244.2865,-719.4945 1269,-695.2935 1289.8694,-674.8569 1305.1235,-645.1333 1314.5712,-622.7114"/>
<polygon fill="#000000" stroke="#000000" points="1317.8766,-623.8735 1318.3834,-613.2908 1311.3878,-621.2476 1317.8766,-623.8735"/>
</g>
<!-- T15&#45;&gt;T5 -->
<g id="edge155" class="edge">
<title>T15-&gt;T5</title>
<path fill="none" stroke="#000000" d="M800.5156,-913.1238C717.658,-905.0693 513.6584,-883.2202 450,-857.8032 273.0128,-787.1373 114,-781.9845 114,-591.4113 114,-591.4113 114,-591.4113 114,-185.1371 114,-131.8195 128.2732,-108.6744 174,-81.2548 250.4179,-35.4317 1646.8489,-24.4533 1896.8505,-22.852"/>
<polygon fill="#000000" stroke="#000000" points="1896.9286,-26.3517 1906.9063,-22.7887 1896.8845,-19.3518 1896.9286,-26.3517"/>
</g>
<!-- T15&#45;&gt;T12 -->
<g id="edge158" class="edge">
<title>T15-&gt;T12</title>
<path fill="none" stroke="#000000" d="M817.3071,-897.1069C807.9645,-886.3596 797.329,-872.2607 791,-857.8032 710.0112,-672.7981 667.5161,-594.7739 740,-406.2742 792.3788,-270.0594 828.6379,-226.0865 960,-162.5097 1037.3887,-125.0549 1643.2817,-108.7631 1816.1177,-104.8487"/>
<polygon fill="#000000" stroke="#000000" points="1816.2405,-108.3469 1826.1597,-104.6242 1816.084,-101.3487 1816.2405,-108.3469"/>
</g>
<!-- T15&#45;&gt;T16 -->
<g id="edge160" class="edge">
<title>T15-&gt;T16</title>
<path fill="none" stroke="#000000" d="M800.2885,-913.9258C703.0725,-904.9331 433.9017,-865.039 328,-695.2935 253.1537,-575.3254 364.6061,-509.7272 461,-406.2742 539.078,-322.4784 554.3346,-285.4826 661,-243.7645 743.2406,-211.5992 1364.5726,-191.4889 1540.003,-186.4101"/>
<polygon fill="#000000" stroke="#000000" points="1540.2923,-189.9033 1550.1877,-186.1177 1540.0913,-182.9062 1540.2923,-189.9033"/>
</g>
<!-- T15&#45;&gt;T17 -->
<g id="edge161" class="edge">
<title>T15-&gt;T17</title>
<path fill="none" stroke="#000000" d="M854.3431,-896.9475C863.5867,-886.155 874.2391,-872.0638 881,-857.8032 953.4183,-705.0525 877.2289,-630.1396 968,-487.529 999.3085,-438.3401 1018.5122,-431.6671 1071,-406.2742 1208.6751,-339.6687 1684.0244,-286.4342 1834.171,-270.958"/>
<polygon fill="#000000" stroke="#000000" points="1834.8191,-274.41 1844.4105,-269.9093 1834.1059,-267.4464 1834.8191,-274.41"/>
</g>
<!-- T15&#45;&gt;T18 -->
<g id="edge162" class="edge">
<title>T15-&gt;T18</title>
<path fill="none" stroke="#000000" d="M871.6223,-913.685C909.5119,-908.8128 968.5023,-895.2967 1002,-857.8032 1065.142,-787.1291 1019.0884,-739.6278 1050,-650.0387 1063.0034,-612.3516 1065.8832,-601.9538 1088,-568.7838 1115.0973,-528.1442 1123.541,-517.6413 1162,-487.529 1221.6978,-440.7874 1240.9217,-432.6652 1312,-406.2742 1387.9827,-378.0621 1481.3312,-361.5015 1535.7017,-353.535"/>
<polygon fill="#000000" stroke="#000000" points="1536.3106,-356.9836 1545.7133,-352.101 1535.318,-350.0543 1536.3106,-356.9836"/>
</g>
<!-- T15&#45;&gt;T19 -->
<g id="edge163" class="edge">
<title>T15-&gt;T19</title>
<path fill="none" stroke="#000000" d="M870.8154,-910.5011C919.9755,-901.6424 1012.1965,-883.2313 1088,-857.8032 1471.7297,-729.0819 1546.883,-644.3772 1920,-487.529 1956.166,-472.3258 1997.7299,-455.9566 2027.5853,-444.3891"/>
<polygon fill="#000000" stroke="#000000" points="2029.1708,-447.5287 2037.2365,-440.659 2026.6472,-440.9994 2029.1708,-447.5287"/>
</g>
<!-- T15&#45;&gt;T20 -->
<g id="edge164" class="edge">
<title>T15-&gt;T20</title>
<path fill="none" stroke="#000000" d="M871.6839,-915.7748C1026.0195,-912.7141 1636.7252,-898.2363 1824,-857.8032 1836.3292,-855.1413 2025.2123,-783.0844 2036,-776.5483 2082.6576,-748.2794 2096.4556,-739.8021 2128,-695.2935 2150.5382,-663.4925 2153.3441,-652.2573 2161,-614.0387 2165.6759,-590.6964 2165.7959,-563.8086 2164.815,-543.2366"/>
<polygon fill="#000000" stroke="#000000" points="2168.3004,-542.8843 2164.22,-533.1068 2161.3125,-543.2948 2168.3004,-542.8843"/>
</g>
<!-- T15&#45;&gt;T3 -->
<g id="edge154" class="edge">
<title>T15-&gt;T3</title>
<path fill="none" stroke="#000000" d="M840.8507,-939.0963C843.1276,-966.9452 843.3573,-1014.4031 841.5398,-1046.2087"/>
<polygon fill="#000000" stroke="#000000" points="838.0372,-1046.128 840.845,-1056.344 845.0208,-1046.6068 838.0372,-1046.128"/>
</g>
<!-- T15&#45;&gt;T7 -->
<g id="edge156" class="edge">
<title>T15-&gt;T7</title>
<path fill="none" stroke="#000000" d="M814.5561,-934.8503C796.0275,-948.3027 769.2181,-966.4443 748.1566,-979.776"/>
<polygon fill="#000000" stroke="#000000" points="746.1512,-976.9019 739.523,-985.1674 749.8589,-982.8393 746.1512,-976.9019"/>
</g>
<!-- T15&#45;&gt;T11 -->
<g id="edge157" class="edge">
<title>T15-&gt;T11</title>
<path fill="none" stroke="#000000" d="M807.8022,-902.2932C756.0173,-873.9843 646.5501,-810.1499 591.2528,-776.1752"/>
<polygon fill="#000000" stroke="#000000" points="592.887,-773.0706 582.5406,-770.7899 589.2065,-779.025 592.887,-773.0706"/>
</g>
<!-- T15&#45;&gt;T13 -->
<g id="edge159" class="edge">
<title>T15-&gt;T13</title>
<path fill="none" stroke="#000000" d="M829.8766,-893.7966C829.2805,-885.7843 829.1097,-876.602 829.3643,-867.9193"/>
<polygon fill="#000000" stroke="#000000" points="832.8721,-867.8536 829.8857,-857.6884 825.8811,-867.4972 832.8721,-867.8536"/>
</g>
<!-- T4 -->
<g id="node15" class="node">
<title>T4</title>
<ellipse fill="none" stroke="#000000" cx="2651" cy="-916.4306" rx="27.6307" ry="22.7556"/>
<text text-anchor="middle" x="2651" y="-910.4306" font-family="Helvetica,Arial,sans-serif" font-size="20.00" fill="#000000">T4</text>
</g>
<!-- T4&#45;&gt;T1 -->
<g id="edge30" class="edge">
<title>T4-&gt;T1</title>
<path fill="none" stroke="#000000" d="M2622.8657,-914.6877C2561.457,-910.2715 2411.3521,-896.1359 2292,-857.8032 2157.5481,-814.6208 2011.0256,-729.8704 1948.7556,-691.8833"/>
<polygon fill="#000000" stroke="#000000" points="1950.545,-688.8749 1940.191,-686.6285 1946.8842,-694.8414 1950.545,-688.8749"/>
</g>
<!-- T4&#45;&gt;T2 -->
<g id="edge31" class="edge">
<title>T4-&gt;T2</title>
<path fill="none" stroke="#000000" d="M2623.2029,-914.8944C2549.2039,-910.4035 2341.5567,-895.1773 2173,-857.8032 1881.4464,-793.1569 1819.7736,-736.7342 1534,-650.0387 1474.1324,-631.8766 1404.0057,-612.5003 1362.3858,-601.1975"/>
<polygon fill="#000000" stroke="#000000" points="1363.2612,-597.8086 1352.6939,-598.5716 1361.4306,-604.565 1363.2612,-597.8086"/>
</g>
<!-- T4&#45;&gt;T5 -->
<g id="edge32" class="edge">
<title>T4-&gt;T5</title>
<path fill="none" stroke="#000000" d="M2679.1999,-915.3389C2742.1895,-912.181 2898.4187,-900.3336 3021,-857.8032 3227.8395,-786.0388 3370,-729.0918 3370,-510.1564 3370,-510.1564 3370,-510.1564 3370,-185.1371 3370,-151.3585 3398.8237,-138.6562 3228,-81.2548 3106.4322,-40.4048 2173.4452,-25.789 1972.8945,-23.1036"/>
<polygon fill="#000000" stroke="#000000" points="1972.887,-19.6033 1962.8416,-22.9708 1972.7945,-26.6026 1972.887,-19.6033"/>
</g>
<!-- T4&#45;&gt;T12 -->
<g id="edge35" class="edge">
<title>T4-&gt;T12</title>
<path fill="none" stroke="#000000" d="M2678.3742,-911.9538C2749.2446,-900.2648 2935.0173,-868.9602 2961,-857.8032 3025.6763,-830.0311 3218,-743.0529 3218,-672.6661 3218,-672.6661 3218,-672.6661 3218,-591.4113 3218,-309.9293 3010.7249,-273.3859 2752,-162.5097 2674.1478,-129.1462 2079.2691,-109.9874 1907.9993,-105.1232"/>
<polygon fill="#000000" stroke="#000000" points="1907.9018,-101.6192 1897.8073,-104.8365 1907.7049,-108.6164 1907.9018,-101.6192"/>
</g>
<!-- T4&#45;&gt;T16 -->
<g id="edge36" class="edge">
<title>T4-&gt;T16</title>
<path fill="none" stroke="#000000" d="M2669.8879,-899.4563C2681.8132,-888.2468 2697.149,-872.8909 2709,-857.8032 2735.1925,-824.4573 2744.6151,-816.4366 2759,-776.5483 2783.7465,-707.9278 2776.8762,-686.8048 2782,-614.0387 2791.919,-473.1715 2765.2494,-406.6253 2650,-325.0193 2565.9526,-265.5069 2533.6415,-265.6047 2433,-243.7645 2278.0855,-210.1465 1785.5759,-191.6334 1632.1136,-186.5747"/>
<polygon fill="#000000" stroke="#000000" points="1631.7684,-183.0617 1621.6596,-186.2337 1631.5401,-190.058 1631.7684,-183.0617"/>
</g>
<!-- T4&#45;&gt;T17 -->
<g id="edge37" class="edge">
<title>T4-&gt;T17</title>
<path fill="none" stroke="#000000" d="M2676.8347,-907.9541C2691.4491,-903.3575 2710.1237,-897.8134 2727,-893.8032 2815.2962,-872.8217 2862.165,-920.2708 2928,-857.8032 3048.006,-743.9354 3025.4197,-582.5491 2890,-487.529 2856.751,-464.1991 2843.0139,-468.2548 2806,-451.529 2686.7027,-397.6211 2666.2985,-359.4665 2540,-325.0193 2423.7064,-293.301 2055.4961,-274.2237 1925.7711,-268.3475"/>
<polygon fill="#000000" stroke="#000000" points="1925.9129,-264.8505 1915.7662,-267.8992 1925.5995,-271.8434 1925.9129,-264.8505"/>
</g>
<!-- T4&#45;&gt;T18 -->
<g id="edge38" class="edge">
<title>T4-&gt;T18</title>
<path fill="none" stroke="#000000" d="M2627.8972,-903.7632C2608.4881,-892.6848 2580.411,-875.6188 2558,-857.8032 2517.8376,-825.876 2508.7575,-816.0365 2476,-776.5483 2448.1575,-742.985 2443.8016,-732.4659 2421,-695.2935 2387.4005,-640.5176 2394.2604,-616.3008 2351,-568.7838 2307.8861,-521.4278 2173.0616,-428.5003 2113,-406.2742 2024.1464,-373.3934 1739.2825,-355.6958 1627.0598,-349.8561"/>
<polygon fill="#000000" stroke="#000000" points="1626.9169,-346.3443 1616.7508,-349.3279 1626.5586,-353.3351 1626.9169,-346.3443"/>
</g>
<!-- T4&#45;&gt;T19 -->
<g id="edge39" class="edge">
<title>T4-&gt;T19</title>
<path fill="none" stroke="#000000" d="M2664.8318,-896.7491C2686.985,-862.6798 2725.9084,-790.6641 2705,-731.2935 2658.8224,-600.1696 2630.1309,-555.743 2509,-487.529 2442.0382,-449.82 2212.7031,-435.3104 2113.8953,-430.7185"/>
<polygon fill="#000000" stroke="#000000" points="2113.7761,-427.2096 2103.6285,-430.2554 2113.4606,-434.2025 2113.7761,-427.2096"/>
</g>
<!-- T4&#45;&gt;T20 -->
<g id="edge40" class="edge">
<title>T4-&gt;T20</title>
<path fill="none" stroke="#000000" d="M2623.0517,-914.831C2575.52,-911.046 2477.1788,-898.5251 2406,-857.8032 2350.3744,-825.9793 2306,-818.0065 2306,-753.9209 2306,-753.9209 2306,-753.9209 2306,-672.6661 2306,-625.2801 2311.4889,-605.8761 2282,-568.7838 2262.8077,-544.6431 2231.1653,-529.7614 2205.1907,-521.0341"/>
<polygon fill="#000000" stroke="#000000" points="2206.141,-517.6639 2195.551,-517.9842 2204.0294,-524.3378 2206.141,-517.6639"/>
</g>
<!-- T6 -->
<g id="node16" class="node">
<title>T6</title>
<ellipse fill="none" stroke="#000000" cx="2595" cy="-835.1758" rx="27.6307" ry="22.7556"/>
<text text-anchor="middle" x="2595" y="-829.1758" font-family="Helvetica,Arial,sans-serif" font-size="20.00" fill="#000000">T6</text>
</g>
<!-- T4&#45;&gt;T6 -->
<g id="edge33" class="edge">
<title>T4-&gt;T6</title>
<path fill="none" stroke="#000000" d="M2633.1704,-898.7995C2625.4493,-889.0765 2616.6507,-876.7333 2609.3534,-865.5115"/>
<polygon fill="#000000" stroke="#000000" points="2612.1683,-863.4137 2603.8722,-856.8238 2606.2481,-867.1489 2612.1683,-863.4137"/>
</g>
<!-- T10 -->
<g id="node17" class="node">
<title>T10</title>
<ellipse fill="none" stroke="#000000" cx="2660" cy="-753.9209" rx="35.8536" ry="22.7556"/>
<text text-anchor="middle" x="2660" y="-747.9209" font-family="Helvetica,Arial,sans-serif" font-size="20.00" fill="#000000">T10</text>
</g>
<!-- T4&#45;&gt;T10 -->
<g id="edge34" class="edge">
<title>T4-&gt;T10</title>
<path fill="none" stroke="#000000" d="M2647.4064,-893.8343C2646.6645,-865.9397 2649.0751,-818.296 2652.6688,-786.4632"/>
<polygon fill="#000000" stroke="#000000" points="2656.1686,-786.6809 2653.93,-776.3253 2649.2222,-785.8167 2656.1686,-786.6809"/>
</g>
<!-- T6&#45;&gt;T1 -->
<g id="edge49" class="edge">
<title>T6-&gt;T1</title>
<path fill="none" stroke="#000000" d="M2567.8547,-829.0665C2525.0306,-819.2271 2439.3242,-798.7165 2368,-776.5483 2311.9769,-759.1359 2300.6351,-746.5987 2244,-731.2935 2141.4058,-703.5682 2017.0433,-685.3194 1955.8091,-677.3138"/>
<polygon fill="#000000" stroke="#000000" points="1956.1975,-673.835 1945.832,-676.0274 1955.3023,-680.7775 1956.1975,-673.835"/>
</g>
<!-- T6&#45;&gt;T2 -->
<g id="edge50" class="edge">
<title>T6-&gt;T2</title>
<path fill="none" stroke="#000000" d="M2567.3744,-830.6589C2507.6367,-820.8817 2361.9835,-796.9888 2240,-776.5483 2213.4339,-772.0967 1785.3713,-708.6859 1762,-695.2935 1739.2125,-682.2357 1746.9306,-662.8436 1724,-650.0387 1692.8069,-632.6198 1457.2193,-605.5923 1363.8992,-595.4439"/>
<polygon fill="#000000" stroke="#000000" points="1364.0819,-591.9434 1353.7634,-594.3473 1363.3289,-598.9028 1364.0819,-591.9434"/>
</g>
<!-- T6&#45;&gt;T5 -->
<g id="edge52" class="edge">
<title>T6-&gt;T5</title>
<path fill="none" stroke="#000000" d="M2622.1043,-829.5317C2755.0689,-801.0842 3332,-668.5266 3332,-510.1564 3332,-510.1564 3332,-510.1564 3332,-185.1371 3332,-79.4121 3220.4194,-107.4855 3118,-81.2548 3004.9717,-52.3071 2162.5325,-28.6067 1972.8536,-23.6021"/>
<polygon fill="#000000" stroke="#000000" points="1972.8934,-20.102 1962.805,-23.3384 1972.7097,-27.0996 1972.8934,-20.102"/>
</g>
<!-- T6&#45;&gt;T12 -->
<g id="edge54" class="edge">
<title>T6-&gt;T12</title>
<path fill="none" stroke="#000000" d="M2622.1937,-829.494C2652.1703,-821.986 2700.2152,-806.1114 2731,-776.5483 2759.8925,-748.8025 2758.2747,-733.5966 2770,-695.2935 2818.1815,-537.8983 2828.2017,-481.7819 2778,-325.0193 2771.3118,-304.1345 2740.4033,-255.6903 2722,-243.7645 2584.8779,-154.9055 2066.7371,-116.4037 1908.306,-106.5482"/>
<polygon fill="#000000" stroke="#000000" points="1908.1594,-103.0328 1897.9639,-105.914 1907.7309,-110.0196 1908.1594,-103.0328"/>
</g>
<!-- T6&#45;&gt;T16 -->
<g id="edge55" class="edge">
<title>T6-&gt;T16</title>
<path fill="none" stroke="#000000" d="M2621.7194,-828.7911C2647.6574,-821.0772 2685.8348,-805.385 2705,-776.5483 2796.3318,-639.1272 2793.646,-523.9689 2678,-406.2742 2653.4805,-381.3203 2638.1651,-387.9933 2608,-370.2742 2576.6976,-351.887 2573.8079,-338.2462 2540,-325.0193 2445.6891,-288.1214 2414.9642,-305.2416 2315,-289.0193 2192.7334,-269.1778 2162.5526,-261.7557 2040,-243.7645 1890.5076,-221.8184 1712.6617,-200.1341 1631.0254,-190.4267"/>
<polygon fill="#000000" stroke="#000000" points="1631.4312,-186.9503 1621.0885,-189.2477 1630.6064,-193.9016 1631.4312,-186.9503"/>
</g>
<!-- T6&#45;&gt;T17 -->
<g id="edge56" class="edge">
<title>T6-&gt;T17</title>
<path fill="none" stroke="#000000" d="M2599.4122,-812.3829C2612.1231,-744.2588 2645.9911,-543.4465 2615,-487.529 2545.6097,-362.3278 2075.0189,-291.523 1925.5018,-271.9929"/>
<polygon fill="#000000" stroke="#000000" points="1925.6673,-268.4852 1915.3013,-270.6752 1924.7705,-275.4276 1925.6673,-268.4852"/>
</g>
<!-- T6&#45;&gt;T18 -->
<g id="edge57" class="edge">
<title>T6-&gt;T18</title>
<path fill="none" stroke="#000000" d="M2584.5257,-814.2044C2546.4232,-740.6274 2406.9166,-493.96 2208,-406.2742 2103.7622,-360.3244 1753.7517,-350.3344 1627.1737,-348.208"/>
<polygon fill="#000000" stroke="#000000" points="1627.0931,-344.7063 1617.0386,-348.0466 1626.9816,-351.7054 1627.0931,-344.7063"/>
</g>
<!-- T6&#45;&gt;T19 -->
<g id="edge58" class="edge">
<title>T6-&gt;T19</title>
<path fill="none" stroke="#000000" d="M2573.5953,-820.4283C2557.998,-809.2223 2536.7547,-792.9813 2520,-776.5483 2435.0206,-693.2008 2441.9761,-645.541 2351,-568.7838 2294.8342,-521.3964 2272.963,-519.918 2207,-487.529 2174.2984,-471.4719 2136.0961,-455.5553 2108.0255,-444.3671"/>
<polygon fill="#000000" stroke="#000000" points="2109.1311,-441.0406 2098.5448,-440.6145 2106.5548,-447.5493 2109.1311,-441.0406"/>
</g>
<!-- T6&#45;&gt;T20 -->
<g id="edge59" class="edge">
<title>T6-&gt;T20</title>
<path fill="none" stroke="#000000" d="M2569.3439,-825.606C2545.1381,-815.7557 2508.6825,-798.7309 2482,-776.5483 2470.7449,-767.1914 2331.8101,-577.4296 2320,-568.7838 2285.7683,-543.7239 2239.6257,-528.2436 2206.0472,-519.5306"/>
<polygon fill="#000000" stroke="#000000" points="2206.6063,-516.0629 2196.0567,-517.0407 2204.9135,-522.8551 2206.6063,-516.0629"/>
</g>
<!-- T6&#45;&gt;T4 -->
<g id="edge51" class="edge">
<title>T6-&gt;T4</title>
<path fill="none" stroke="#000000" d="M2612.6955,-852.6381C2620.4145,-862.3438 2629.2289,-874.6985 2636.5493,-885.9453"/>
<polygon fill="#000000" stroke="#000000" points="2633.7514,-888.0697 2642.0505,-894.6558 2639.6699,-884.3319 2633.7514,-888.0697"/>
</g>
<!-- T6&#45;&gt;T10 -->
<g id="edge53" class="edge">
<title>T6-&gt;T10</title>
<path fill="none" stroke="#000000" d="M2605.7509,-814.2506C2613.1748,-803.883 2623.1501,-791.2568 2632.5828,-780.2399"/>
<polygon fill="#000000" stroke="#000000" points="2635.3555,-782.3864 2639.3111,-772.5576 2630.0895,-777.7744 2635.3555,-782.3864"/>
</g>
<!-- T10&#45;&gt;T1 -->
<g id="edge97" class="edge">
<title>T10-&gt;T1</title>
<path fill="none" stroke="#000000" d="M2624.711,-750.0565C2500.473,-736.4515 2083.9241,-690.8361 1955.8133,-676.8069"/>
<polygon fill="#000000" stroke="#000000" points="1956.0272,-673.3095 1945.7056,-675.7001 1955.2651,-680.2679 1956.0272,-673.3095"/>
</g>
<!-- T10&#45;&gt;T2 -->
<g id="edge98" class="edge">
<title>T10-&gt;T2</title>
<path fill="none" stroke="#000000" d="M2624.0604,-752.5901C2490.863,-747.4448 2025.6235,-727.5218 1881,-695.2935 1825.7705,-682.986 1816.8457,-663.9574 1762,-650.0387 1686.6959,-630.928 1455.7217,-605.1654 1364.0604,-595.3931"/>
<polygon fill="#000000" stroke="#000000" points="1364.1598,-591.8841 1353.8462,-594.3089 1363.4209,-598.845 1364.1598,-591.8841"/>
</g>
<!-- T10&#45;&gt;T5 -->
<g id="edge100" class="edge">
<title>T10-&gt;T5</title>
<path fill="none" stroke="#000000" d="M2693.1298,-744.9231C2802.0273,-714.3822 3142,-610.9627 3142,-510.1564 3142,-510.1564 3142,-510.1564 3142,-185.1371 3142,-131.3694 3126.0635,-108.9879 3080,-81.2548 3031.5439,-52.0812 2166.2685,-28.4898 1973.0497,-23.5711"/>
<polygon fill="#000000" stroke="#000000" points="1972.9071,-20.0665 1962.8217,-23.3123 1972.7299,-27.0643 1972.9071,-20.0665"/>
</g>
<!-- T10&#45;&gt;T12 -->
<g id="edge102" class="edge">
<title>T10-&gt;T12</title>
<path fill="none" stroke="#000000" d="M2684.7833,-737.5668C2698.555,-727.1341 2714.7336,-712.3808 2724,-695.2935 2780.4415,-591.2153 2819.6701,-229.431 2722,-162.5097 2688.1629,-139.3253 2081.363,-112.8457 1907.9394,-105.7247"/>
<polygon fill="#000000" stroke="#000000" points="1907.9969,-102.2242 1897.8622,-105.3127 1907.7109,-109.2184 1907.9969,-102.2242"/>
</g>
<!-- T10&#45;&gt;T16 -->
<g id="edge103" class="edge">
<title>T10-&gt;T16</title>
<path fill="none" stroke="#000000" d="M2678.3523,-734.2046C2687.3925,-723.4552 2697.6816,-709.4754 2704,-695.2935 2718.9789,-661.6725 2716.4276,-650.6716 2720,-614.0387 2733.3709,-476.9284 2724.747,-398.1504 2608,-325.0193 2441.3302,-220.6163 1808.361,-192.3938 1631.9114,-186.4828"/>
<polygon fill="#000000" stroke="#000000" points="1631.7862,-182.9769 1621.677,-186.148 1631.5572,-189.9731 1631.7862,-182.9769"/>
</g>
<!-- T10&#45;&gt;T17 -->
<g id="edge104" class="edge">
<title>T10-&gt;T17</title>
<path fill="none" stroke="#000000" d="M2669.7571,-732.0118C2688.9323,-685.8289 2727.3777,-575.4983 2700,-487.529 2686.9668,-445.6511 2677.2918,-434.8273 2644,-406.2742 2628.2606,-392.7751 2495.9603,-330.6354 2476,-325.0193 2372.4277,-295.878 2046.7675,-275.5363 1925.8182,-268.8131"/>
<polygon fill="#000000" stroke="#000000" points="1925.9523,-265.3153 1915.775,-268.2601 1925.5674,-272.3047 1925.9523,-265.3153"/>
</g>
<!-- T10&#45;&gt;T18 -->
<g id="edge105" class="edge">
<title>T10-&gt;T18</title>
<path fill="none" stroke="#000000" d="M2659.992,-731.252C2658.7743,-681.1208 2649.0572,-559.5964 2586,-487.529 2525.5223,-418.4097 2485.2543,-427.9238 2396,-406.2742 2248.2437,-370.4342 1776.5191,-353.5092 1626.9546,-348.9511"/>
<polygon fill="#000000" stroke="#000000" points="1626.8523,-345.4465 1616.7516,-348.6441 1626.6418,-352.4433 1626.8523,-345.4465"/>
</g>
<!-- T10&#45;&gt;T19 -->
<g id="edge106" class="edge">
<title>T10-&gt;T19</title>
<path fill="none" stroke="#000000" d="M2637.4398,-736.0774C2624.4325,-725.1326 2608.2775,-710.3636 2596,-695.2935 2528.0791,-611.9231 2561.4505,-547.2155 2472,-487.529 2414.0981,-448.8936 2207.196,-435.0312 2114.0404,-430.6717"/>
<polygon fill="#000000" stroke="#000000" points="2113.9395,-427.1637 2103.7918,-430.2092 2113.6238,-434.1566 2113.9395,-427.1637"/>
</g>
<!-- T10&#45;&gt;T20 -->
<g id="edge107" class="edge">
<title>T10-&gt;T20</title>
<path fill="none" stroke="#000000" d="M2632.9738,-738.7992C2612.3095,-727.1378 2583.184,-710.4869 2558,-695.2935 2467.9408,-640.9613 2453.721,-612.3744 2358,-568.7838 2307.7899,-545.9185 2246.3489,-529.2161 2205.793,-519.6161"/>
<polygon fill="#000000" stroke="#000000" points="2206.4844,-516.1836 2195.9517,-517.329 2204.8998,-523.0019 2206.4844,-516.1836"/>
</g>
<!-- T10&#45;&gt;T4 -->
<g id="edge99" class="edge">
<title>T10-&gt;T4</title>
<path fill="none" stroke="#000000" d="M2663.5982,-776.6917C2664.3268,-804.6609 2661.9087,-852.2948 2658.3116,-884.0616"/>
<polygon fill="#000000" stroke="#000000" points="2654.8149,-883.8186 2657.0494,-894.1751 2661.761,-884.6855 2654.8149,-883.8186"/>
</g>
<!-- T10&#45;&gt;T6 -->
<g id="edge101" class="edge">
<title>T10-&gt;T6</title>
<path fill="none" stroke="#000000" d="M2648.6495,-775.6807C2640.8832,-786.4552 2630.51,-799.5056 2620.8871,-810.6352"/>
<polygon fill="#000000" stroke="#000000" points="2618.0728,-808.5338 2614.0608,-818.3397 2623.3121,-813.176 2618.0728,-808.5338"/>
</g>
<!-- T8 -->
<g id="node18" class="node">
<title>T8</title>
<ellipse fill="none" stroke="#000000" cx="2623" cy="-997.6854" rx="27.6307" ry="22.7556"/>
<text text-anchor="middle" x="2623" y="-991.6854" font-family="Helvetica,Arial,sans-serif" font-size="20.00" fill="#000000">T8</text>
</g>
<!-- T8&#45;&gt;T1 -->
<g id="edge73" class="edge">
<title>T8-&gt;T1</title>
<path fill="none" stroke="#000000" d="M2595.4612,-993.5543C2504.4309,-978.7592 2208.0926,-921.3863 2016,-776.5483 1986.3787,-754.2138 1957.9054,-722.5001 1939.3571,-700.0006"/>
<polygon fill="#000000" stroke="#000000" points="1942.0112,-697.7168 1932.9889,-692.1627 1936.5784,-702.1309 1942.0112,-697.7168"/>
</g>
<!-- T8&#45;&gt;T2 -->
<g id="edge74" class="edge">
<title>T8-&gt;T2</title>
<path fill="none" stroke="#000000" d="M2595.0189,-996.8647C2416.478,-991.2686 1444,-955.2752 1444,-835.1758 1444,-835.1758 1444,-835.1758 1444,-753.9209 1444,-693.5594 1390.0363,-640.5185 1355.0952,-612.5015"/>
<polygon fill="#000000" stroke="#000000" points="1357.1318,-609.6511 1347.096,-606.2548 1352.8234,-615.1682 1357.1318,-609.6511"/>
</g>
<!-- T8&#45;&gt;T5 -->
<g id="edge76" class="edge">
<title>T8-&gt;T5</title>
<path fill="none" stroke="#000000" d="M2650.9386,-994.9422C2790.7779,-980.8465 3408,-914.1573 3408,-835.1758 3408,-835.1758 3408,-835.1758 3408,-591.4113 3408,-481.763 3446,-457.295 3446,-347.6468 3446,-347.6468 3446,-347.6468 3446,-185.1371 3446,-104.4089 3373.4781,-107.1032 3297,-81.2548 3168.6256,-37.8664 2179.9136,-25.1885 1972.9228,-22.998"/>
<polygon fill="#000000" stroke="#000000" points="1972.8795,-19.4974 1962.8436,-22.8931 1972.8066,-26.4971 1972.8795,-19.4974"/>
</g>
<!-- T8&#45;&gt;T12 -->
<g id="edge80" class="edge">
<title>T8-&gt;T12</title>
<path fill="none" stroke="#000000" d="M2649.2186,-989.3704C2664.0391,-984.8243 2682.9585,-979.2769 2700,-975.058 2954.2934,-912.1038 3114.0017,-997.3375 3255,-776.5483 3344.6534,-636.1602 3274.2724,-553.8395 3197,-406.2742 3104.4388,-229.5122 3014.1562,-208.507 2820,-162.5097 2643.591,-120.7168 2074.9352,-107.6137 1908.2967,-104.6229"/>
<polygon fill="#000000" stroke="#000000" points="1907.9703,-101.1167 1897.9103,-104.4404 1907.8472,-108.1157 1907.9703,-101.1167"/>
</g>
<!-- T8&#45;&gt;T16 -->
<g id="edge82" class="edge">
<title>T8-&gt;T16</title>
<path fill="none" stroke="#000000" d="M2595.1161,-997.3023C2427.0402,-994.8607 1552.4135,-980.2427 1441,-939.058 1296.1007,-885.4951 1110.8447,-616.2311 1051,-532.7838 974.8445,-426.5928 902.9796,-334.5188 997,-243.7645 1016.5236,-224.9191 1404.8911,-197.2546 1540.0818,-188.158"/>
<polygon fill="#000000" stroke="#000000" points="1540.3777,-191.6461 1550.1213,-187.4853 1539.9096,-184.6618 1540.3777,-191.6461"/>
</g>
<!-- T8&#45;&gt;T17 -->
<g id="edge83" class="edge">
<title>T8-&gt;T17</title>
<path fill="none" stroke="#000000" d="M2649.0818,-989.1424C2763.2345,-951.6357 3213.9656,-802.2835 3232,-776.5483 3265.7902,-728.3297 3263.3671,-650.7666 3194,-568.7838 3012.5924,-354.3839 2883.9301,-391.2403 2611,-325.0193 2480.0135,-293.2381 2065.6456,-273.9232 1926.2616,-268.1938"/>
<polygon fill="#000000" stroke="#000000" points="1926.0717,-264.6832 1915.9376,-267.7737 1925.787,-271.6774 1926.0717,-264.6832"/>
</g>
<!-- T8&#45;&gt;T18 -->
<g id="edge84" class="edge">
<title>T8-&gt;T18</title>
<path fill="none" stroke="#000000" d="M2595.1709,-997.1962C2435.7599,-994.2589 1642.0685,-977.7719 1541,-939.058 1355.1079,-867.8527 1241.0315,-761.9809 1289,-568.7838 1308.6914,-489.4752 1311.4936,-457.6993 1375,-406.2742 1399.7888,-386.2011 1483.8716,-366.7017 1536.6416,-356.0224"/>
<polygon fill="#000000" stroke="#000000" points="1537.6287,-359.3945 1546.7512,-354.0065 1536.2598,-352.5296 1537.6287,-359.3945"/>
</g>
<!-- T8&#45;&gt;T19 -->
<g id="edge85" class="edge">
<title>T8-&gt;T19</title>
<path fill="none" stroke="#000000" d="M2648.9898,-988.805C2672.8491,-979.5476 2707.9006,-963.0184 2731,-939.058 2848.0523,-817.6429 2940.7535,-680.0331 2814,-568.7838 2708.3238,-476.0337 2260.4123,-440.7125 2114.2996,-431.527"/>
<polygon fill="#000000" stroke="#000000" points="2114.1039,-428.0083 2103.9073,-430.886 2113.6729,-434.9951 2114.1039,-428.0083"/>
</g>
<!-- T8&#45;&gt;T20 -->
<g id="edge86" class="edge">
<title>T8-&gt;T20</title>
<path fill="none" stroke="#000000" d="M2648.0426,-987.754C2667.7766,-978.4306 2693.9102,-962.3994 2706,-939.058 2724.6104,-903.1276 2770.3738,-841.5312 2705,-731.2935 2629.0438,-603.2109 2550.9213,-622.4064 2412,-568.7838 2342.742,-542.0507 2257.8016,-525.2893 2206.8878,-516.8384"/>
<polygon fill="#000000" stroke="#000000" points="2207.2976,-513.3592 2196.8656,-515.2096 2206.1746,-520.2685 2207.2976,-513.3592"/>
</g>
<!-- T8&#45;&gt;T4 -->
<g id="edge75" class="edge">
<title>T8-&gt;T4</title>
<path fill="none" stroke="#000000" d="M2630.6511,-975.4822C2633.5763,-966.9934 2636.9706,-957.1432 2640.1389,-947.9492"/>
<polygon fill="#000000" stroke="#000000" points="2643.5061,-948.9204 2643.4551,-938.3257 2636.888,-946.6398 2643.5061,-948.9204"/>
</g>
<!-- T8&#45;&gt;T6 -->
<g id="edge77" class="edge">
<title>T8-&gt;T6</title>
<path fill="none" stroke="#000000" d="M2619.1067,-975.0892C2614.314,-947.2729 2606.1378,-899.8183 2600.6532,-867.9867"/>
<polygon fill="#000000" stroke="#000000" points="2604.0525,-867.102 2598.9052,-857.8415 2597.1541,-868.2906 2604.0525,-867.102"/>
</g>
<!-- T8&#45;&gt;T10 -->
<g id="edge79" class="edge">
<title>T8-&gt;T10</title>
<path fill="none" stroke="#000000" d="M2645.6179,-984.4562C2660.7256,-974.2093 2679.3548,-958.4979 2688,-939.058 2710.493,-888.4794 2690.6742,-823.2736 2674.8805,-785.2782"/>
<polygon fill="#000000" stroke="#000000" points="2677.9538,-783.5667 2670.7759,-775.7739 2671.5275,-786.3421 2677.9538,-783.5667"/>
</g>
<!-- T9 -->
<g id="node19" class="node">
<title>T9</title>
<ellipse fill="none" stroke="#000000" cx="1756" cy="-835.1758" rx="27.6307" ry="22.7556"/>
<text text-anchor="middle" x="1756" y="-829.1758" font-family="Helvetica,Arial,sans-serif" font-size="20.00" fill="#000000">T9</text>
</g>
<!-- T8&#45;&gt;T9 -->
<g id="edge78" class="edge">
<title>T8-&gt;T9</title>
<path fill="none" stroke="#000000" d="M2595.0978,-995.9457C2492.5279,-989.3954 2136.5874,-965.2536 2026,-939.058 1937.3873,-918.0677 1838.8556,-874.6999 1788.9064,-851.1822"/>
<polygon fill="#000000" stroke="#000000" points="1790.4048,-848.0192 1779.8699,-846.8938 1787.4036,-854.3432 1790.4048,-848.0192"/>
</g>
<!-- T14 -->
<g id="node20" class="node">
<title>T14</title>
<ellipse fill="none" stroke="#000000" cx="1596" cy="-753.9209" rx="35.8536" ry="22.7556"/>
<text text-anchor="middle" x="1596" y="-747.9209" font-family="Helvetica,Arial,sans-serif" font-size="20.00" fill="#000000">T14</text>
</g>
<!-- T8&#45;&gt;T14 -->
<g id="edge81" class="edge">
<title>T8-&gt;T14</title>
<path fill="none" stroke="#000000" d="M2595.1243,-996.853C2477.7685,-993.1363 2023.6146,-976.568 1886,-939.058 1806.3638,-917.3514 1788.1745,-902.8364 1719,-857.8032 1683.4897,-834.6857 1646.9044,-802.5198 1622.9691,-780.1281"/>
<polygon fill="#000000" stroke="#000000" points="1625.3333,-777.5467 1615.6598,-773.2253 1620.5271,-782.636 1625.3333,-777.5467"/>
</g>
<!-- T9&#45;&gt;T1 -->
<g id="edge87" class="edge">
<title>T9-&gt;T1</title>
<path fill="none" stroke="#000000" d="M1760.0359,-812.6712C1765.2152,-789.6478 1776.2593,-754.1081 1798,-731.2935 1824.3396,-703.6529 1841.8438,-712.3561 1876,-695.2935 1879.1328,-693.7285 1882.3765,-692.0632 1885.6089,-690.3735"/>
<polygon fill="#000000" stroke="#000000" points="1887.3944,-693.3883 1894.5876,-685.6096 1884.1135,-687.2048 1887.3944,-693.3883"/>
</g>
<!-- T9&#45;&gt;T2 -->
<g id="edge88" class="edge">
<title>T9-&gt;T2</title>
<path fill="none" stroke="#000000" d="M1728.0342,-832.917C1686.1479,-828.3464 1606.1566,-814.9113 1551,-776.5483 1493.7103,-736.7017 1512.375,-693.7791 1458,-650.0387 1429.4618,-627.0819 1390.5183,-611.2362 1362.3333,-601.8602"/>
<polygon fill="#000000" stroke="#000000" points="1363.0666,-598.4197 1352.4754,-598.6974 1360.928,-605.0851 1363.0666,-598.4197"/>
</g>
<!-- T9&#45;&gt;T5 -->
<g id="edge89" class="edge">
<title>T9-&gt;T5</title>
<path fill="none" stroke="#000000" d="M1783.8429,-832.2894C1841.2401,-825.8923 1976.5173,-808.5007 2086,-776.5483 2321.6865,-707.7636 3066,-511.9107 3066,-266.3919 3066,-266.3919 3066,-266.3919 3066,-185.1371 3066,-59.4602 2925.5979,-108.9032 2803,-81.2548 2641.2921,-44.7863 2118.7273,-27.7536 1973.0287,-23.6386"/>
<polygon fill="#000000" stroke="#000000" points="1972.9036,-20.1339 1962.81,-23.3539 1972.7085,-27.1312 1972.9036,-20.1339"/>
</g>
<!-- T9&#45;&gt;T12 -->
<g id="edge90" class="edge">
<title>T9-&gt;T12</title>
<path fill="none" stroke="#000000" d="M1758.5601,-812.4718C1760.9485,-791.4214 1764.6386,-759.2323 1768,-731.2935 1788.5264,-560.6848 1816,-519.4858 1816,-347.6468 1816,-347.6468 1816,-347.6468 1816,-266.3919 1816,-219.2248 1834.1623,-167.1691 1847.6621,-134.9916"/>
<polygon fill="#000000" stroke="#000000" points="1850.9352,-136.2399 1851.6767,-125.671 1844.5062,-133.4707 1850.9352,-136.2399"/>
</g>
<!-- T9&#45;&gt;T16 -->
<g id="edge92" class="edge">
<title>T9-&gt;T16</title>
<path fill="none" stroke="#000000" d="M1728.1687,-833.0014C1641.1457,-824.4659 1374.8876,-784.7232 1289,-614.0387 1209.3381,-455.7264 1291.0788,-344.3418 1437,-243.7645 1469.5287,-221.3439 1511.8616,-205.7483 1543.0879,-196.3099"/>
<polygon fill="#000000" stroke="#000000" points="1544.1974,-199.632 1552.8095,-193.4609 1542.2288,-192.9145 1544.1974,-199.632"/>
</g>
<!-- T9&#45;&gt;T17 -->
<g id="edge93" class="edge">
<title>T9-&gt;T17</title>
<path fill="none" stroke="#000000" d="M1784.1768,-834.0071C1836.4804,-830.8428 1950.9865,-819.1914 2036,-776.5483 2154.2913,-717.213 2182.9176,-662.9128 2207,-532.7838 2217.2322,-477.4944 2236.0587,-455.0013 2208,-406.2742 2150.1712,-305.8477 2001.5333,-277.4962 1925.8124,-269.5108"/>
<polygon fill="#000000" stroke="#000000" points="1925.9223,-266.0049 1915.6289,-268.5138 1925.2402,-272.9716 1925.9223,-266.0049"/>
</g>
<!-- T9&#45;&gt;T18 -->
<g id="edge94" class="edge">
<title>T9-&gt;T18</title>
<path fill="none" stroke="#000000" d="M1740.156,-816.3096C1703.4037,-771.0644 1613.3976,-651.3152 1586,-532.7838 1573.2981,-477.8308 1573.6014,-462.625 1576,-406.2742 1576.3543,-397.9498 1576.9904,-388.9787 1577.6928,-380.6178"/>
<polygon fill="#000000" stroke="#000000" points="1581.1975,-380.7203 1578.6016,-370.4484 1574.2252,-380.0971 1581.1975,-380.7203"/>
</g>
<!-- T9&#45;&gt;T19 -->
<g id="edge95" class="edge">
<title>T9-&gt;T19</title>
<path fill="none" stroke="#000000" d="M1779.4656,-822.8773C1819.2135,-801.196 1900.7455,-752.9661 1955,-695.2935 2013.1082,-633.5244 2026.8735,-612.7893 2055,-532.7838 2063.008,-510.0051 2066.2056,-482.8938 2067.4289,-462.0803"/>
<polygon fill="#000000" stroke="#000000" points="2070.9373,-461.9777 2067.9036,-451.8265 2063.9447,-461.6539 2070.9373,-461.9777"/>
</g>
<!-- T9&#45;&gt;T20 -->
<g id="edge96" class="edge">
<title>T9-&gt;T20</title>
<path fill="none" stroke="#000000" d="M1783.605,-830.8351C1826.5549,-823.4386 1911.3651,-806.2366 1978,-776.5483 2038.186,-749.7333 2062.0167,-747.6646 2102,-695.2935 2137.0076,-649.4396 2152.008,-582.3953 2158.1166,-542.8245"/>
<polygon fill="#000000" stroke="#000000" points="2161.5832,-543.3068 2159.5491,-532.9091 2154.6551,-542.3058 2161.5832,-543.3068"/>
</g>
<!-- T9&#45;&gt;T14 -->
<g id="edge91" class="edge">
<title>T9-&gt;T14</title>
<path fill="none" stroke="#000000" d="M1730.6566,-825.7995C1722.3071,-821.6766 1713.2382,-816.8126 1705,-812.5483 1680.225,-799.7244 1652.276,-785.8139 1630.7724,-774.7622"/>
<polygon fill="#000000" stroke="#000000" points="1632.1704,-771.5447 1621.6806,-770.0564 1628.9527,-777.7614 1632.1704,-771.5447"/>
</g>
<!-- T14&#45;&gt;T1 -->
<g id="edge142" class="edge">
<title>T14-&gt;T1</title>
<path fill="none" stroke="#000000" d="M1628.8881,-744.9122C1645.3709,-740.5383 1665.6744,-735.3629 1684,-731.2935 1768.7559,-712.4728 1794.1426,-724.227 1876,-695.2935 1879.4848,-694.0618 1883.0309,-692.5719 1886.5111,-690.9513"/>
<polygon fill="#000000" stroke="#000000" points="1888.1178,-694.061 1895.4817,-686.4437 1884.9749,-687.8062 1888.1178,-694.061"/>
</g>
<!-- T14&#45;&gt;T2 -->
<g id="edge143" class="edge">
<title>T14-&gt;T2</title>
<path fill="none" stroke="#000000" d="M1578.6431,-733.7547C1555.3288,-707.0575 1514.6727,-661.9616 1496,-650.0387 1473.4669,-635.6507 1404.9938,-614.2734 1362.1359,-601.6987"/>
<polygon fill="#000000" stroke="#000000" points="1362.9389,-598.2872 1352.3591,-598.8523 1360.9821,-605.0082 1362.9389,-598.2872"/>
</g>
<!-- T14&#45;&gt;T5 -->
<g id="edge144" class="edge">
<title>T14-&gt;T5</title>
<path fill="none" stroke="#000000" d="M1594.6707,-731.0413C1593.188,-695.7074 1592.5385,-625.9651 1606,-568.7838 1660.1037,-338.9641 1654.5039,-252.5421 1817,-81.2548 1839.2381,-57.8136 1872.8597,-42.3918 1898.5327,-33.2762"/>
<polygon fill="#000000" stroke="#000000" points="1899.9398,-36.4952 1908.2911,-29.9755 1897.6969,-29.8642 1899.9398,-36.4952"/>
</g>
<!-- T14&#45;&gt;T12 -->
<g id="edge146" class="edge">
<title>T14-&gt;T12</title>
<path fill="none" stroke="#000000" d="M1562.5882,-745.987C1411.6748,-708.3601 806.7598,-537.3983 942,-243.7645 965.2426,-193.3 985.5966,-183.5947 1037,-162.5097 1109.1469,-132.9159 1652.8921,-111.3315 1815.9307,-105.4727"/>
<polygon fill="#000000" stroke="#000000" points="1816.2413,-108.9639 1826.1102,-105.1096 1815.9918,-101.9683 1816.2413,-108.9639"/>
</g>
<!-- T14&#45;&gt;T16 -->
<g id="edge147" class="edge">
<title>T14-&gt;T16</title>
<path fill="none" stroke="#000000" d="M1561.348,-748.4434C1456.7149,-729.7833 1144.1791,-657.9646 1030,-451.529 985.3077,-370.7253 968.2242,-312.3967 1030,-243.7645 1063.909,-206.0919 1412.6352,-190.865 1539.8668,-186.5358"/>
<polygon fill="#000000" stroke="#000000" points="1540.1822,-190.0273 1550.0601,-186.1962 1539.9491,-183.0312 1540.1822,-190.0273"/>
</g>
<!-- T14&#45;&gt;T17 -->
<g id="edge148" class="edge">
<title>T14-&gt;T17</title>
<path fill="none" stroke="#000000" d="M1602.4641,-731.5709C1605.3125,-720.7177 1608.3763,-707.4289 1610,-695.2935 1613.7301,-667.4146 1603.6576,-594.9407 1614,-568.7838 1617.3332,-560.3538 1789.9242,-367.0306 1855.279,-293.9941"/>
<polygon fill="#000000" stroke="#000000" points="1857.9214,-296.2898 1861.9826,-286.5042 1852.7055,-291.6214 1857.9214,-296.2898"/>
</g>
<!-- T14&#45;&gt;T18 -->
<g id="edge149" class="edge">
<title>T14-&gt;T18</title>
<path fill="none" stroke="#000000" d="M1587.7069,-731.5531C1578.0537,-708.3032 1560.038,-672.266 1534,-650.0387 1501.2337,-622.0678 1468.1526,-649.7129 1444,-614.0387 1387.4484,-530.5101 1495.2352,-420.6321 1550.7985,-372.282"/>
<polygon fill="#000000" stroke="#000000" points="1553.2748,-374.7694 1558.5917,-365.6053 1548.7204,-369.4535 1553.2748,-374.7694"/>
</g>
<!-- T14&#45;&gt;T19 -->
<g id="edge150" class="edge">
<title>T14-&gt;T19</title>
<path fill="none" stroke="#000000" d="M1620.3829,-737.1309C1699.0312,-682.9736 1946.0714,-512.8616 2035.378,-451.3651"/>
<polygon fill="#000000" stroke="#000000" points="2037.5117,-454.1454 2043.7629,-445.5913 2033.5416,-448.3801 2037.5117,-454.1454"/>
</g>
<!-- T14&#45;&gt;T20 -->
<g id="edge151" class="edge">
<title>T14-&gt;T20</title>
<path fill="none" stroke="#000000" d="M1631.6219,-750.8275C1710.7239,-743.5241 1898.4923,-723.6665 1955,-695.2935 2026.7643,-659.26 2023.4368,-621.5156 2084,-568.7838 2098.4181,-556.2301 2115.282,-543.3515 2129.6336,-532.8739"/>
<polygon fill="#000000" stroke="#000000" points="2131.7016,-535.6977 2137.7557,-527.003 2127.6009,-530.0246 2131.7016,-535.6977"/>
</g>
<!-- T14&#45;&gt;T9 -->
<g id="edge145" class="edge">
<title>T14-&gt;T9</title>
<path fill="none" stroke="#000000" d="M1626.9167,-765.5924C1653.0025,-777.2621 1690.6989,-795.8288 1723,-812.5483 1724.1585,-813.148 1725.3334,-813.7595 1726.5163,-814.3792"/>
<polygon fill="#000000" stroke="#000000" points="1725.1281,-817.6056 1735.5982,-819.2269 1728.4244,-811.4302 1725.1281,-817.6056"/>
</g>
</g>
</svg>